<?xml version="1.0" encoding="UTF-8"?>
<svg width="620.37" height="620.37" viewBox="0 0 620.373293333333 481.18668" xmlns="http://www.w3.org/2000/svg">
 <path d="m23.419 154.38c0 29.002 25.461 137.75 31.847 162.97 4.7185 18.639 11.91 37.819 20.266 54.324 11.026 21.777 37.156 29.188 57.903 34.31 29.983 7.4026 64.712 8.5775 95.541 8.5775 29.019 0 61.039-9.2724 88.875-16.145 6.816-1.6828 24.622-3.8122 31.378-5.7183 26.265-7.411 39.716-14.058 67.933-21.024 19.188-4.7373 39.261-16.928 55.008-28.592 19.518-14.456 34.826-32.515 49.218-51.465l8.6855-11.437c11.106-14.624 17.371-39.124 17.371-57.183 0-21.96 2.9351-38.5-5.7903-60.042-8.5897-21.207-27.496-35.732-43.428-51.465-18.943-18.707-33.487-37.89-55.883-48.948-22.839-11.278-55.888-11.726-81.065-20.014-31.734-10.446-70.091-13.953-103.35-13.953h-75.274c-25.824 0-23.129 4.0344-47.865 8.9201-17.461 3.4488-111.37 83.17-111.37 116.88z" fill="#fff290" fill-rule="evenodd"/>
 <path d="m424.96 329.69a172.76 172.76 0 1 1 -40.845 -260.11" fill="none" stroke="#000" stroke-linecap="round" stroke-miterlimit="0" stroke-width="11.3"/>
 <path d="m195.74 131.37a128.63 128.49 0 1 1 99.016 210.54" fill="none" stroke="#000" stroke-linecap="round" stroke-miterlimit="0" stroke-width="11.3"/>
 <path d="m450.83 139.1 0.51028-44.028s-0.76544-8.8056 6.3787-8.8056c6.889 0 5.6132 8.8056 5.6132 8.8056l-0.25513 44.028s-0.76544 4.4028 5.1029 4.6618 4.8478-4.9208 4.8478-4.9208l-0.25513-43.251s-0.51028-9.3236 5.6132-9.3236 4.8478 9.5826 4.8478 9.5826v44.287s1.9136 3.8201 6.1235 3.6258 4.9116-3.6906 5.0392-3.5935l0.57407-44.06s0-9.3236 5.3581-9.5826 5.3581 9.5826 5.3581 9.5826l-0.25516 46.618s2.857 37.662-14.587 40.195c-15.44 2.242 6.0918 133.94 0.3352 137.86-5.4456 3.7071-6.8089 4.3584-11.912 4.6174s-10.095-1.5978-13.355-5.3499c-6.0064-6.9126 13.083-136.23 1.5384-137.9-15.044-2.1796-16.876-43.311-16.621-43.052z" fill="none" stroke="#000" stroke-width="5.883"/>
 <path d="m53.905 111.24c6.889-13.208 20.922-15.372 27.046-15.372s22.619 1.4733 27.301 16.408c4.7411 15.125 2.6019 84.28-14.842 86.813-15.44 2.242 6.0918 133.94 0.3352 137.86-5.4456 3.7071-6.8089 4.3584-11.912 4.6174s-9.5899-0.58762-12.85-4.3398c-6.0064-6.9126 12.578-135.72 1.0333-137.4-15.044-2.1796-22.999-75.387-16.11-88.595z" fill="none" stroke="#000" stroke-width="5.883"/>
 <path d="m81.745 112.33a16.92 33.367 0 1 1 0.90306 66.483" fill="none" stroke="#000" stroke-linecap="round" stroke-width="5.883"/>
</svg>
