<?xml version="1.0" encoding="utf-8"?>
<svg xmlns="http://www.w3.org/2000/svg" xmlns:xlink="http://www.w3.org/1999/xlink" version= "1.1" width="720px" height="1424px" viewBox="0 0 720 1424">
<g id="layer1">
<g style="fill:rgb(91,114,64); fill-opacity:1.0; stroke-linejoin: miter">
<path d="M599.96014,367.542C600.0869,367.73892,599.77625,368.9769,599.30066,370.25543C598.51294,372.3695,598.0077,375.34,597.75903,379.91278C597.4548,384.7664,597.9687,388.36798,599.86334,394.59158C600.8613,397.97235,601.7974,400.98,601.963,401.34314C602.1123,401.7505,604.05884,406.08655,606.2361,411.00934C610.27167,420.23935,614.2832,431.01312,615.5097,435.9331C617.33026,443.43335,615.8563,451.56293,610.7031,462.0314C606.4255,470.8197,605.6783,474.30435,606.52045,482.14124C607.1216,487.93338,608.6828,492.6284,611.22784,496.83624C615.15344,503.26468,620.5746,512.4078,622.1817,515.3643C631.6364,532.5296,638.66614,547.58856,645.0052,564.0955C648.4688,573.11115,648.8618,574.2109,650.91675,580.54266C653.1038,587.3276,653.6048,587.4628,654.3071,581.4058C654.9337,576.222,654.6713,574.36884,652.4338,567.3151C651.3085,563.73627,650.0294,559.49725,649.60736,557.93536C648.776,554.9163,647.96497,548.3448,648.12524,545.89667C648.514,539.87054,649.7246,532.84906,650.7334,530.8172C653.48413,525.3206,655.11084,522.1656,656.91394,519.0755C661.9348,510.3123,663.4865,508.03134,668.1724,502.45306C670.0052,500.22708,672.49066,497.19064,673.6869,495.72977C674.8993,494.22516,677.9723,490.55563,680.5183,487.49063C683.0638,484.42645,685.5007,481.52274,685.90656,480.9713C686.59155,480.07266,688.69415,477.79657,691.52026,474.7867C692.10803,474.15277,693.14484,472.98465,693.81464,472.13083C694.4842,471.2772,695.285,470.47186,695.5438,470.3177C696.43976,469.79715,696.33575,470.6127,695.2777,471.9738C694.70166,472.7125,693.6101,474.1605,692.7989,475.26318C692.00323,476.32092,690.1622,480.04883,688.7174,483.5244C686.1719,489.54712,686.0352,490.0484,685.55145,495.387C684.60406,505.06528,684.55084,505.7471,684.71484,512.9814C684.99194,524.62213,684.3271,537.716,683.0912,543.726C682.45996,546.90155,678.9145,553.45575,675.7269,557.435C674.4375,559.0103,671.4075,561.89484,669.0346,563.81866C662.7573,568.95416,661.5443,570.4578,659.1142,576.17365C655.7425,584.1468,654.67065,592.2751,656.2887,597.89386C658.64557,606.2453,664.3875,631.759,664.07556,632.59564C664.0431,632.6839,664.305,634.1357,664.6494,635.7684C664.9939,637.4018,665.2549,638.8538,665.2225,638.94196C665.17334,639.07355,665.5308,641.6143,666.0051,644.6507C666.8097,650.16595,668.20575,662.97626,668.49744,667.85016C668.62634,669.25226,668.77527,671.816,668.8937,673.51495C669.10974,676.70526,669.5834,689.5723,669.5104,691.2504C669.49536,692.0975,669.61145,692.19037,670.3531,691.8156C671.7435,691.1801,676.94293,686.2453,678.7809,683.87054C680.33826,681.8426,680.9245,680.4051,684.7625,669.2951C688.8676,657.3321,689.68915,655.5306,693.0064,650.39655C694.70593,647.7205,700.14014,641.61786,701.9909,640.15106C703.9895,638.6883,709.60034,636.0147,715.1909,633.9338C717.30194,633.1154,719.6819,632.2459,720.51105,631.9028C722.941,630.90155,728.9795,629.64056,734.5063,628.941C737.34454,628.59467,741.5738,628.01385,743.95,627.6945C748.86597,627.01886,759.82184,625.8842,762.446,625.70746C763.4133,625.6672,765.8288,625.5129,767.79785,625.3442C772.20935,625.0811,773.67316,625.7276,769.97876,626.3577C766.1781,626.9982,761.46185,628.7531,758.1163,630.8663C754.6663,632.9924,754.08356,633.4777,750.9676,637.13055C749.63324,638.6906,748.22345,640.32184,747.8223,640.7242C745.13324,643.63495,741.52936,648.86346,735.8769,657.8411C735.3401,658.7447,734.11694,660.5472,733.17914,661.8527C732.2413,663.1585,731.1003,664.7399,730.64484,665.4233C729.70685,666.7293,726.37103,671.1043,723.4912,674.79596C719.02545,680.4559,715.2072,682.89606,708.1913,684.4948C704.12854,685.43866,699.9031,685.47003,696.0067,684.6202C689.94055,683.26227,685.289,684.4393,679.65,688.80817C675.00354,692.3945,669.2477,699.6297,669.5105,701.4827C669.58307,701.96075,669.5503,704.60736,669.39594,707.30865C669.2431,710.0098,669.1007,713.21735,669.04224,714.4511C669.0033,716.44147,668.7672,719.36395,668.1364,727.65485C667.99615,729.10785,667.8078,731.09454,667.67267,731.99615C667.5805,732.91534,667.2075,735.9367,666.8731,738.721C664.7711,757.149,661.3961,773.749,654.9549,797.2307C653.9997,800.7373,650.6382,810.569,647.47034,819.0708C643.41235,830.09766,641.90326,834.55176,642.3045,834.55054C643.5091,834.5476,649.5249,827.9606,651.9255,823.94055C654.42096,819.8036,658.434,813.4739,659.3711,812.1682C666.12366,802.796,669.3952,799.4,677.72784,793.3263C683.1427,789.42444,685.45154,788.47974,696.202,786.0139C707.34186,783.44324,713.501,782.92896,726.2591,783.4204C726.9411,783.4741,730.0938,783.4949,733.2461,783.51514C739.84845,783.56714,742.2693,783.66614,744.6731,783.8096C753.45496,784.4735,758.539,784.96277,758.6054,785.1887C758.7994,785.6113,757.7994,786.1422,757.2699,785.9452C756.962,785.83044,755.0863,785.88416,753.1015,786.09705C746.192,786.7334,739.1566,789.72986,732.35736,794.92175C729.75964,796.91223,727.6175,798.62256,727.5852,798.7107C727.55176,798.798,726.09625,800.0122,724.3667,801.4241C722.59326,802.8192,720.27563,804.8666,719.21124,805.97424C718.1183,807.02185,715.9441,809.2206,714.29767,810.81445C706.3765,818.7478,694.8783,828.60803,689.0123,832.6417C682.49176,837.084,671.9152,838.41016,664.60364,835.6858C658.1729,833.29065,653.5033,833.3063,647.748,835.8258C641.58673,838.4966,639.49976,839.92554,638.6953,842.0847C637.57935,845.07983,629.3525,861.77637,624.12604,871.7667C621.76917,876.2063,617.0398,884.3253,613.6837,889.6961C612.52155,891.4709,611.19476,893.685,610.6131,894.5717C609.2867,896.78516,606.1778,901.4961,604.7571,903.4241C604.17554,904.31104,603.2213,905.66113,602.73303,906.4315C601.3352,908.56885,598.0715,913.02136,593.34875,919.2373C591.44464,921.7881,580.34546,935.5603,579.4011,936.6129C578.8302,937.20154,578.05695,938.06714,577.7003,938.48596C574.1832,942.54236,567.56433,949.80774,565.9607,951.41785C564.89624,952.5255,563.43024,954.03564,562.7657,954.74097C562.05817,955.4304,560.2849,957.22766,558.7913,958.678C557.2993,960.12683,556.09155,961.4834,556.1909,961.62085C556.27277,961.8019,558.1211,961.28613,560.30304,960.5438C562.4576,959.74304,564.59644,958.9845,565.0034,958.8352C567.69696,957.9325,575.95197,951.93066,583.5415,945.42737C588.76825,940.9551,597.5745,935.3585,604.0111,932.48816C609.9631,929.8401,621.4914,926.36194,625.62256,926.0459C629.96185,925.7063,637.9613,926.1776,648.30066,927.37256C650.4023,927.6544,652.96704,927.9072,653.9288,928.0154C654.9533,928.09546,656.5816,928.30066,657.56134,928.36523C661.5172,928.7853,666.89575,930.2378,686.85114,936.3185C691.1778,937.62915,696.9794,939.2894,699.7483,940.07117C705.9352,941.77405,727.2859,949.62744,727.1053,950.1113C727.0398,950.2881,725.13007,950.0277,722.82983,949.47156C715.77875,947.7991,712.2518,947.43726,705.4307,947.7053C699.47363,947.94385,696.3166,948.47253,691.7869,949.99426C691.33624,950.1278,687.45605,951.39026,683.2448,952.7307C679.0154,954.11487,670.1173,957.6715,663.49994,960.6238C646.80396,968.1459,629.6381,974.641,622.3399,976.18604C616.2418,977.47546,612.2591,977.3948,603.8224,975.80676C598.01587,974.6969,592.32886,972.3268,585.5536,968.2981C580.39844,965.17334,580.3537,965.15674,576.0668,964.41125C571.5267,963.6727,567.39526,963.5886,562.8692,964.15955C559.17883,964.6398,551.6672,966.35583,550.4532,967.05774C549.89307,967.34985,547.1964,969.60547,544.4789,972.0542C541.7608,974.5027,537.8962,977.8778,535.8579,979.5758C533.8366,981.2318,532.15076,982.66003,532.118,982.7484C531.92114,983.2761,511.89075,998.13464,506.80298,1001.55554C506.05634,1002.07947,504.85376,1002.88586,504.10663,1003.40967C503.35864,1003.9337,499.52448,1006.4181,495.5691,1008.95593C481.8178,1017.7272,466.41583,1026.0831,450.3791,1033.4509C445.78467,1035.5507,442.0924,1037.3853,442.14722,1037.5062C442.58917,1038.4735,453.27435,1039.1442,458.90112,1038.5819C463.54303,1038.1046,465.81335,1037.3961,478.8954,1032.4387C487.7564,1029.1191,501.6214,1024.755,502.45813,1025.0662C502.5907,1025.1162,504.21802,1024.9199,506.08777,1024.6127C510.8888,1023.8436,520.3388,1023.65234,526.7002,1024.2162C535.2234,1025.0349,540.183,1026.5322,548.7415,1031.025C551.38525,1032.411,554.40826,1033.9899,555.46,1034.5315C560.5438,1037.1781,566.78876,1040.6082,568.799,1041.8088C572.30817,1043.9689,576.5995,1046.7214,577.8887,1047.7037C580.53876,1049.7444,583.9397,1052.4655,587.5217,1055.5063C589.6163,1057.2891,592.377,1059.5724,593.64996,1060.5977C594.9231,1061.6243,596.2953,1062.7877,596.7136,1063.1442C597.1164,1063.5454,598.21313,1064.5059,599.1831,1065.2681C604.02747,1069.2303,609.04297,1073.4064,609.7041,1074.0538C610.1233,1074.4097,611.84265,1075.8538,613.53424,1077.2365C615.2261,1078.6184,617.08887,1080.2164,617.7229,1080.8042C618.3126,1081.3733,619.99896,1082.9052,621.4709,1084.2054C622.89825,1085.4893,624.4411,1086.8676,624.86017,1087.2247C625.2624,1087.625,626.94965,1089.1561,628.60785,1090.6271C630.25116,1092.1416,632.34064,1094.0734,633.2611,1094.9679C634.1823,1095.8624,635.38965,1097.0653,636.023,1097.6521C636.61316,1098.2227,637.69366,1099.2273,638.327,1099.8162C638.9885,1100.4637,639.45233,1101.2386,639.3534,1101.503C639.09094,1102.2084,639.2506,1102.3175,636.35767,1099.9845C632.70966,1097.1204,627.9675,1094.0994,623.04315,1091.5635C619.47955,1089.684,617.4979,1088.9453,612.09235,1087.4326C608.45483,1086.4292,604.9869,1085.6387,604.437,1085.635C603.8258,1085.6566,601.06354,1085.531,598.23004,1085.3279C582.6932,1084.3542,578.7047,1084.4229,562.56146,1085.8823C550.7744,1086.9574,546.6052,1087.1099,531.901,1086.9976C529.28253,1087.0253,525.6842,1086.9889,523.8855,1086.9702C515.9743,1086.9329,511.9961,1086.3031,506.00604,1084.0713C501.5135,1082.3977,499.34912,1081.3402,495.7132,1078.9832C487.32306,1073.4999,483.5086,1069.8716,477.93512,1062.0762C471.49664,1053.1064,469.27563,1051.1254,461.31323,1047.4554C455.32697,1044.6742,449.19464,1043.092,441.67896,1042.3984C437.1562,1042.0181,430.02673,1042.1703,428.44342,1042.7843C399.08502,1053.4644,376.55276,1059.4143,350.07376,1063.4424C342.94052,1064.548,323.6478,1066.7883,323.16263,1066.6079C323.03134,1066.5577,320.9739,1066.6957,318.60355,1066.8654C311.90384,1067.4778,300.9019,1067.7943,300.75253,1067.3872C300.67,1067.2052,301.25955,1065.2174,302.1135,1062.9279C303.42557,1059.4037,303.80423,1058.7926,304.50302,1058.8025C304.9924,1058.8336,306.31802,1058.7759,307.4349,1058.7404C308.5673,1058.6611,310.92178,1058.5354,312.64914,1058.4764C323.84927,1058.0347,339.33115,1056.3298,355.42148,1053.7988C360.59634,1052.9675,377.04953,1049.467,383.42728,1047.8309C397.10114,1044.2478,412.3299,1039.5887,413.79572,1038.4808C414.28442,1038.1111,415.3764,1036.6621,416.22614,1035.323C417.03204,1033.9679,418.227,1032.1067,418.84003,1031.1309C420.45782,1028.6742,424.7307,1017.0731,425.11517,1014.1564C425.64508,1010.0403,425.7212,1004.4508,425.2379,1002.1138C424.9984,1000.87146,424.068,997.71497,423.25354,995.0542C420.65515,986.8136,420.0708,983.53674,420.06738,976.8137C420.00946,962.69653,423.0578,952.89795,430.19696,943.9717C430.64612,943.437,432.16064,941.3932,433.625,939.4802C441.09607,929.5233,446.96167,922.12854,449.2614,919.72473C449.66162,919.32275,452.52142,916.2246,455.60016,912.8076C458.67926,909.3904,461.53802,906.2932,461.8949,905.87415C462.29657,905.4701,463.19104,904.54956,463.85596,903.844C465.83087,901.77136,471.60223,894.09155,475.95636,887.7881C478.15045,884.5924,480.47003,881.193,481.18817,880.2074C483.0965,877.50745,487.9906,863.83215,488.6374,859.40796C489.4497,853.59155,489.6855,850.6697,489.62207,846.53284C489.5191,842.23083,489.56726,841.69714,490.36023,841.9923C490.96027,842.26624,491.72437,849.37305,493.27222,868.9098C493.44135,870.8788,493.6427,874.916,493.76495,877.8209C493.9961,883.12317,494.07593,884.25635,494.3551,888.6238C494.42828,889.9053,494.67206,895.714,494.8827,901.6116C495.10986,907.4647,495.3374,913.3179,495.41107,914.599C495.71014,920.52856,495.69922,920.42444,495.5772,925.1942C495.43707,929.2051,494.58337,936.6122,493.5133,942.98425C493.13928,945.2024,492.70453,947.84827,492.56366,948.8993C492.42236,949.94995,491.9063,952.8174,491.4491,955.25586C490.99255,957.69324,490.45996,960.60547,490.34583,961.7169C489.87,965.15027,486.71222,972.9529,484.17938,976.9253C474.29913,992.4042,467.0517,999.3352,448.813,1010.59607C444.51062,1013.25757,440.8183,1015.4933,440.63684,1015.5759C439.61438,1015.8976,433.35773,1020.438,431.92517,1021.8607C428.02728,1025.7249,427.74817,1026.0721,423.50793,1032.0676C422.2249,1033.8962,421.51288,1035.5375,421.90894,1035.6848C422.2611,1035.8163,428.956,1033.1948,436.78937,1029.9421C446.19293,1025.9716,455.8275,1021.38574,469.114,1014.3989C483.56628,1006.84265,504.72168,993.006,519.91876,981.16223C525.05304,977.20654,525.4373,976.8479,534.1747,969.41943L539.9078,964.5327L541.2694,960.8771C543.2392,955.5912,544.07654,951.18787,544.7724,942.3192C544.9055,940.61426,544.166,934.1185,543.5612,931.8367C542.4576,927.66345,540.8666,924.66174,536.52496,918.67993C530.62103,910.563,527.5624,902.7523,526.31415,892.9075C525.16846,884.00305,528.0602,872.74146,538.5148,845.48816C544.8772,828.9479,549.3954,814.1294,550.04694,807.8015C550.99115,799.07434,549.4986,788.1356,546.26935,780.11035C545.5999,778.40625,545.4386,777.4929,545.8399,777.4929C546.39026,777.4966,549.82043,784.04224,552.43506,790.08276C553.0266,791.4562,554.9286,795.77686,556.61993,799.71655C559.4013,806.1195,562.8733,814.43604,566.81165,824.3308C567.5078,826.0945,568.8685,829.3102,569.77527,831.45325C573.99396,841.4026,575.73553,847.76953,578.47974,863.28845C581.28656,879.18115,581.33453,881.2052,578.962,890.80426C576.88934,899.06067,575.6815,902.5729,572.8652,907.84375C569.15576,914.83826,567.1974,917.67004,555.89624,932.11743C551.3039,937.9818,548.36096,945.6128,547.19244,954.80786C546.82983,957.531,547.122,958.0919,548.26935,956.7639C548.7033,956.27344,550.86053,954.11707,553.06134,951.978C563.7175,941.5536,576.74506,926.64465,586.3672,913.8767C587.56775,912.2678,588.9228,910.51587,589.373,909.98096C590.1028,909.09937,596.41034,900.1134,599.0425,896.27905C606.9777,884.5392,617.6218,865.9324,624.68695,851.41113C627.924,844.7416,634.8045,828.6964,635.4703,826.2367C636.4149,822.62524,633.81537,813.5812,629.85626,806.8396C626.9088,801.82886,623.08374,798.4973,616.89453,795.58997C610.32434,792.48975,603.75543,786.8319,599.064,780.1693C596.71375,776.78455,595.5359,773.8888,594.4417,769.0178C593.4142,764.37054,591.1121,745.1036,591.0588,741.0711C591.06714,739.5699,591.0024,737.5894,590.91174,736.7537C590.883,735.8901,590.7969,734.5041,590.7961,733.7004C590.78986,728.331,590.1296,722.96893,588.3535,713.3287C586.9175,705.4705,584.98126,700.4357,581.3327,695.0136C579.19727,691.8609,574.2947,686.1716,573.36926,685.8272C572.5934,685.4881,571.61035,683.8171,572.1493,683.717C572.41895,683.6668,573.64185,684.4229,574.9147,685.4504C576.20435,686.4328,578.63416,688.3909,580.34235,689.7293C582.0509,691.0677,583.7864,692.46783,584.1895,692.868C584.59186,693.26825,586.05176,694.465,587.4405,695.58344C590.0577,697.71344,595.229,702.14716,597.1298,703.909C597.72003,704.4803,598.84424,705.5004,599.56635,706.12054C600.30505,706.6961,601.24225,707.5478,601.661,707.9039C604.90686,710.7685,605.9594,711.7133,606.92444,712.6236C607.5141,713.1943,608.65515,714.1716,609.377,714.79047C610.1154,715.36725,611.0515,716.21796,611.4714,716.5743C611.88983,716.93085,612.9867,717.8924,613.92377,718.7431C619.6507,723.83575,627.4608,733.16595,634.56824,743.43805C638.833,749.4913,639.8453,752.0252,641.35815,759.8128C643.0105,768.30273,643.0102,773.4188,641.4681,782.6748C641.25586,784.051,638.78534,793.91455,637.2463,799.6614C636.83734,801.16455,636.4696,804.03687,636.4126,806.07153C636.25586,810.126,637.6312,817.61084,638.5997,817.9719C638.9076,818.0868,639.18225,817.8889,639.1654,817.5314C639.1647,817.1293,640.55145,812.7311,642.2145,807.7313C649.4252,786.0917,655.1113,762.0766,657.7352,741.83795C657.974,740.1208,658.29333,737.78217,658.4402,736.5816C658.93414,733.50494,659.67194,726.0068,660.0299,720.87213C660.23285,718.44,660.47406,715.37054,660.56476,714.0501C660.7579,711.9151,661.10944,703.5689,661.13745,701.47345C661.1368,701.0717,661.13153,698.6623,661.1862,696.2247C661.3279,685.3427,661.37805,685.6126,659.02814,680.07294C656.3636,673.76154,653.7577,669.5815,650.32825,665.9964C646.66705,662.2247,643.3684,660.44293,637.3082,658.9384C628.4313,656.78424,627.48944,656.48285,623.8697,654.482C617.36053,650.95306,613.27167,647.5247,610.6165,643.47565C607.3711,638.45416,600.7294,622.48566,596.7481,610.0174C595.64624,606.6484,592.84796,599.887,590.5215,594.95807C586.8634,587.2747,585.88086,585.6053,583.2563,582.82C578.8117,578.05524,574.88824,574.98846,569.9648,572.4524C568.6483,571.81104,567.6348,571.031,567.71686,570.8114C567.9136,570.28284,573.6839,572.43304,579.9454,575.4179C582.72534,576.7043,587.4229,578.9063,590.49554,580.35236C600.4913,585.0275,616.51605,592.9045,619.53485,594.63214C622.21643,596.1838,631.6002,603.0402,636.6035,607.1119C644.0207,613.18634,645.3006,614.8669,649.4017,623.9185C652.7689,631.44196,653.93585,637.1949,654.0893,647.28326C654.1229,650.1557,654.2336,652.95526,654.2732,653.5214C654.313,654.08856,654.3944,656.02496,654.39264,657.77924C654.435,659.5511,654.93024,662.394,655.43475,664.1364C656.45386,667.32587,660.006,674.2166,660.55023,673.9682C660.7317,673.8848,660.80615,672.6086,660.6649,671.10187C660.5241,669.59503,660.40375,667.0914,660.2791,665.54047C659.9571,659.0004,657.20135,636.1038,656.3914,632.8931C656.1368,632.0955,656.0141,631.34784,656.04736,631.2596C656.2274,630.77496,654.6183,621.89935,653.0084,614.7785C650.95917,605.3371,646.73627,589.0683,644.7166,583.04816C643.96796,580.61237,642.9556,577.67694,642.6118,576.4456C642.2074,575.24115,640.9511,571.6143,639.7999,568.3757C637.58606,562.3343,637.7573,562.54913,632.99005,558.5153C630.62115,556.5285,625.5255,553.7779,621.38556,552.23553C617.1579,550.6601,616.404,550.5296,609.57086,550.2913C599.78406,549.90533,597.7576,549.55145,590.0332,546.72296C582.7508,544.06036,581.8196,543.46295,574.2887,536.34296C568.876,531.21606,567.6683,530.01465,562.6725,524.4403C549.2673,509.6661,541.5505,502.3762,535.8329,499.14267C532.2584,497.1591,521.80865,493.1655,518.70483,492.61014C515.8649,492.15424,516.43005,491.3116,519.3026,491.67935C521.87787,492.03705,526.07684,492.74863,529.5937,493.40646C530.84814,493.6745,533.8036,494.22293,536.1535,494.6474C538.45856,495.05457,541.63495,495.68613,543.17035,496.00705C544.7058,496.3289,548.1454,497.0596,550.84735,497.61472C570.6059,501.66467,574.85065,502.79562,584.8482,506.52042C597.48914,511.23074,602.6605,513.90936,606.37067,517.54877C606.7734,517.9499,608.37115,519.44794,609.94257,520.88617C614.61115,525.18304,618.2416,530.24786,621.59674,537.26544C623.2873,540.8051,625.3253,545.0257,626.13306,546.6308C627.9223,550.3067,634.80414,557.6871,635.2634,556.4538C635.5423,555.70416,621.86884,526.0313,617.9427,518.8001C615.9709,515.2065,614.15356,511.8712,613.93256,511.38846C613.71124,510.9039,611.82874,507.74475,609.79144,504.32803C607.7539,500.90994,606.0262,498.00858,605.9599,497.7832C605.5226,496.6668,594.2258,479.8688,590.6177,475.01263C585.76227,468.38797,585.15594,467.861,579.659,464.7099C574.6848,461.90378,570.63226,460.39505,565.432,459.41025C561.0129,458.61676,557.932,458.6718,552.69116,459.67847C546.1044,460.93625,541.40045,461.03934,533.9992,460.03772C530.31226,459.56815,521.6798,456.3504,518.5834,454.29437C513.5819,451.0263,503.3125,443.9892,502.18286,443.11694C494.80432,437.2079,492.54565,435.46368,490.30835,433.92743C488.87042,432.94034,487.0688,431.71704,486.31396,431.1853C485.55902,430.6537,483.24615,429.19016,481.21893,428.0322C479.16437,426.81595,476.63025,425.2697,475.58374,424.5793C472.22363,422.42465,459.65186,419.5458,453.51257,419.46558C452.15875,419.46265,451.0207,419.2892,450.97003,419.0192C450.88135,418.5846,452.71802,418.36688,455.97516,418.3766C456.92688,418.3803,458.38458,418.37183,459.248,418.3421C460.06818,418.29703,463.02698,418.29605,465.79425,418.27353C468.54535,418.29572,471.26898,418.25595,471.83563,418.2163C472.386,418.22046,474.18457,418.23923,475.81842,418.29517C477.453,418.3528,482.7284,418.46237,487.4983,418.5852C500.25,418.82236,505.6253,419.0695,509.9663,419.5333C514.4997,420.01862,517.98865,420.61682,530.2678,422.93298C534.6261,423.75507,540.43994,425.92114,543.7013,427.93903C554.2279,434.41876,557.1222,437.1529,565.0899,448.3479C570.2533,455.48782,570.4516,455.76236,574.08325,458.26974C577.857,460.9295,580.10425,462.1684,580.28467,461.68375C580.43274,461.28723,577.4819,457.62997,569.1216,447.89282C566.26465,444.5211,553.716,431.21918,553.31903,431.07114C553.1431,431.00543,552.421,430.3856,551.6879,429.66046C549.8022,427.85342,549.196,427.32788,545.9769,424.5232C543.2321,422.1968,542.85223,422.0049,536.0035,419.65417C520.3084,414.25775,517.1081,412.61398,510.08154,406.43378C506.27338,403.0592,505.71655,402.39978,503.36353,398.21304C498.94635,390.54785,493.29468,376.90588,490.81097,367.95517C489.4638,363.089,487.6405,356.54074,486.75305,353.40158C484.24225,344.39032,480.68207,328.76883,481.10565,328.57556C481.28668,328.49225,481.6405,329.02585,481.91125,329.7783C484.81946,338.93707,488.99786,345.76077,494.5423,350.53546C498.8296,354.23975,503.79504,358.14624,506.4558,359.8893C510.5713,362.57657,511.86566,363.4094,513.2646,364.2325C514.0352,364.71997,515.1261,365.42728,515.66095,365.87753C516.2124,366.28378,517.6888,367.43536,518.99445,368.37427C523.81,371.8734,529.9717,376.8767,532.0829,379.01917C536.1948,383.05856,539.92224,392.17157,542.04767,403.29672C543.7221,411.99603,549.05975,420.55545,560.4747,432.73413C574.1975,447.32568,580.2038,454.22882,588.9468,465.3612C592.67505,470.16177,600.8686,481.28992,603.6113,485.37186C604.71497,486.98758,604.6354,485.4521,603.3459,481.91263C601.901,477.71228,601.4757,477.10208,595.80756,470.77756C587.6452,461.71667,585.2721,457.7222,582.78906,449.1737C580.8214,442.47125,580.7348,440.2824,582.00934,429.7228C583.4965,417.38525,583.9478,415.0955,587.44977,403.40863C594.56165,379.87643,598.8866,366.78928,599.41425,366.9865C599.6345,367.06888,599.8938,367.31613,599.96014,367.542 Z"/>
</g>
<g>
<g style="fill:rgb(16,0,0); fill-opacity:1.0; stroke-linejoin: miter">
<path d="M509.69128,1002.3557L505.84314,1002.62244Q494.03442,1002.21765,485.63074,993.0239Q477.22235,983.75854,476.46313,969.63025Q476.31616,956.0613,483.96588,946.7816Q486.4419,943.8047,489.56287,941.6531L492.81738,939.7512Q496.21893,938.0774,500.09924,937.49084Q512.0644,936.0769,521.32886,944.0585Q530.59314,952.0398,532.9319,965.777Q534.6692,979.603,528.1117,989.9247Q521.55383,1000.24634,509.69128,1002.3557"/>
</g>
<g style="fill:rgb(255,255,255); fill-opacity:1.0; stroke-linejoin: miter">
<path d="M502.8424,944.9984L502.38123,945.04114Q501.7552,945.0532,501.21844,944.91394L500.95587,944.83484Q500.69855,944.7462,500.46362,944.6199Q500.229,944.49365,500.01636,944.3296Q499.80396,944.1642,499.6377,943.9761Q499.263,943.48706,499.2436,943.3623Q499.0506,942.9193,499.0428,942.38696Q499.0664,941.874,499.26953,941.42566Q499.37097,941.2012,499.51746,940.9928Q499.92316,940.4863,500.05798,940.40393Q501.10083,939.56824,502.34833,939.4994Q502.9685,939.4584,503.51526,939.57825Q503.78888,939.63794,504.044,939.73804Q504.1861,939.76465,504.7619,940.1249Q505.62433,940.7377,505.80914,941.76575Q505.8695,942.2844,505.73755,942.7528Q505.53082,943.3273,505.43176,943.4271Q505.29382,943.6422,505.10773,943.8451Q504.73572,944.2506,504.24683,944.5232Q504.00238,944.6598,503.72888,944.76306Q503.0193,944.9923,502.8424,944.9984"/>
</g>
</g>
<g>
<g style="fill:rgb(16,0,0); fill-opacity:1.0; stroke-linejoin: miter">
<path d="M579.7377,940.17163L575.8895,940.43835Q564.0809,940.0338,555.67725,930.83997Q547.26886,921.5747,546.50964,907.44617Q546.3627,893.8773,554.0123,884.5978Q556.48834,881.6206,559.60925,879.4691L562.8638,877.56726Q566.2654,875.89355,570.1456,875.30676Q582.1109,873.8928,591.3753,881.8744Q600.6395,889.85565,602.97815,903.5929Q604.7156,917.41907,598.1581,927.7405Q591.60034,938.06213,579.7377,940.17163"/>
</g>
<g style="fill:rgb(255,255,255); fill-opacity:1.0; stroke-linejoin: miter">
<path d="M572.88885,882.81433L572.42755,882.8572Q571.8015,882.86914,571.26483,882.72986L571.00226,882.65076Q570.74493,882.56213,570.51,882.4359Q570.27527,882.3096,570.06274,882.1456Q569.85034,881.9801,569.68414,881.79224Q569.30945,881.3032,569.29004,881.17847Q569.09705,880.7355,569.08923,880.2029Q569.1128,879.69006,569.316,879.2417Q569.4174,879.01733,569.5639,878.80896Q569.96954,878.30225,570.1044,878.22Q571.1472,877.38416,572.3947,877.3153Q573.01495,877.2743,573.5617,877.39404Q573.8353,877.454,574.0904,877.55396Q574.2324,877.58057,574.8082,877.9409Q575.67065,878.55347,575.8555,879.58167Q575.9159,880.10046,575.78394,880.56885Q575.57715,881.14307,575.47815,881.24304Q575.3403,881.45825,575.1542,881.661Q574.7821,882.0665,574.2933,882.33923Q574.0488,882.4757,573.7752,882.5791Q573.0657,882.8082,572.88885,882.81433"/>
</g>
</g>
<g>
<g style="fill:rgb(16,0,0); fill-opacity:1.0; stroke-linejoin: miter">
<path d="M625.8509,857.3838L622.00275,857.6504Q610.1941,857.2457,601.79034,848.052Q593.382,838.78674,592.6228,824.6583Q592.47577,811.08936,600.12555,801.8098Q602.60156,798.83276,605.72253,796.6813L608.9771,794.7794Q612.37866,793.1057,616.25885,792.5188Q628.22406,791.105,637.4885,799.08655Q646.75287,807.0679,649.0915,820.80505Q650.82886,834.631,644.27124,844.9525Q637.7134,855.2742,625.8509,857.3838"/>
</g>
<g style="fill:rgb(255,255,255); fill-opacity:1.0; stroke-linejoin: miter">
<path d="M619.002,800.0265L618.5407,800.0692Q617.9147,800.0812,617.37805,799.9419L617.1154,799.8628Q616.85815,799.7744,616.6233,799.64795Q616.3885,799.5217,616.17596,799.35754Q615.9635,799.192,615.79736,799.00415Q615.42267,798.5154,615.40326,798.3906Q615.21027,797.9475,615.20245,797.41504Q615.2261,796.90234,615.4292,796.45386Q615.5306,796.2294,615.6772,796.0211Q616.08276,795.5144,616.2176,795.432Q617.26044,794.5963,618.50793,794.52747Q619.1282,794.4863,619.67487,794.6063Q619.9485,794.666,620.2036,794.7661Q620.34564,794.7927,620.92145,795.15283Q621.7839,795.7656,621.9686,796.7938Q622.02905,797.3125,621.89703,797.7809Q621.6903,798.3552,621.5913,798.4552Q621.4534,798.67053,621.26733,798.87317Q620.8953,799.27844,620.4064,799.5513Q620.16205,799.68787,619.8884,799.79114Q619.17883,800.0204,619.002,800.0265"/>
</g>
</g>
<g>
<g style="fill:rgb(16,0,0); fill-opacity:1.0; stroke-linejoin: miter">
<path d="M657.2091,761.7164L653.3609,761.9831Q641.55237,761.57855,633.14874,752.3848Q624.74036,743.11945,623.98114,728.9909Q623.83417,715.42194,631.4839,706.1425Q633.95996,703.16534,637.0808,701.01385L640.3353,699.112Q643.7368,697.4383,647.6171,696.8515Q659.5823,695.43744,668.84674,703.4191Q678.11115,711.4006,680.4497,725.13776Q682.1871,738.9637,675.62964,749.28534Q669.0717,759.6069,657.2091,761.7164"/>
</g>
<g style="fill:rgb(255,255,255); fill-opacity:1.0; stroke-linejoin: miter">
<path d="M650.3604,704.3591L649.8991,704.4018Q649.2731,704.4139,648.7364,704.2746L648.47375,704.1955Q648.21643,704.107,647.98157,703.98065Q647.7469,703.8543,647.5343,703.69037Q647.3219,703.52484,647.1557,703.33685Q646.781,702.84796,646.76154,702.7231Q646.5686,702.2802,646.5607,701.7476Q646.5842,701.2349,646.78735,700.78644Q646.8888,700.56195,647.03534,700.3536Q647.441,699.847,647.5758,699.7646Q648.61865,698.9289,649.8662,698.8599Q650.4863,698.81903,651.03314,698.9389Q651.30676,698.9986,651.5619,699.0987Q651.7039,699.1252,652.2798,699.48553Q653.1422,700.0982,653.32684,701.1263Q653.38727,701.6451,653.2554,702.11346Q653.0486,702.6879,652.94965,702.7878Q652.8117,703.003,652.6256,703.2056Q652.25366,703.61127,651.7648,703.8841Q651.5203,704.02057,651.24677,704.1237Q650.5372,704.35297,650.3604,704.3591"/>
</g>
</g>
<g>
<g style="fill:rgb(16,0,0); fill-opacity:1.0; stroke-linejoin: miter">
<path d="M661.9327,662.57306L658.0846,662.83966Q646.27594,662.435,637.8723,653.2413Q629.46387,643.976,628.7047,629.8476Q628.5578,616.2786,636.2074,606.99896Q638.6834,604.02203,641.8044,601.8703L645.0589,599.9683Q648.46045,598.29474,652.34076,597.70807Q664.30585,596.294,673.5704,604.2756Q682.83466,612.257,685.1733,625.9942Q686.9107,639.8204,680.35315,650.14166Q673.79535,660.46344,661.9327,662.57306"/>
</g>
<g style="fill:rgb(255,255,255); fill-opacity:1.0; stroke-linejoin: miter">
<path d="M655.08386,605.21564L654.6226,605.2585Q653.9966,605.2702,653.45984,605.13116L653.1974,605.05206Q652.94006,604.96356,652.7051,604.8371Q652.47046,604.7109,652.2578,604.5467Q652.0455,604.3813,651.87915,604.1934Q651.50446,603.7043,651.48505,603.57965Q651.2922,603.13666,651.28436,602.6043Q651.30786,602.0915,651.51105,601.6429Q651.6125,601.4185,651.75903,601.21014Q652.1646,600.70355,652.2995,600.62115Q653.3423,599.78546,654.5897,599.7165Q655.20996,599.6756,655.7568,599.79535Q656.03033,599.85516,656.28546,599.95526Q656.4275,599.9819,657.00336,600.3421Q657.8657,600.9548,658.05054,601.983Q658.11096,602.50165,657.97906,602.97003Q657.7723,603.5445,657.6732,603.64435Q657.5352,603.8597,657.3492,604.0623Q656.97723,604.4677,656.4882,604.74054Q656.24384,604.877,655.9703,604.98016Q655.2607,605.20953,655.08386,605.21564"/>
</g>
</g>
<g>
<g style="fill:rgb(16,0,0); fill-opacity:1.0; stroke-linejoin: miter">
<path d="M632.56934,561.1536L628.7212,561.4201Q616.9126,561.01544,608.509,551.82184Q600.1005,542.55646,599.3414,528.42804Q599.19434,514.8592,606.84406,505.5796Q609.32,502.60257,612.44104,500.45096L615.6955,498.54907Q619.0969,496.87534,622.97736,496.28854Q634.9425,494.8746,644.2069,502.85626Q653.47125,510.8376,655.8099,524.5749Q657.54724,538.40094,650.9898,548.7225Q644.4319,559.0441,632.56934,561.1536"/>
</g>
<g style="fill:rgb(255,255,255); fill-opacity:1.0; stroke-linejoin: miter">
<path d="M625.7205,503.7962L625.2593,503.839Q624.63324,503.85083,624.0964,503.71176L623.83386,503.6326Q623.5766,503.5441,623.3416,503.41772Q623.10706,503.29147,622.89435,503.12732Q622.68195,502.96188,622.5158,502.77402Q622.14105,502.28494,622.12164,502.16025Q621.9287,501.71722,621.92084,501.18475Q621.9444,500.67203,622.1475,500.22345Q622.249,499.9991,622.3955,499.79074Q622.8012,499.28406,622.936,499.2017Q623.9788,498.366,625.22644,498.29706Q625.84656,498.2561,626.3933,498.3759Q626.667,498.4358,626.92206,498.53583Q627.06415,498.5624,627.6399,498.92264Q628.5023,499.5353,628.6871,500.56348Q628.74756,501.08224,628.61566,501.55063Q628.4088,502.125,628.3098,502.22485Q628.1719,502.4402,627.9857,502.64282Q627.61383,503.0483,627.1249,503.32104Q626.88043,503.45755,626.6069,503.56082Q625.8973,503.79007,625.7205,503.7962"/>
</g>
</g>
<g>
<g style="fill:rgb(16,0,0); fill-opacity:1.0; stroke-linejoin: miter">
<path d="M609.91846,865.32227L610.4588,869.1415Q613.3132,880.6073,624.0552,886.9127Q634.8679,893.20795,648.8447,891.0087Q662.147,888.3276,669.6306,878.9138Q672.027,875.8721,673.4816,872.3716L674.66425,868.79236Q675.59314,865.1168,675.35913,861.19934Q674.251,849.20215,664.5154,841.8025Q654.78015,834.4027,640.857,834.97546Q626.9721,836.15466,618.2421,844.7173Q609.5119,853.2805,609.91846,865.32227"/>
</g>
<g style="fill:rgb(255,255,255); fill-opacity:1.0; stroke-linejoin: miter">
<path d="M667.4449,860.0792L667.49915,860.5393Q667.61774,861.15405,667.86554,861.65027L667.99774,861.8904Q668.1379,862.12366,668.3103,862.32715Q668.4827,862.5305,668.6874,862.70435Q668.89355,862.87756,669.11194,863.0011Q669.6683,863.26575,669.79425,863.2588Q670.2677,863.3552,670.79016,863.2521Q671.28674,863.1222,671.6832,862.8301Q671.8816,862.6843,672.05475,862.49756Q672.46594,861.99536,672.51843,861.8463Q673.11865,860.65234,672.92645,859.41797Q672.83734,858.8026,672.60626,858.29285Q672.4908,858.0377,672.3399,857.80896Q672.2843,857.67566,671.8119,857.1875Q671.0332,856.47156,669.989,856.5049Q669.4692,856.55383,669.0385,856.78015Q668.5198,857.1019,668.44275,857.2197Q668.2608,857.39954,668.10144,857.62366Q667.78217,858.0719,667.61725,858.60693Q667.53467,858.8744,667.4906,859.1633Q667.41406,859.90515,667.4449,860.0792"/>
</g>
</g>
<g>
<g style="fill:rgb(16,0,0); fill-opacity:1.0; stroke-linejoin: miter">
<path d="M573.9651,933.504L574.5057,937.3231Q577.3599,948.78894,588.1017,955.09424Q598.9146,961.3894,612.89154,959.19055Q626.1938,956.5093,633.67725,947.0952Q636.0736,944.0536,637.5282,940.553L638.7109,936.9739Q639.6398,933.29846,639.40576,929.3811Q638.2976,917.38354,628.5621,909.9839Q618.8268,902.5842,604.9036,903.157Q591.01874,904.3363,582.2887,912.89905Q573.5586,921.46204,573.9651,933.504"/>
</g>
<g style="fill:rgb(255,255,255); fill-opacity:1.0; stroke-linejoin: miter">
<path d="M631.4915,928.261L631.5457,928.72107Q631.66455,929.3357,631.9123,929.8319L632.0444,930.07214Q632.1843,930.3052,632.3569,930.5088Q632.52936,930.71204,632.7341,930.88586Q632.9402,931.0592,633.1585,931.1825Q633.7148,931.4475,633.8409,931.4403Q634.31433,931.53674,634.83685,931.4337Q635.3334,931.3037,635.7298,931.01184Q635.9282,930.86584,636.10144,930.6792Q636.5126,930.177,636.56494,930.02783Q637.1653,928.83386,636.973,927.59937Q636.884,926.98413,636.65295,926.4741Q636.53735,926.2191,636.3865,925.9905Q636.3308,925.85706,635.85864,925.3689Q635.07983,924.65295,634.0357,924.6863Q633.51575,924.7352,633.0851,924.9618Q632.56635,925.2837,632.4893,925.40125Q632.3075,925.58093,632.148,925.80505Q631.82886,926.2534,631.6639,926.78845Q631.58124,927.056,631.5372,927.345Q631.4607,928.0867,631.4915,928.261"/>
</g>
</g>
<g>
<g style="fill:rgb(16,0,0); fill-opacity:1.0; stroke-linejoin: miter">
<path d="M645.71246,766.513L646.2529,770.3323Q649.10724,781.7981,659.84906,788.1033Q670.662,794.39856,684.63904,792.19946Q697.9411,789.5182,705.4247,780.1044Q707.821,777.06274,709.2756,773.56213L710.4582,769.9829Q711.3871,766.3077,711.1532,762.3901Q710.04504,750.3929,700.3094,742.9931Q690.5741,735.5937,676.651,736.1662Q662.7662,737.34564,654.0361,745.90814Q645.306,754.4714,645.71246,766.513"/>
</g>
<g style="fill:rgb(255,255,255); fill-opacity:1.0; stroke-linejoin: miter">
<path d="M703.2389,761.2702L703.29315,761.7303Q703.41187,762.34503,703.65967,762.84125L703.79175,763.0815Q703.93195,763.31464,704.1044,763.5181Q704.2768,763.7214,704.48145,763.8952Q704.6876,764.0683,704.906,764.19183Q705.46234,764.4566,705.58826,764.44965Q706.0618,764.5461,706.58435,764.4428Q707.0808,764.31305,707.4773,764.02094Q707.6756,763.8752,707.84894,763.6884Q708.26,763.1861,708.31244,763.0372Q708.9127,761.8431,708.7206,760.6087Q708.6314,759.99335,708.4003,759.4836Q708.28485,759.22845,708.134,758.9997Q708.07837,758.8663,707.6061,758.3781Q706.8273,757.6623,705.78314,757.6956Q705.26324,757.74457,704.8326,757.9711Q704.3138,758.2929,704.2368,758.4106Q704.0549,758.59015,703.89545,758.8145Q703.5763,759.26263,703.41125,759.7978Q703.3286,760.0651,703.2846,760.3542Q703.2081,761.096,703.2389,761.2702"/>
</g>
</g>
<g>
<g style="fill:rgb(16,0,0); fill-opacity:1.0; stroke-linejoin: miter">
<path d="M661.69714,664.9194L662.2375,668.7386Q665.0919,680.2043,675.834,686.5096Q686.6469,692.8049,700.6237,690.6059Q713.92615,687.92474,721.4095,678.51056Q723.80585,675.46893,725.2605,671.96844L726.44305,668.38934Q727.3717,664.7138,727.13794,660.7963Q726.0297,648.799,716.2941,641.3995Q706.55896,633.99994,692.63556,634.5726Q678.7508,635.7518,670.0208,644.3145Q661.29065,652.8776,661.69714,664.9194"/>
</g>
<g style="fill:rgb(255,255,255); fill-opacity:1.0; stroke-linejoin: miter">
<path d="M719.22375,659.6766L719.27795,660.13654Q719.39667,660.7514,719.6446,661.2474L719.7767,661.4875Q719.9166,661.7209,720.08923,661.9244Q720.26154,662.1276,720.46625,662.30133Q720.67236,662.4747,720.8908,662.5981Q721.44714,662.86285,721.5731,662.8558Q722.0466,662.95233,722.56903,662.84906Q723.0657,662.7194,723.46216,662.4273Q723.6604,662.2813,723.8336,662.09454Q724.2448,661.59247,724.29724,661.4434Q724.8975,660.2493,724.7052,659.01483Q724.616,658.3997,724.3851,657.88983Q724.2696,657.6347,724.1187,657.40607Q724.063,657.27264,723.5909,656.7845Q722.81213,656.0684,721.76794,656.10175Q721.24805,656.1506,720.8174,656.3774Q720.29865,656.69904,720.2216,656.8167Q720.0396,656.9965,719.8802,657.22076Q719.56104,657.669,719.3961,658.20404Q719.3135,658.4714,719.2695,658.76044Q719.19293,659.50226,719.22375,659.6766"/>
</g>
</g>
<g>
<g style="fill:rgb(16,0,0); fill-opacity:1.0; stroke-linejoin: miter">
<path d="M643.7009,554.26105L644.2413,558.0804Q647.09564,569.54596,657.8377,575.8514Q668.65063,582.14655,682.62756,579.9476Q695.92975,577.2663,703.41327,567.85223Q705.8096,564.8107,707.26434,561.31036L708.4469,557.73114Q709.37573,554.0556,709.1417,550.1381Q708.03357,538.1409,698.2978,530.74115Q688.5627,523.3416,674.6394,523.91437Q660.7546,525.09357,652.02454,533.6563Q643.2944,542.2193,643.7009,554.26105"/>
</g>
<g style="fill:rgb(255,255,255); fill-opacity:1.0; stroke-linejoin: miter">
<path d="M701.2275,549.0184L701.2817,549.47833Q701.4003,550.0932,701.64825,550.5892L701.7803,550.8294Q701.9204,551.06256,702.09296,551.2662Q702.26526,551.4694,702.4701,551.64325Q702.67615,551.81647,702.8946,551.94Q703.4509,552.2045,703.57684,552.1976Q704.05035,552.2941,704.5728,552.19086Q705.06946,552.0611,705.4658,551.7691Q705.6642,551.623,705.8374,551.43634Q706.2486,550.93414,706.301,550.7851Q706.9013,549.59125,706.7091,548.3566Q706.61993,547.7415,706.389,547.23175Q706.27344,546.9766,706.1225,546.74786Q706.06683,546.61444,705.59467,546.12616Q704.8159,545.41034,703.7716,545.44354Q703.25183,545.4925,702.8211,545.71906Q702.3023,546.04083,702.22534,546.1586Q702.0434,546.3383,701.884,546.5623Q701.56476,547.0108,701.39984,547.5456Q701.31714,547.8132,701.2732,548.10223Q701.1966,548.84393,701.2275,549.0184"/>
</g>
</g>
<g>
<g style="fill:rgb(16,0,0); fill-opacity:1.0; stroke-linejoin: miter">
<path d="M501.3122,1005.07385L501.8526,1008.8933Q504.70697,1020.35876,515.4491,1026.6641Q526.2619,1032.9595,540.2389,1030.7603Q553.54126,1028.0791,561.0247,1018.66504Q563.42114,1015.6234,564.8758,1012.12305L566.0584,1008.54395Q566.9871,1004.8683,566.75323,1000.9508Q565.645,988.9535,555.9093,981.55396Q546.174,974.1544,532.2507,974.7269Q518.3657,975.9061,509.63574,984.469Q500.90564,993.0321,501.3122,1005.07385"/>
</g>
<g style="fill:rgb(255,255,255); fill-opacity:1.0; stroke-linejoin: miter">
<path d="M558.839,999.83093L558.8931,1000.291Q559.0118,1000.9059,559.25964,1001.40173L559.3917,1001.64197Q559.53186,1001.87537,559.70435,1002.07886Q559.8768,1002.282,560.0815,1002.4558Q560.2876,1002.62915,560.5059,1002.7527Q561.0623,1003.0172,561.1883,1003.01013Q561.6618,1003.1068,562.18427,1003.00366Q562.6809,1002.8739,563.0774,1002.5818Q563.2757,1002.4358,563.44885,1002.2489Q563.86005,1001.7467,563.9125,1001.5978Q564.51263,1000.4037,564.3204,999.1692Q564.23126,998.5542,564.0003,998.0443Q563.8848,997.7892,563.73395,997.56055Q563.6783,997.4271,563.2061,996.93896Q562.4272,996.2229,561.38306,996.2562Q560.8632,996.3052,560.4325,996.53174Q559.91376,996.8535,559.83685,996.9712Q559.6548,997.151,559.4954,997.3751Q559.1762,997.82336,559.0112,998.3585Q558.92865,998.62585,558.8847,998.91504Q558.8081,999.6566,558.839,999.83093"/>
</g>
</g>
<g style="fill:rgb(91,114,64); fill-opacity:1.0; stroke-linejoin: miter">
<path d="M169.35353,367.92587C169.2271,368.123,169.53989,369.36038,170.01779,370.63812C170.80934,372.75076,171.31981,375.7203,171.57661,380.29272C171.88948,385.1458,171.382,388.7483,169.49849,394.97534C168.50653,398.35785,167.57574,401.3672,167.41083,401.7306C167.26227,402.13824,165.3235,406.47772,163.15504,411.4044C159.13603,420.64157,155.14384,431.42242,153.92615,436.3446C152.11899,443.84808,153.60738,451.975,158.77916,462.4343C163.07243,471.21487,163.82588,474.6982,162.99768,482.5366C162.40689,488.32977,160.85405,493.0276,158.31656,497.23996C154.40242,503.67535,148.99751,512.82806,147.39568,515.78754C137.97159,532.96967,130.9687,548.0411,124.65911,564.55927C121.211586,573.581,120.82067,574.6816,118.77701,581.017C116.60206,587.8057,116.101204,587.94183,115.38807,581.8863C114.7523,576.7034,115.01141,574.8498,117.23631,567.79205C118.355194,564.21136,119.62674,559.97003,120.046005,558.4074C120.871956,555.3868,121.67126,548.8139,121.50665,546.366C121.1072,540.34064,119.88407,533.3212,118.87162,531.2913C116.11112,525.7996,114.47871,522.6475,112.67008,519.5605C107.6336,510.80634,106.07791,508.52814,101.38207,502.9583C99.545296,500.7356,97.05441,497.70358,95.85558,496.2449C94.64049,494.74246,91.560974,491.07837,89.00957,488.0179C86.45862,484.95828,84.016495,482.05893,83.60963,481.50827C82.923035,480.61078,80.81643,478.33844,77.98489,475.33368C77.395966,474.7007,76.357124,473.5345,75.68578,472.68192C75.01472,471.82947,74.21246,471.0255,73.95345,470.8719C73.056496,470.35297,73.16188,471.16824,74.22248,472.52747C74.79979,473.26514,75.89394,474.71118,76.70714,475.8124C77.50469,476.8687,79.35235,480.59335,80.8034,484.0663C83.35961,490.08447,83.49717,490.58554,83.99045,495.92328C84.955055,505.59973,85.009575,506.28152,84.85843,513.51605C84.60206,525.1573,85.29035,538.24994,86.53691,544.2576C87.17382,547.4322,90.73095,553.98016,93.92561,557.9534C95.217766,559.52655,98.25296,562.4057,100.62927,564.3254C106.91568,569.4495,108.13137,570.9511,110.57169,576.66254C113.957596,584.6298,115.04392,592.75604,113.435905,598.3776C111.09397,606.73346,105.39759,632.25714,105.711006,633.09344C105.74358,633.18146,105.48426,634.6338,105.142784,636.2671C104.80126,637.901,104.542816,639.3535,104.57539,639.44165C104.62476,639.5731,104.27182,642.1145,103.80289,645.15173C103.00821,650.66846,101.63495,663.4812,101.351944,668.3556C101.22556,669.75793,101.081276,672.3218,100.9659,674.0211C100.75551,677.2118,100.30487,690.0796,100.38083,691.7578C100.39738,692.60474,100.28142,692.69775,99.53913,692.32434C98.147575,691.6913,92.9394,686.7658,91.09725,684.39435C89.53623,682.3693,88.94744,680.9327,85.08966,669.8295C80.96305,657.87396,80.13831,656.0739,76.81196,650.94574C75.107666,648.27264,69.66252,642.17975,67.8092,640.71625C65.807915,639.25714,60.192436,636.59357,54.59811,634.52264C52.485672,633.7082,50.104095,632.84283,49.274406,632.5013C46.842648,631.5042,40.801857,630.2541,35.273865,629.5644C32.435,629.2231,28.204702,628.64984,25.82787,628.33466C20.910769,627.66766,9.95285,626.5528,7.328404,626.38055C6.360959,626.3422,3.9452293,626.19196,1.9758807,626.0269C-2.4361942,625.7718,-3.898788,626.4206,-0.20324615,627.04425C3.5985737,627.67804,8.317932,629.4246,11.667276,631.5318C15.121129,633.65155,15.704704,634.1359,18.8272,637.78314C20.1643,639.34064,21.577023,640.96967,21.978868,641.3713C24.673151,644.2773,28.28633,649.4992,33.95473,658.46674C34.493206,659.36945,35.71955,661.1696,36.65964,662.4736C37.599854,663.7778,38.743664,665.3571,39.200306,666.0396C40.140625,667.34406,43.484238,671.71295,46.370754,675.3996C50.8466,681.05145,54.669205,683.48505,61.687927,685.0711C65.752396,686.00775,69.977776,686.03156,73.872604,685.17474C79.936386,683.80597,84.59018,684.9747,90.23691,689.33356C94.88969,692.91156,100.658485,700.1365,100.398964,701.98987C100.32728,702.46814,100.36477,705.1146,100.52392,707.81555C100.68157,710.5166,100.82963,713.72375,100.89032,714.9575C100.93281,716.9479,101.17413,719.8699,101.819725,728.15955C101.9626,729.6124,102.15447,731.59863,102.29123,732.5C102.38506,733.41907,102.7634,736.4398,103.10284,739.2235C105.237686,757.6476,108.642204,774.2416,115.12531,797.7117C116.086716,801.21655,119.4658,811.0425,122.64883,819.5386C126.72641,830.5581,128.24344,835.0094,127.84217,835.00903C126.6376,835.0083,120.6101,828.4319,118.2024,824.4164C115.69947,820.2837,111.6751,813.9612,110.73569,812.6571C103.966446,803.2971,100.688866,799.90686,92.34545,793.848C86.92362,789.9558,84.61318,789.0154,73.85823,786.5686C62.71381,784.0177,56.5538,783.5145,43.796574,784.0287C43.114666,784.08374,39.962032,784.11,36.809734,784.136C30.207523,784.1997,27.786913,784.303,25.383331,784.4508C16.602741,785.13025,11.519433,785.62866,11.453494,785.85474C11.260273,786.2777,12.261226,786.80676,12.790281,786.60876C13.098029,786.4934,14.973816,786.5438,16.959,786.7533C23.86966,787.3773,30.910358,790.3612,37.718822,795.5409C40.320076,797.5266,42.465218,799.2333,42.497738,799.3214C42.531345,799.4087,43.988934,800.6205,45.72102,802.0292C47.497017,803.42114,49.818325,805.46423,50.884666,806.5702C51.97943,807.6157,54.157574,809.81067,55.80686,811.4015C63.742138,819.3207,75.25791,829.1603,81.13107,833.1835C87.6596,837.61414,98.23842,838.9214,105.545105,836.1841C111.97157,833.77747,116.64119,833.7848,122.40098,836.29395C128.56705,838.95374,130.65659,840.379,131.46483,842.5366C132.58614,845.5298,140.84276,862.21155,146.08704,872.1926C148.45181,876.62805,153.19568,884.7385,156.5613,890.1033C157.72665,891.8761,159.05739,894.088,159.64062,894.9735C160.97096,897.1846,164.08826,901.89014,165.51239,903.8154C166.09558,904.7013,167.05214,906.05005,167.54187,906.81946C168.94351,908.9542,172.21518,913.4009,176.94894,919.6085C178.85767,922.156,189.98148,935.90857,190.92764,936.9592C191.49956,937.5469,192.27435,938.4109,192.63179,938.8291C196.15605,942.87915,202.7879,950.1327,204.39442,951.74C205.46078,952.8457,206.9295,954.353,207.59537,955.0574C208.30411,955.7456,210.08061,957.53955,211.57674,958.9873C213.07133,960.43335,214.28145,961.78784,214.18242,961.92566C214.10083,962.1067,212.25154,961.5941,210.06831,960.8557C207.91235,960.05896,205.77216,959.3042,205.36497,959.1555C202.66972,958.2577,194.40405,952.27075,186.80293,945.781C181.56816,941.318,172.75195,935.7373,166.3103,932.8783C160.35364,930.24097,148.81905,926.7832,144.6874,926.4746C140.34755,926.1428,132.34883,926.6284,122.01171,927.84155C119.91053,928.1271,117.34624,928.38464,116.38467,928.4944C115.36027,928.5764,113.73233,928.7843,112.7527,928.8508C108.79761,929.27795,103.42166,930.74,83.47724,936.8562C79.15292,938.17456,73.3542,939.8451,70.58668,940.63184C64.40286,942.3457,43.066154,950.2373,43.247665,950.7208C43.313503,950.89746,45.22271,950.6339,47.52206,950.0735C54.57008,948.3884,58.096397,948.02026,64.91786,948.27625C70.87536,948.50415,74.03332,949.0272,78.56576,950.5409C79.016685,950.67346,82.89921,951.9291,87.112854,953.2621C91.344666,954.6388,100.24908,958.17957,106.87171,961.11975C123.58111,968.6122,140.75848,975.0769,148.05946,976.6089C154.1598,977.88745,158.14243,977.7997,166.57628,976.19666C172.38077,975.0764,178.06358,972.69617,184.83162,968.6554C189.98125,965.52124,190.02594,965.50476,194.3115,964.75146C198.85036,964.00476,202.98158,963.9133,207.50864,964.4762C211.19981,964.9497,218.71452,966.65247,219.92976,967.35205C220.49037,967.6433,223.19109,969.89404,225.91306,972.338C228.6355,974.78174,232.5061,978.1498,234.54741,979.8441C236.57166,981.4966,238.26007,982.92163,238.29297,983.01013C238.49075,983.53735,258.54758,998.3602,263.64145,1001.772C264.389,1002.29443,265.593,1003.09875,266.3411,1003.6212C267.09,1004.1439,270.92862,1006.6217,274.88846,1009.15234C288.6555,1017.8989,304.07236,1026.2277,320.1221,1033.5669C324.72037,1035.6583,328.41586,1037.4865,328.36124,1037.6075C327.92105,1038.5757,317.23715,1039.2651,311.60928,1038.713C306.96664,1038.2441,304.69504,1037.5394,291.6041,1032.6055C282.7371,1029.3018,268.86447,1024.9622,268.0283,1025.2748C267.89584,1025.3251,266.2681,1025.1317,264.3978,1024.828C259.59543,1024.0673,250.1451,1023.89307,243.78473,1024.4681C235.263,1025.302,230.3061,1026.8081,221.7555,1031.3162C219.1143,1032.7072,216.0941,1034.2911,215.04335,1034.8348C209.96432,1037.4902,203.72551,1040.9316,201.71742,1042.136C198.21204,1044.3022,193.9257,1047.0625,192.63823,1048.047C189.99182,1050.0924,186.59575,1052.8196,183.01918,1055.8668C180.9277,1057.6533,178.17107,1059.9417,176.9,1060.9694C175.6287,1061.9982,174.25859,1063.164,173.84084,1063.5212C173.43883,1063.923,172.34378,1064.8855,171.37523,1065.6495C166.53793,1069.6204,161.52986,1073.805,160.8699,1074.4541C160.45132,1074.8107,158.73453,1076.2576,157.04546,1077.6432C155.35606,1079.0283,153.49617,1080.6295,152.86308,1081.2188C152.27441,1081.7887,150.59077,1083.3237,149.12123,1084.6267C147.69612,1085.9132,146.15569,1087.2938,145.7373,1087.652C145.33582,1088.0531,143.65134,1089.5872,141.9957,1091.0609C140.35509,1092.5785,138.26906,1094.5139,137.3502,1095.4099C136.43056,1096.3062,135.2254,1097.5114,134.59306,1098.0991C134.00394,1098.6709,132.92523,1099.6774,132.29295,1100.2673C131.63248,1100.9161,131.1702,1101.6919,131.26958,1101.9562C131.53323,1102.6609,131.37383,1102.7703,134.26254,1100.4321C137.90547,1097.5615,142.64223,1094.5321,147.56207,1091.9875C151.12225,1090.1014,153.10258,1089.3593,158.50557,1087.8372C162.14122,1086.827,165.60771,1086.0304,166.15762,1086.0256C166.76881,1086.0463,169.53093,1085.9155,172.36401,1085.7075C187.89911,1084.7059,191.88774,1084.7675,208.03357,1086.1981C219.82254,1087.2523,223.99193,1087.3972,238.69595,1087.2587C241.31451,1087.2816,244.91273,1087.2389,246.71136,1087.2172C254.6225,1087.1655,258.59958,1086.5287,264.58572,1084.2864C269.07523,1082.6047,271.23764,1081.5435,274.86935,1079.1798C283.24966,1073.6816,287.0577,1070.0465,292.61728,1062.2411C299.03976,1053.2601,301.25723,1051.275,309.21304,1047.5908C315.1943,1044.7988,321.32388,1043.2058,328.8383,1042.4989C333.36032,1042.1105,340.49008,1042.2499,342.0745,1042.8612C371.45187,1053.4888,393.99475,1059.3987,420.4809,1063.3795C427.61615,1064.4724,446.91284,1066.6785,447.3977,1066.4971C447.52887,1066.4467,449.58655,1066.581,451.9572,1066.7462C458.65808,1067.3468,469.66052,1067.6438,469.80914,1067.2363C469.89136,1067.0543,469.29822,1065.0676,468.44025,1062.7795C467.12195,1059.2578,466.7422,1058.6472,466.0434,1058.6584C465.55402,1058.6906,464.22827,1058.635,463.11133,1058.6016C461.97876,1058.5242,459.62415,1058.4028,457.89667,1058.3469C446.69574,1057.925,431.21082,1056.2477,415.11597,1053.7455C409.9397,1052.9233,393.4803,1049.4524,387.0996,1047.8275C373.41928,1044.2686,358.18234,1039.6367,356.71457,1038.5316C356.22513,1038.1627,355.13058,1036.7157,354.2784,1035.378C353.47006,1034.0245,352.27182,1032.1654,351.65695,1031.1906C350.03482,1028.7367,345.7413,1017.1433,345.35165,1014.2273C344.81424,1010.11194,344.72824,1004.5228,345.2073,1002.18494C345.4446,1000.94214,346.36942,997.7838,347.1791,995.1217C349.7628,986.87646,350.34128,983.59875,350.3328,976.8756C350.3655,962.7584,347.2997,952.96533,340.14462,944.05176C339.6945,943.5178,338.1763,941.4768,336.70853,939.5663C329.21976,929.6228,323.34097,922.2385,321.03696,919.83887C320.63602,919.4375,317.77054,916.3445,314.68582,912.933C311.60056,909.52124,308.7363,906.4291,308.37875,906.01074C307.9763,905.6073,307.08023,904.6885,306.41403,903.98413C304.4354,901.91504,298.65036,894.2455,294.285,887.9498C292.0852,884.7583,289.75964,881.3629,289.0398,880.37866C287.1266,877.682,282.20807,864.0155,281.55334,859.5925C280.7307,853.7776,280.4897,850.8561,280.54572,846.7191C280.64105,842.417,280.59192,841.8834,279.7995,842.17993C279.19995,842.45496,278.4486,849.563,276.93555,869.10254C276.7699,871.0719,276.57574,875.1094,276.45874,878.0145C276.237,883.31714,276.15918,884.45056,275.88773,888.81836C275.81686,890.09985,275.5834,895.9092,275.38333,901.807C275.1666,907.66064,274.9495,913.51416,274.87814,914.7954C274.58975,920.72546,274.60043,920.62134,274.73093,925.39087C274.87827,929.4016,275.7452,936.807,276.82657,943.1771C277.20462,945.3949,277.64407,948.0397,277.78683,949.09033C277.93002,950.14087,278.45114,953.00745,278.9127,955.44507C279.37363,957.8817,279.91135,960.79297,280.02744,961.9042C280.50943,965.3368,283.68112,973.13367,286.2211,977.10156C296.12888,992.5626,303.3887,999.48083,321.6475,1010.7092C325.9545,1013.36304,329.6508,1015.59204,329.8325,1015.6743C330.8555,1015.99426,337.1202,1020.52356,338.55533,1021.94385C342.4601,1025.801,342.73984,1026.1478,346.99075,1032.1355C348.27707,1033.9619,348.99203,1035.602,348.59622,1035.7501C348.2443,1035.8822,341.54477,1033.2726,333.70554,1030.0339C324.29495,1026.0801,314.65213,1021.5112,301.35324,1014.5482C286.8876,1007.0177,265.7075,993.21875,250.48936,981.4021C245.34802,977.45557,244.96298,977.09753,236.21257,969.6848L230.47073,964.8082L229.10255,961.155C227.1234,955.8728,226.2782,951.4708,225.56656,942.6035C225.43028,940.8987,226.15826,934.40186,226.75899,932.1189C227.8552,927.9437,229.44086,924.9392,233.7716,918.9497C239.6611,910.822,242.70575,903.006,243.93643,893.1588C245.06628,884.25256,242.15457,872.9961,231.65138,845.7616C225.25948,829.23267,220.71475,814.42224,220.05191,808.0956C219.09221,799.37024,220.56519,788.4286,223.78021,780.3976C224.44656,778.6926,224.60634,777.7787,224.20494,777.7794C223.65462,777.78406,220.23607,784.33594,217.63216,790.3811C217.04306,791.7555,215.14882,796.0796,213.4645,800.02246C210.69458,806.4303,207.2374,814.7529,203.31673,824.65454C202.62372,826.41956,201.26874,829.6377,200.36575,831.78235C196.16489,841.73926,194.43466,848.10925,191.71815,863.63306C188.93973,879.53064,188.89531,881.5547,191.28499,891.1494C193.37228,899.40234,194.58636,902.91235,197.4121,908.1782C201.13396,915.1659,203.09746,917.99426,214.42447,932.42163C219.02725,938.27783,221.9838,945.90356,223.1686,955.09656C223.53615,957.81885,223.2449,958.3804,222.09521,957.05444C221.66039,956.5647,219.49934,954.41235,217.29472,952.2772C206.62006,941.8717,193.56584,926.9862,183.92084,914.2352C182.71747,912.62854,181.35927,910.8789,180.90819,910.345C180.17683,909.4646,173.85326,900.48987,171.21431,896.6603C163.25812,884.93445,152.58076,866.3468,145.48982,851.83813C142.24086,845.1743,135.33182,829.14136,134.66168,826.683C133.71059,823.07324,136.29404,814.02454,140.24109,807.276C143.1796,802.26,146.99869,798.9215,153.18277,796.0032C159.74747,792.8911,166.30621,787.2217,170.98569,780.5508C173.32993,777.16174,174.50266,774.2638,175.58806,769.39075C176.60736,764.7418,178.87506,745.47095,178.92117,741.4385C178.91013,739.93726,178.9714,737.95654,179.06058,737.12085C179.08781,736.25696,179.17137,734.87085,179.17072,734.06714C179.16736,728.69775,179.81802,723.3346,181.57698,713.69116C182.99895,705.83044,184.9262,700.79224,188.56511,695.3638C190.69493,692.20715,195.5873,686.50916,196.51216,686.1631C197.28734,685.8225,198.26743,684.1498,197.7283,684.05054C197.45857,684.00085,196.23703,684.75916,194.96608,685.78906C193.67813,686.7737,191.25186,688.7361,189.54604,690.07764C187.83983,691.4188,186.10681,692.82227,185.70439,693.22314C185.30281,693.62415,183.84505,694.8235,182.4583,695.94434C179.84486,698.07886,174.68153,702.522,172.78377,704.28723C172.19464,704.8595,171.0723,705.8816,170.35126,706.50305C169.61363,707.07983,168.678,707.9332,168.25977,708.29004C165.01907,711.1605,163.9682,712.1072,163.00484,713.01917C162.41624,713.5908,161.27687,714.5702,160.55609,715.1904C159.81874,715.76855,158.88417,716.621,158.46498,716.9779C158.0471,717.33545,156.95193,718.2988,156.0164,719.1511C150.2985,724.254,142.50513,733.598,135.41605,743.8828C131.16203,749.9435,130.15434,752.4794,128.65527,760.2698C127.01804,768.76245,127.027534,773.87854,128.58615,783.1317C128.8008,784.50757,131.28899,794.3667,132.83823,800.11084C133.24983,801.6134,133.62271,804.485,133.68332,806.5194C133.84734,810.5736,132.48529,818.06104,131.51752,818.4238C131.20976,818.5392,130.9348,818.3418,130.95096,817.9844C130.95096,817.5823,129.5563,813.18665,127.88447,808.1898C120.63522,786.563,114.90617,762.5581,112.246216,742.3241C112.00436,740.6073,111.68082,738.2693,111.531845,737.0691C111.03249,733.9933,110.28121,726.49646,109.91401,721.3623C109.70676,718.9308,109.46013,715.8616,109.367035,714.5414C109.17021,712.40686,108.80366,704.06116,108.771996,701.9657C108.77192,701.5641,108.77288,699.15454,108.713806,696.71704C108.552765,685.83545,108.50305,686.10535,110.843094,680.5614C113.49637,674.24536,116.09484,670.06067,119.517845,666.46936C123.172264,662.69116,126.46773,660.9037,132.52524,659.3883C141.39836,657.21826,142.33961,656.91516,145.95583,654.90784C152.45877,651.3673,156.54144,647.93164,159.1894,643.8779C162.42583,638.8507,169.03905,622.8704,172.99803,610.3951C174.0939,607.0241,176.88016,600.2579,179.19778,595.32477C182.84213,587.6348,183.82167,585.9637,186.4413,583.1739C190.87735,578.40106,194.79532,575.3271,199.71434,572.7824C201.02968,572.1386,202.0417,571.3569,201.95937,571.1374C201.76167,570.6091,195.99512,572.7697,189.73904,575.7657C186.9614,577.0572,182.26768,579.2675,179.19762,580.71906C169.21036,585.41205,153.19975,593.31744,150.18394,595.0505C147.50516,596.6069,138.13358,603.48004,133.13756,607.5607C125.7312,613.64825,124.454346,615.3311,120.36939,624.3902C117.01561,631.9194,115.85886,637.67444,115.723335,647.76294C115.69485,650.6355,115.58918,653.4352,115.55058,654.00146C115.51182,654.5686,115.43385,656.5054,115.43874,658.2595C115.39956,660.0314,114.90938,662.87524,114.40799,664.6185C113.39451,667.8098,109.85485,674.7069,109.31012,674.4595C109.128555,674.37646,109.05175,673.10046,109.19032,671.5934C109.32844,670.0863,109.44429,667.5823,109.56618,666.0311C109.876526,659.4906,112.59143,636.58923,113.395584,633.37714C113.64886,632.5789,113.77014,631.8311,113.7367,631.743C113.555824,631.2587,115.1491,622.3803,116.74635,615.2564C118.778786,605.81146,122.97266,589.5352,124.98157,583.5114C125.725876,581.0744,126.73298,578.13715,127.07458,576.9052C127.47688,575.6999,128.72658,572.071,129.87201,568.83014C132.07504,562.78485,131.90422,563.00006,136.66434,558.9577C139.02963,556.9666,144.1204,554.20685,148.25758,552.6573C152.48251,551.0743,153.23618,550.94244,160.06886,550.6921C169.85486,550.2885,171.88065,549.9311,179.59995,547.0888C186.87764,544.41327,187.80783,543.8143,195.32594,536.68085C200.72955,531.5441,201.93506,530.3405,206.92104,524.75726C220.29979,509.95935,228.00362,502.65567,233.71548,499.412C237.28638,497.42203,247.729,493.4098,250.83185,492.84894C253.6708,492.38797,253.10426,491.54633,250.23238,491.9192C247.65773,492.28146,243.4601,493.00052,239.94437,493.66464C238.69048,493.93494,235.73598,494.4886,233.3868,494.9173C231.08246,495.32858,227.90733,495.96576,226.37248,496.2895C224.83754,496.61398,221.3993,497.35086,218.69821,497.91077C198.94704,501.9959,194.7042,503.13452,184.71324,506.8771C172.08086,511.60995,166.91425,514.2978,163.21062,517.9438C162.80855,518.3455,161.21353,519.8465,159.64465,521.28754C154.9838,525.59283,151.36246,530.6641,148.01976,537.6877C146.33543,541.23016,144.30496,545.4545,143.50014,547.061C141.71747,550.74005,134.84874,558.1326,134.38734,556.9001C134.10703,556.1512,147.72755,526.45404,151.64091,519.21576C153.60623,515.6187,155.41762,512.2801,155.63777,511.7969C155.8582,511.31198,157.73508,508.14948,159.7663,504.72913C161.79771,501.30743,163.52022,498.403,163.5861,498.17752C164.02144,497.06036,175.28821,480.24222,178.88759,475.37973C183.73117,468.74643,184.3366,468.21838,189.82799,465.0575C194.79712,462.24243,198.84705,460.7264,204.04546,459.7323C208.46309,458.93097,211.54414,458.98053,216.78676,459.97784C223.37587,461.22394,228.08003,461.31863,235.47946,460.3039C239.16548,459.82764,247.79222,456.59454,250.88495,454.53302C255.88057,451.25604,266.13748,444.20056,267.26553,443.3264C274.63345,437.40417,276.889,435.65598,279.12357,434.11563C280.55966,433.12604,282.35916,431.8995,283.11313,431.36646C283.8671,430.83344,286.17734,429.36572,288.20245,428.20416C290.25476,426.98422,292.78613,425.4335,293.83142,424.74127C297.18762,422.5806,309.7542,419.67938,315.8933,419.58817C317.2472,419.5828,318.3849,419.40744,318.435,419.13727C318.523,418.7025,316.68597,418.48804,313.42877,418.5036C312.4771,418.509,311.01935,418.5031,310.15594,418.47498C309.33563,418.43134,306.3769,418.4356,303.60962,418.418C300.85852,418.44513,298.13477,418.41025,297.56805,418.3716C297.0177,418.37674,295.21918,418.39868,293.58545,418.45755C291.95093,418.51807,286.67587,418.63718,281.90616,418.76846C269.15482,419.02835,263.78,419.28506,259.43985,419.75668C254.90733,420.25003,251.41953,420.85446,239.14447,423.19254C234.78772,424.0224,228.97783,426.1988,225.72003,428.2225C215.20496,434.72095,212.3156,437.46027,204.36787,448.6694C199.21725,455.81854,199.01944,456.0934,195.3922,458.60736C191.62317,461.27383,189.37817,462.51678,189.19684,462.0324C189.04814,461.6362,191.99248,457.97366,200.33531,448.22153C203.18633,444.84473,215.7112,431.52048,216.10794,431.3717C216.2837,431.3057,217.00462,430.68457,217.7365,429.95816C219.6189,428.1478,220.22415,427.62112,223.43823,424.81073C226.17894,422.4795,226.5585,422.28693,233.40292,419.92398C249.08827,414.49954,252.28566,412.85013,259.30124,406.65738C263.10336,403.276,263.65903,402.61566,266.0046,398.42465C270.40817,390.75162,276.03543,377.09958,278.50314,368.1444C279.84158,363.2759,281.65323,356.72437,282.53506,353.58362C285.02988,344.56784,288.56216,328.9401,288.1382,328.7476C287.95706,328.66458,287.60422,329.19882,287.33475,329.95175C284.4429,339.11566,280.27658,345.94684,274.7407,350.7314C270.4601,354.44333,265.50162,358.35867,262.84396,360.1065C258.73325,362.80112,257.4404,363.63623,256.04294,364.46185C255.27316,364.95068,254.18349,365.65994,253.6495,366.1111C253.09874,366.51834,251.62434,367.6726,250.32045,368.61386C245.51108,372.12152,239.35843,377.1358,237.25102,379.28204C233.14633,383.3288,229.43518,392.44843,227.3296,403.57736C225.67068,412.2796,220.34831,420.84854,208.95529,433.0475C195.25838,447.6635,189.26448,454.57736,180.54126,465.7253C176.82169,470.53247,168.64796,481.67523,165.91254,485.762C164.81177,487.37967,164.8886,485.8441,166.17184,482.30228C167.60922,478.0994,168.0334,477.48846,173.69028,471.1538C181.83641,462.0785,184.2024,458.0798,186.6702,449.52686C188.6259,442.821,188.7087,440.63193,187.41524,430.07468C185.90585,417.73975,185.45042,415.45084,181.92769,403.77023C174.7739,380.25064,170.42574,367.17117,169.89839,367.3694C169.67828,367.45218,169.41945,367.69986,169.35353,367.92587 Z"/>
</g>
<g>
<g style="fill:rgb(16,0,0); fill-opacity:1.0; stroke-linejoin: miter">
<path d="M260.7546,1002.5774L264.60318,1002.83716Q276.4111,1002.4114,284.79837,993.20264Q293.19028,983.92236,293.9243,969.7927Q294.0471,956.2235,286.38083,946.95764Q283.89944,943.985,280.7747,941.83887L277.5168,939.9429Q274.11227,938.27515,270.23093,937.69543Q258.2632,936.30286,249.01305,944.301Q239.76303,952.2986,237.44888,966.04004Q235.73615,979.8694,242.31206,990.1791Q248.88824,1000.489,260.7546,1002.5774"/>
</g>
<g style="fill:rgb(255,255,255); fill-opacity:1.0; stroke-linejoin: miter">
<path d="M267.50113,945.2079L267.9625,945.2499Q268.58853,945.26074,269.12503,945.1206L269.38742,945.041Q269.64456,944.9519,269.8793,944.8252Q270.11374,944.6985,270.32608,944.53394Q270.53812,944.36816,270.704,944.17993Q271.07785,943.6902,271.09702,943.56555Q271.2892,943.1221,271.2961,942.5897Q271.27158,942.0769,271.06772,941.6288Q270.9658,941.40454,270.81888,941.19653Q270.41238,940.69055,270.27744,940.6084Q269.23312,939.77454,267.98544,939.7079Q267.36514,939.6681,266.81863,939.7888Q266.54514,939.8491,266.2902,939.9496Q266.14816,939.97644,265.57303,940.33777Q264.7117,940.95215,264.52872,941.9806Q264.4692,942.4994,264.60202,942.9675Q264.80978,943.5415,264.90903,943.6411Q265.04733,943.8562,265.23386,944.0586Q265.60648,944.4634,266.09592,944.73535Q266.3406,944.87134,266.6143,944.9741Q267.32425,945.20215,267.50113,945.2079"/>
</g>
</g>
<g>
<g style="fill:rgb(16,0,0); fill-opacity:1.0; stroke-linejoin: miter">
<path d="M190.59737,940.51843L194.446,940.7782Q206.25394,940.35254,214.64117,931.1438Q223.033,921.8635,223.76697,907.7335Q223.88977,894.1644,216.22353,884.89844Q213.74219,881.926,210.61742,879.7799L207.3595,877.8839Q203.95497,876.2162,200.07364,875.63635Q188.10596,874.2438,178.85577,882.2418Q169.60577,890.2396,167.29166,903.9812Q165.5789,917.8104,172.15485,928.12024Q178.731,938.4303,190.59737,940.51843"/>
</g>
<g style="fill:rgb(255,255,255); fill-opacity:1.0; stroke-linejoin: miter">
<path d="M197.34387,883.1489L197.80527,883.1908Q198.43127,883.20166,198.96777,883.0615L199.23016,882.9818Q199.48726,882.89294,199.722,882.76624Q199.95644,882.6395,200.16876,882.475Q200.38087,882.3093,200.54675,882.1211Q200.92058,881.6312,200.93974,881.5065Q201.1319,881.06323,201.13878,880.53076Q201.11429,880.01807,200.9104,879.5698Q200.80852,879.3457,200.6616,879.1376Q200.25511,878.6316,200.12012,878.54944Q199.07582,877.7157,197.82819,877.6489Q197.2079,877.609,196.66136,877.72974Q196.38786,877.79016,196.13298,877.8905Q195.99089,877.9176,195.4158,878.2788Q194.55443,878.89307,194.37144,879.9215Q194.31197,880.4403,194.44478,880.90845Q194.65256,881.48254,194.75179,881.5823Q194.89009,881.79724,195.07655,881.9995Q195.44923,882.40454,195.93867,882.6763Q196.18332,882.81226,196.45706,882.91504Q197.16704,883.14307,197.34387,883.1489"/>
</g>
</g>
<g>
<g style="fill:rgb(16,0,0); fill-opacity:1.0; stroke-linejoin: miter">
<path d="M144.33658,857.81287L148.18518,858.0725Q159.99312,857.64685,168.38036,848.4381Q176.77225,839.15784,177.50624,825.0283Q177.629,811.4591,169.96277,802.1931Q167.48148,799.2206,164.35664,797.07446L161.09872,795.17834Q157.69423,793.51074,153.81294,792.9309Q141.84521,791.5383,132.59497,799.5364Q123.34494,807.5343,121.030754,821.27576Q119.3181,835.1046,125.89402,845.4144Q132.47023,855.7245,144.33658,857.81287"/>
</g>
<g style="fill:rgb(255,255,255); fill-opacity:1.0; stroke-linejoin: miter">
<path d="M151.0831,800.44336L151.54446,800.48535Q152.17055,800.4961,152.70702,800.35596L152.96944,800.2765Q153.22656,800.1875,153.46127,800.06067Q153.69576,799.93396,153.90805,799.76953Q154.12015,799.60376,154.28603,799.4155Q154.65984,798.9258,154.67902,798.801Q154.87119,798.3578,154.87807,797.8252Q154.85355,797.3125,154.64961,796.86426Q154.5478,796.64,154.40086,796.432Q153.9944,795.926,153.8594,795.844Q152.81506,795.01013,151.56741,794.94336Q150.94716,794.90344,150.40057,795.0243Q150.1271,795.0846,149.87216,795.1852Q149.73015,795.2119,149.15503,795.57324Q148.29369,796.1875,148.1107,797.21606Q148.05122,797.73474,148.18405,798.2029Q148.39182,798.7771,148.491,798.8767Q148.62932,799.0918,148.81577,799.29407Q149.1885,799.699,149.6779,799.9708Q149.92255,800.10693,150.19632,800.2096Q150.90627,800.4375,151.0831,800.44336"/>
</g>
</g>
<g>
<g style="fill:rgb(16,0,0); fill-opacity:1.0; stroke-linejoin: miter">
<path d="M112.80775,762.20154L116.65638,762.4613Q128.46426,762.03564,136.85147,752.8269Q145.24332,743.54675,145.97731,729.417Q146.10005,715.84766,138.43382,706.5819Q135.9525,703.60913,132.82771,701.46326L129.56984,699.56714Q126.16531,697.89954,122.28408,697.3197Q110.31636,695.927,101.06611,703.9252Q91.816086,711.92303,89.50197,725.6645Q87.78926,739.4936,94.36519,749.8033Q100.94137,760.1133,112.80775,762.20154"/>
</g>
<g style="fill:rgb(255,255,255); fill-opacity:1.0; stroke-linejoin: miter">
<path d="M119.55419,704.83215L120.01554,704.87415Q120.64158,704.885,121.1781,704.7449L121.44051,704.66516Q121.69765,704.5763,121.93236,704.4496Q122.16677,704.32275,122.37911,704.15845Q122.59116,703.99243,122.757034,703.8042Q123.13093,703.3146,123.15011,703.1898Q123.34227,702.74646,123.34915,702.21387Q123.32469,701.7013,123.120766,701.25305Q123.01895,701.0288,122.87201,700.8207Q122.46548,700.3148,122.33054,700.2328Q121.28621,699.3989,120.03855,699.33203Q119.4183,699.29236,118.87171,699.4131Q118.59825,699.4734,118.343315,699.57385Q118.20129,699.6007,117.626114,699.96204Q116.76477,700.5763,116.581856,701.60474Q116.52238,702.12366,116.65518,702.5917Q116.86295,703.1658,116.96215,703.2654Q117.10047,703.48047,117.28689,703.68274Q117.65958,704.08765,118.14898,704.3596Q118.39362,704.4957,118.66735,704.5984Q119.37735,704.8264,119.55419,704.83215"/>
</g>
</g>
<g>
<g style="fill:rgb(16,0,0); fill-opacity:1.0; stroke-linejoin: miter">
<path d="M107.90723,663.0668L111.75587,663.32654Q123.56378,662.90076,131.95102,653.692Q140.3429,644.41187,141.07692,630.28217Q141.19968,616.71295,133.53345,607.4471Q131.05211,604.4744,127.92732,602.3283L124.66945,600.4322Q121.26492,598.7647,117.38357,598.1849Q105.41598,596.7923,96.16571,604.79034Q86.91567,612.78815,84.601555,626.5295Q82.888794,640.3588,89.464714,650.6684Q96.04091,660.9783,107.90723,663.0668"/>
</g>
<g style="fill:rgb(255,255,255); fill-opacity:1.0; stroke-linejoin: miter">
<path d="M114.65379,605.6973L115.11515,605.7393Q115.74119,605.75006,116.2777,605.6099L116.540115,605.53046Q116.797195,605.44147,117.03196,605.3145Q117.26637,605.1879,117.478714,605.0235Q117.69082,604.8575,117.85669,604.6694Q118.23053,604.17975,118.2497,604.055Q118.44188,603.6115,118.4487,603.07916Q118.42424,602.56647,118.22031,602.1182Q118.11849,601.8941,117.97155,601.686Q117.565025,601.18,117.43003,601.09796Q116.38575,600.2641,115.138115,600.1973Q114.517845,600.15753,113.97126,600.27826Q113.6978,600.33856,113.44286,600.439Q113.300835,600.466,112.72567,600.8272Q111.86439,601.44147,111.68141,602.47003Q111.62193,602.98883,111.75469,603.457Q111.96246,604.03107,112.06171,604.13055Q112.200035,604.34576,112.38645,604.54803Q112.75913,604.9527,113.24859,605.2248Q113.49323,605.3608,113.76696,605.46356Q114.47697,605.6916,114.65379,605.6973"/>
</g>
</g>
<g>
<g style="fill:rgb(16,0,0); fill-opacity:1.0; stroke-linejoin: miter">
<path d="M137.08978,561.59515L140.93834,561.8549Q152.74626,561.42914,161.13344,552.2205Q169.5253,542.94025,170.25931,528.8105Q170.38214,515.2413,162.7159,505.9754Q160.23457,503.00284,157.1098,500.85684L153.85194,498.96075Q150.44745,497.29303,146.56604,496.7132Q134.59845,495.3206,125.34819,503.31882Q116.09816,511.31656,113.78397,525.05804Q112.07123,538.88715,118.64719,549.19696Q125.223404,559.5069,137.08978,561.59515"/>
</g>
<g style="fill:rgb(255,255,255); fill-opacity:1.0; stroke-linejoin: miter">
<path d="M143.83627,504.22568L144.2976,504.26767Q144.92366,504.2784,145.46025,504.13837L145.72263,504.05872Q145.97974,503.96982,146.21448,503.84302Q146.44885,503.71634,146.66124,503.55182Q146.8733,503.386,147.03915,503.19785Q147.41301,502.70807,147.43224,502.58334Q147.62434,502.14008,147.63123,501.60754Q147.60677,501.09482,147.40285,500.64664Q147.30095,500.42245,147.15408,500.2144Q146.74756,499.7084,146.61256,499.62634Q145.56824,498.79245,144.32059,498.7257Q143.70032,498.68588,143.15381,498.80667Q142.88026,498.867,142.62538,498.96747Q142.48334,498.99435,141.9082,499.35562Q141.04686,499.96985,140.86392,500.9983Q140.80441,501.51715,140.93716,501.9853Q141.145,502.5594,141.24423,502.659Q141.38249,502.8741,141.56898,503.0764Q141.94162,503.48123,142.43108,503.75308Q142.67572,503.88916,142.9495,503.99188Q143.6595,504.2199,143.83627,504.22568"/>
</g>
</g>
<g>
<g style="fill:rgb(16,0,0); fill-opacity:1.0; stroke-linejoin: miter">
<path d="M160.28313,865.723L159.74954,869.5431Q156.9157,881.0138,146.18494,887.3385Q135.38344,893.65283,121.40262,891.4789Q108.09558,888.82117,100.595215,879.4208Q98.19344,876.3833,96.73261,872.8854L95.54362,869.30835Q94.60819,865.63464,94.83515,861.7168Q95.92195,849.7175,105.644325,842.30054Q115.36634,834.8834,129.29047,835.4313Q143.17741,836.5857,151.9227,845.1328Q160.6682,853.6804,160.28313,865.723"/>
</g>
<g style="fill:rgb(255,255,255); fill-opacity:1.0; stroke-linejoin: miter">
<path d="M102.74737,860.5825L102.693924,861.0426Q102.57643,861.6576,102.32954,862.1542L102.197815,862.39465Q102.05805,862.6282,101.885994,862.8319Q101.713936,863.03564,101.50958,863.20984Q101.30374,863.3834,101.08556,863.5072Q100.5297,863.77295,100.40373,863.76624Q99.93045,863.8635,99.40772,863.76135Q98.910995,863.6322,98.514,863.34094Q98.3154,863.19543,98.14179,863.00903Q97.729805,862.50757,97.67708,862.3585Q97.07468,861.16565,97.26465,859.931Q97.352684,859.3153,97.582794,858.8053Q97.697914,858.5498,97.848366,858.3209Q97.90371,858.1875,98.375206,857.6985Q99.15268,856.9811,100.19688,857.0126Q100.71685,857.06055,101.14788,857.2864Q101.66724,857.6072,101.74445,857.72473Q101.926735,857.9042,102.08642,858.1279Q102.406494,858.57556,102.57244,859.11035Q102.65553,859.3777,102.70004,859.6666Q102.77787,860.4082,102.74737,860.5825"/>
</g>
</g>
<g>
<g style="fill:rgb(16,0,0); fill-opacity:1.0; stroke-linejoin: miter">
<path d="M196.35803,933.84045L195.82436,937.66064Q192.99055,949.1312,182.25998,955.45593Q171.45834,961.7704,157.47748,959.59656Q144.17046,956.9391,136.67023,947.5382Q134.26842,944.50073,132.80759,941.0028L131.61859,937.4258Q130.68317,933.7522,130.91011,929.8342Q131.99684,917.8347,141.71915,910.41785Q151.44122,903.00085,165.3654,903.5487Q179.25237,904.7031,187.99768,913.25024Q196.74309,921.7977,196.35803,933.84045"/>
</g>
<g style="fill:rgb(255,255,255); fill-opacity:1.0; stroke-linejoin: miter">
<path d="M138.82239,928.7001L138.76906,929.1603Q138.65134,929.77515,138.40445,930.2717L138.27284,930.5123Q138.1332,930.7456,137.961,930.94946Q137.78896,931.1531,137.58453,931.3274Q137.37875,931.50085,137.1606,931.6249Q136.60478,931.8905,136.47874,931.88367Q136.00542,931.98096,135.48277,931.8788Q134.98596,931.74976,134.58904,931.4586Q134.39032,931.31287,134.21677,931.12646Q133.80473,930.625,133.75204,930.4761Q133.14958,929.2832,133.33968,928.04834Q133.42766,927.43286,133.65778,926.9227Q133.77283,926.66736,133.92332,926.43835Q133.97879,926.30505,134.45012,925.8159Q135.22766,925.0985,136.27187,925.13Q136.79187,925.1781,137.2229,925.4037Q137.74226,925.7246,137.81947,925.8423Q138.00163,926.0217,138.16156,926.2456Q138.4815,926.6931,138.64742,927.2279Q138.73055,927.49536,138.77507,927.7842Q138.85289,928.52576,138.82239,928.7001"/>
</g>
</g>
<g>
<g style="fill:rgb(16,0,0); fill-opacity:1.0; stroke-linejoin: miter">
<path d="M124.31298,766.97766L123.77936,770.7977Q120.94545,782.26855,110.21486,788.5929Q99.41317,794.9075,85.43233,792.7335Q72.12541,790.07605,64.625084,780.67554Q62.223324,777.6382,60.76248,774.14014L59.57349,770.5631Q58.638115,766.88947,58.865017,762.9716Q59.951714,750.97235,69.67415,743.55524Q79.396225,736.1385,93.3204,736.6862Q107.20727,737.8407,115.95252,746.3878Q124.69794,754.9352,124.31298,766.97766"/>
</g>
<g style="fill:rgb(255,255,255); fill-opacity:1.0; stroke-linejoin: miter">
<path d="M66.77719,761.83746L66.7238,762.29767Q66.6062,762.91266,66.35925,763.4091L66.227585,763.6497Q66.08787,763.8831,65.915764,764.08685Q65.743706,764.2906,65.53935,764.4648Q65.3335,764.63824,65.11533,764.7619Q64.55952,765.0279,64.433495,765.02106Q63.96015,765.11835,63.437492,765.0162Q62.940754,764.88715,62.543716,764.59576Q62.345165,764.45026,62.17156,764.264Q61.759567,763.7624,61.70685,763.61346Q61.10444,762.4205,61.294407,761.18585Q61.382504,760.57025,61.61262,760.06Q61.72768,759.8046,61.878128,759.57587Q61.93353,759.4423,62.404915,758.9533Q63.182446,758.2359,64.22665,758.2674Q64.74662,758.31537,65.17771,758.5411Q65.69706,758.8621,65.77422,758.9797Q65.9565,759.1591,66.1163,759.3829Q66.43626,759.8305,66.602264,760.3653Q66.68535,760.6326,66.72993,760.92145Q66.8077,761.66315,66.77719,761.83746"/>
</g>
</g>
<g>
<g style="fill:rgb(16,0,0); fill-opacity:1.0; stroke-linejoin: miter">
<path d="M108.14702,665.4127L107.61344,669.2329Q104.77955,680.7036,94.04886,687.02814Q83.24717,693.3427,69.266365,691.16864Q55.95922,688.5113,48.459076,679.1104Q46.057304,676.0732,44.596355,672.5754L43.407406,668.9981Q42.472145,665.3243,42.698936,661.40656Q43.785805,649.40717,53.508236,641.9902Q63.230194,634.5734,77.15455,635.12115Q91.04137,636.2756,99.78666,644.82275Q108.53203,653.3701,108.14702,665.4127"/>
</g>
<g style="fill:rgb(255,255,255); fill-opacity:1.0; stroke-linejoin: miter">
<path d="M50.611168,660.2725L50.557777,660.7326Q50.440174,661.3477,50.193165,661.84406L50.061554,662.08453Q49.921967,662.3182,49.749737,662.5219Q49.577797,662.7254,49.37333,662.8995Q49.16754,663.0733,48.94937,663.1971Q48.393505,663.46295,48.267532,663.456Q47.79419,663.5534,47.27153,663.4511Q46.77473,663.3222,46.377747,663.0308Q46.1792,662.8851,46.00559,662.69867Q45.593544,662.1973,45.54082,662.0483Q44.938416,660.8555,45.128498,659.62054Q45.21654,659.0053,45.446594,658.4952Q45.561653,658.2398,45.712162,658.0108Q45.76762,657.87714,46.238884,657.3881Q47.016426,656.67096,48.060627,656.70245Q48.580658,656.7503,49.011684,656.97626Q49.531044,657.29706,49.608253,657.4145Q49.790466,657.59393,49.950333,657.8178Q50.270294,658.26556,50.436237,658.80023Q50.51938,659.06757,50.563847,659.3566Q50.64167,660.0981,50.611168,660.2725"/>
</g>
</g>
<g>
<g style="fill:rgb(16,0,0); fill-opacity:1.0; stroke-linejoin: miter">
<path d="M125.94588,554.7227L125.41229,558.5429Q122.57839,570.0136,111.847694,576.33795Q101.046005,582.65265,87.0652,580.47833Q73.75817,577.821,66.257744,568.4202Q63.856037,565.3829,62.395084,561.8852L61.2062,558.3079Q60.27077,554.6342,60.497734,550.7165Q61.58454,538.7172,71.30708,531.3001Q81.0291,523.88324,94.953384,524.4311Q108.84022,525.5855,117.58551,534.1326Q126.33093,542.6801,125.94588,554.7227"/>
</g>
<g style="fill:rgb(255,255,255); fill-opacity:1.0; stroke-linejoin: miter">
<path d="M68.41002,549.58234L68.35663,550.04254Q68.23908,550.65753,67.99201,551.154L67.860466,551.3945Q67.72071,551.628,67.54852,551.83185Q67.37659,552.03546,67.17212,552.20953Q66.96633,552.3831,66.74815,552.507Q66.1923,552.77264,66.06632,552.7658Q65.59304,552.8632,65.07032,552.7609Q64.573524,552.632,64.1766,552.34076Q63.977993,552.1951,63.80438,552.0086Q63.392338,551.50726,63.339676,551.3582Q62.73727,550.16534,62.927242,548.9305Q63.015278,548.31525,63.24534,547.805Q63.360447,547.5496,63.510956,547.3206Q63.56641,547.1872,64.03768,546.69806Q64.81521,545.98065,65.85947,546.01215Q66.37944,546.0601,66.81053,546.2861Q67.32989,546.607,67.407104,546.7244Q67.58932,546.9039,67.74918,547.1276Q68.069145,547.5754,68.23502,548.1099Q68.31824,548.3774,68.3627,548.66644Q68.440575,549.408,68.41002,549.58234"/>
</g>
</g>
<g>
<g style="fill:rgb(16,0,0); fill-opacity:1.0; stroke-linejoin: miter">
<path d="M269.13852,1005.2805L268.60495,1009.1008Q265.7711,1020.57153,255.04024,1026.8961Q244.23857,1033.2106,230.25772,1031.0363Q216.95059,1028.3789,209.4503,1018.978Q207.04846,1015.9408,205.58759,1012.44275L204.39862,1008.86584Q203.46326,1005.192,203.6902,1001.27405Q204.77702,989.2749,214.49957,981.85803Q224.22165,974.4413,238.14601,974.9888Q252.03293,976.1432,260.77817,984.69055Q269.52365,993.2378,269.13852,1005.2805"/>
</g>
<g style="fill:rgb(255,255,255); fill-opacity:1.0; stroke-linejoin: miter">
<path d="M211.60246,1000.14L211.54909,1000.60034Q211.43155,1001.2152,211.18459,1001.7117L211.05295,1001.9524Q210.91321,1002.18567,210.74109,1002.3895Q210.56903,1002.593,210.36461,1002.76733Q210.15884,1002.9408,209.94072,1003.0648Q209.38484,1003.3303,209.2588,1003.3236Q208.78548,1003.42114,208.26276,1003.319Q207.76598,1003.1898,207.36902,1002.89844Q207.1704,1002.7529,206.99684,1002.5664Q206.58485,1002.06494,206.53214,1001.9159Q205.92984,1000.7229,206.11987,999.48816Q206.20787,998.8728,206.43794,998.36255Q206.55305,998.1073,206.70352,997.87854Q206.75887,997.745,207.23015,997.25586Q208.00778,996.53845,209.05197,996.57007Q209.57193,996.61804,210.00305,996.8436Q210.5224,997.1647,210.59955,997.28235Q210.78183,997.4617,210.94164,997.68555Q211.26161,998.1332,211.42757,998.66785Q211.51065,998.93506,211.55516,999.22424Q211.63298,999.9658,211.60246,1000.14"/>
</g>
</g>
</g>
</svg>