<?xml version="1.0" encoding="UTF-8"?>
<svg viewBox="0 0 640 480" xmlns="http://www.w3.org/2000/svg">
 <switch>
  <g fill="#7f0000" fill-rule="evenodd">
   <path d="m449.75 449.96l-25.381-25.344c0.86499-0.828 1.584-1.8 2.305-2.772 0.57599-1.08 1.367-2.088 1.836-3.168 0.46899-1.188 0.64801-2.16 0.936-3.348 0.17999-1.188 0.289-2.521 0.324-3.853l-0.145-369.4 0.145 1.908c-0.035004-1.368-0.14502-2.7-0.324-3.852-0.28699-1.296-0.46701-2.268-0.936-3.348-0.46899-1.188-1.26-2.196-1.836-3.168-0.72101-1.044-1.439-1.908-2.305-2.736l25.381-25.38c0.68402 0.576 1.295 1.332 1.98 2.268 0.61099 0.792 1.295 2.016 1.908 3.276 0.43201 1.296 1.115 2.916 1.367 4.572 0.14502 1.44 0.14502 2.952 0.14502 4.68-0.037018 1.692-0.037018 3.816 0 5.976v402.91c0.035004 2.124 0.035004 4.248 0 5.977 0.035004 1.656-0.072021 3.168-0.18002 4.68-0.289 1.584-0.86499 3.168-1.332 4.608-0.61298 1.224-1.297 2.304-1.908 3.24-0.685 0.89999-1.296 1.656-1.98 2.268z"/>
   <path d="m6.472 449.6l25.38-25.344c-0.9-0.828-1.62-1.8-2.304-2.771-0.684-1.08-1.476-2.089-1.836-3.168-0.432-1.188-0.792-2.16-0.936-3.349-0.252-1.188-0.36-2.52-0.324-3.852l0.144-369.4-0.144 1.908c-0.035999-1.368 0.072001-2.7 0.324-3.852 0.144-1.296 0.504-2.268 0.936-3.348 0.36-1.188 1.152-2.196 1.836-3.168 0.684-1.044 1.404-1.908 2.304-2.736l-25.38-25.38c-0.72 0.576-1.332 1.332-1.98 2.268-0.72 0.828-1.404 1.908-1.908 3.24-0.54 1.368-1.188 2.952-1.368 4.608-0.216 1.44-0.216 2.952-0.144 4.68-0.036 1.692-0.036 3.816 0 5.976v402.91c-0.036 2.124-0.036 4.248 0 5.976-0.072 1.656-0.072 3.168 0.144 4.68 0.18 1.584 0.828 3.168 1.368 4.607 0.504 1.225 1.188 2.304 1.908 3.24 0.648 0.89999 1.26 1.657 1.98 2.269z"/>
   <path d="m449.96 5.472l-25.344 25.38c-0.828-0.9-1.799-1.62-2.771-2.304-1.08-0.684-2.088-1.476-3.168-1.836-1.115-0.432-2.123-0.792-3.313-0.936-1.223-0.252-2.52-0.36-3.887-0.324l-369.4 0.144 1.908-0.144c-1.368 0.036001-2.7 0-3.852 0.288-1.296 0.144-2.268 0.468-3.348 0.972-1.188 0.36-2.196 1.152-3.168 1.836-1.044 0.684-1.908 1.404-2.736 2.304l-25.38-25.38c0.576-0.684 1.332-1.404 2.268-2.016 0.792-0.756 2.016-1.332 3.276-1.872 1.296-0.54 2.916-1.188 4.572-1.368 1.44-0.216 2.952-0.216 4.68-0.144 1.692-0.036 3.816-0.036 5.976 0h402.91c2.125-0.036 4.248-0.036 5.977 0 1.655-0.072 3.167-0.072 4.679 0.144 1.584 0.18 3.168 0.828 4.607 1.368 1.225 0.504 2.305 1.188 3.24 1.908 0.901 0.648 1.657 1.26 2.268 1.98z"/>
   <path d="m449.6 449.28l-25.344-25.381c-0.828 0.828-1.801 1.656-2.771 2.341-1.08 0.647-2.088 1.296-3.168 1.8-1.117 0.396-2.125 0.72-3.313 0.97198-1.225 0.17999-2.52 0.28799-3.889 0.324l-369.4-0.18 1.908 0.18c-1.368-0.036011-2.7-0.14499-3.852-0.324-1.296-0.25198-2.268-0.57599-3.348-0.97198-1.188-0.504-2.196-1.152-3.168-1.8-1.044-0.72098-1.908-1.44-2.736-2.305l-25.379 25.345c0.576 0.647 1.332 1.367 2.268 2.016 0.792 0.612 2.016 1.296 3.276 1.908 1.296 0.46799 2.916 1.044 4.572 1.332 1.44 0.14398 2.952 0.14398 4.68 0.14398 1.692-0.03598 3.816-0.03598 5.976 0h402.91c2.123-0.03598 4.248-0.03598 5.977 0 1.654 0 3.168 0 4.68-0.14398 1.584-0.25201 3.168-0.93701 4.607-1.368 1.225-0.64801 2.305-1.224 3.24-1.872 0.89999-0.64899 1.656-1.368 2.268-2.016z"/>
   <path d="m400.35 402.85c1.043-11.987 1.043-23.472 0-35.424-1.152-11.987-2.053-25.416-6.445-35.424-4.391-10.116-8.963-19.512-20.123-24.156-11.484-4.607-34.633-5.544-47.484-3.204-12.816 2.269-21.779 6.696-28.98 16.885-7.271 10.151-12.061 24.372-14.508 43.487-7.199 4.248-14.832 5.904-23.328 4.824-8.604-1.224-20.375-5.436-27.396-11.268-7.02-5.868-11.843-13.464-14.471-23.328h50.723v-21.744h-207.72v20.916h111.1c1.512 14.472 4.319 27.072 8.855 38.628 4.464 11.484 10.224 21.24 17.712 29.808h202.07z"/>
   <path d="m342.67 183.85c29.988 0 54.324 24.337 54.324 54.324s-24.336 54.324-54.324 54.324c-29.986 0-54.322-24.337-54.322-54.324s24.336-54.324 54.322-54.324"/>
   <path d="m60.651 299.82c14.615-45 56.556-75.457 103.82-75.457 47.304 0 89.244 30.457 103.86 75.457h-207.68z"/>
   <path d="m148.38 196.75c-6.373-8.928-8.425-17.1-6.444-24.948 2.052-7.92 6.696-17.532 18.504-21.744 11.808-4.104 35.46 0.93599 51.516-3.204 15.875-4.284 35.28-8.136 43.489-22.536 8.027-14.688 9.684-35.784 4.824-64.404-0.25201 20.952-9.469 35.388-28.189 44.28-18.9 8.676-62.208 2.016-83.699 8.064-21.601 6.12-37.332 16.704-44.281 28.152-6.84 11.412-4.247 29.844 3.205 39.456 7.45 9.396 20.95 14.976 41.075 16.884z"/>
   <path d="m393.36 397.27c1.043-11.987 1.043-23.472 0-35.424-1.152-11.987-2.053-25.416-6.445-35.424-4.391-10.116-8.963-19.512-20.123-24.156-11.484-4.607-34.633-5.544-47.484-3.204-12.816 2.269-21.779 6.696-28.98 16.885-7.271 10.151-12.096 24.372-14.471 43.487-7.164 4.248-14.904 5.904-23.365 4.824-8.531-1.224-20.375-5.436-27.359-11.268-7.02-5.868-11.808-13.464-14.507-23.328h50.724v-21.744h-207.69v20.916h111.1c1.513 14.472 4.32 27.072 8.856 38.628 4.464 11.484 10.224 21.24 17.712 29.808h202.03z"/>
   <path d="m335.72 178.33c29.986 0 54.324 24.337 54.324 54.324 0 29.986-24.338 54.324-54.324 54.324s-54.324-24.338-54.324-54.324c0-29.987 24.338-54.324 54.324-54.324"/>
   <path d="m53.667 294.24c14.616-45 56.557-75.456 103.86-75.456 47.269 0 89.208 30.456 103.82 75.456h-207.68z"/>
   <path d="m141.4 191.2c-6.372-9-8.424-17.1-6.444-24.984 2.017-7.92 6.769-17.568 18.54-21.708 11.809-4.14 35.46 0.936 51.516-3.24 15.912-4.284 35.208-8.136 43.453-22.536 8.027-14.688 9.684-35.784 4.824-64.404-0.17999 20.952-9.432 35.388-28.152 44.28-19.007 8.676-62.1 2.016-83.736 8.063-21.6 6.12-37.332 16.704-44.28 28.152-6.84 11.412-4.284 29.844 3.24 39.456 7.486 9.469 20.843 14.977 41.039 16.921z"/>
  </g>
 </switch>
</svg>
