<?xml version='1.0' encoding='utf-8'?>
<svg xmlns="http://www.w3.org/2000/svg" version="1.1" width="600px" height="976px" viewBox="0 0 600 976"> <g id="layer1"> <g style="fill:rgb(0,0,0); fill-opacity:1.0; stroke-linejoin: miter"> <path d="M281.95316,488.5204C281.85773,488.53754,281.74026,488.59122,281.67517,488.64664C281.629,488.68622,281.58633,488.7271,281.5705,488.74734C281.50934,488.82523,281.47592,488.87845,281.48648,488.88196C281.4935,488.88458,281.52518,488.8635,281.5696,488.82785C281.6668,488.7487,281.70334,488.7245,281.72488,488.7245C281.73938,488.7245,281.74512,488.7214,281.76227,488.70468C281.78073,488.68622,281.79834,488.67874,281.79834,488.6893C281.79834,488.69897,281.8203,488.6928,281.83615,488.6783C281.85507,488.66113,281.86212,488.6594,281.874,488.67038C281.88147,488.67697,281.8841,488.67697,281.89642,488.67215C281.9149,488.6642,281.93732,488.66333,281.936,488.67038C281.93512,488.67346,281.9369,488.68094,281.9391,488.6871C281.94394,488.6994,281.9611,488.70206,281.98044,488.69327C281.9954,488.68622,282.01385,488.69766,282.01385,488.7135C282.01385,488.7245,282.0187,488.7302,282.04025,488.7465C282.05038,488.7535,282.05124,488.75748,282.05124,488.78607C282.05124,488.81378,282.05258,488.8186,282.06137,488.82565C282.06927,488.83224,282.07147,488.83884,282.07236,488.85953C282.07324,488.88196,282.07193,488.88635,282.0609,488.8978C282.0482,488.91144,282.04465,488.93387,282.05432,488.94354C282.0609,488.95013,282.05124,488.9972,282.04333,488.9972C282.04025,488.9972,282.03058,489.00204,282.02133,489.00818C282.00156,489.02182,281.9989,489.03854,282.01605,489.04645C282.02927,489.0522,282.02927,489.05527,282.01825,489.07944C282.01123,489.09573,282.00815,489.09836,281.99628,489.09836C281.97955,489.09836,281.9567,489.11905,281.9567,489.134C281.9567,489.1397,281.96198,489.14938,281.9681,489.15598L281.97998,489.1683L281.9668,489.19162C281.9558,489.21097,281.95096,489.21536,281.9382,489.21756C281.914,489.22153,281.91138,489.2246,281.91446,489.24704C281.91708,489.26508,281.91577,489.2686,281.89685,489.29456C281.88586,489.30994,281.87576,489.32312,281.874,489.32312C281.87222,489.32358,281.86694,489.32446,281.86212,489.3249C281.85156,489.3262,281.8256,489.33896,281.81503,489.3482C281.8045,489.357,281.80493,489.37503,281.81592,489.38647C281.82428,489.39526,281.82428,489.39572,281.79877,489.43484C281.7847,489.45685,281.76797,489.47885,281.76138,489.48413C281.75522,489.48984,281.74994,489.49863,281.74994,489.50348C281.74994,489.50876,281.74335,489.52545,281.735,489.53998C281.72662,489.55493,281.71387,489.5844,281.70596,489.6064C281.6941,489.6394,281.69144,489.65436,281.6897,489.69745C281.68835,489.72604,281.68573,489.74936,281.68442,489.74936C281.67914,489.74936,281.63208,489.69876,281.6083,489.66666C281.54672,489.5844,281.47943,489.42957,281.4447,489.2897C281.43854,489.2655,281.42752,489.207,281.4205,489.15994C281.39453,488.99808,281.39014,488.97916,281.36023,488.91275C281.32153,488.82608,281.26126,488.7509,281.19794,488.71042C281.08047,488.63477,280.95688,488.60266,280.8293,488.61453C280.71585,488.6251,280.6358,488.6607,280.57465,488.72845C280.54297,488.76364,280.52054,488.80234,280.4937,488.8692L280.4717,488.92462L280.40134,488.9598C280.32568,488.99765,280.27466,489.02975,280.2263,489.07065C280.18802,489.1032,280.19022,489.1019,280.16513,489.10495C280.15063,489.10672,280.13962,489.112,280.12906,489.1208C280.11017,489.1375,280.10663,489.14807,280.11368,489.16873C280.11896,489.18457,280.11853,489.18677,280.10004,489.21756C280.08948,489.2356,280.07892,489.25143,280.0763,489.25275C280.0741,489.25452,280.06485,489.26022,280.0556,489.2655C280.0398,489.27563,280.03317,489.28442,280.0279,489.30423C280.0257,489.3117,280.02835,489.317,280.03802,489.3262C280.05078,489.33807,280.05078,489.33853,280.04858,489.3755C280.0468,489.40628,280.04462,489.41507,280.03625,489.42517C280.02924,489.43353,280.0257,489.4432,280.0257,489.45508C280.0257,489.47003,280.0279,489.47357,280.04242,489.4828C280.05695,489.49203,280.06003,489.4969,280.06924,489.52853L280.07938,489.56372L280.06793,489.5831C280.05386,489.60684,280.0534,489.6231,280.06573,489.63544C280.0741,489.6438,280.0785,489.64465,280.10092,489.64246L280.12643,489.6394L280.14404,489.66095C280.15414,489.67282,280.16205,489.6838,280.16205,489.68558C280.16205,489.68735,280.1581,489.69348,280.15326,489.69965C280.137,489.72076,280.14578,489.74496,280.16998,489.74496C280.17657,489.74496,280.19022,489.741,280.20078,489.73615L280.2197,489.72736L280.24826,489.7454C280.26367,489.75552,280.2795,489.76913,280.28302,489.77576C280.29095,489.7907,280.30194,489.7951,280.32394,489.79156C280.33405,489.78983,280.35428,489.79245,280.3789,489.79907C280.41455,489.80786,280.41763,489.81006,280.4251,489.82413C280.43652,489.84744,280.45456,489.85052,280.48404,489.83426C280.50558,489.82236,280.50912,489.8215,280.53375,489.82544C280.5544,489.82852,280.56277,489.83206,280.57202,489.84216C280.5861,489.85712,280.59796,489.858,280.6217,489.84567C280.63666,489.8382,280.64413,489.83734,280.6732,489.83954C280.70572,489.8426,280.7075,489.84305,280.7154,489.85712C280.72772,489.8778,280.7431,489.88,280.77127,489.86548C280.7937,489.8545,280.7959,489.85403,280.81833,489.8593C280.85132,489.86725,280.85703,489.87076,280.85703,489.88483C280.85703,489.90683,280.8742,489.91342,280.90454,489.90286C280.91995,489.89758,280.93225,489.90286,280.95776,489.92398C280.97272,489.93674,280.97272,489.93674,280.96524,489.95038C280.95688,489.96707,280.956,489.9829,280.96347,489.9904C280.9701,489.997,280.99515,489.99744,281.0066,489.99127C281.01407,489.9873,281.0167,489.9895,281.02682,490.0049L281.03827,490.02295L281.02682,490.03482C281.02066,490.0414,281.0145,490.05286,281.01276,490.0599C281.00922,490.0788,281.02725,490.09332,281.05188,490.09155C281.0686,490.09024,281.06992,490.09113,281.07477,490.10565C281.08005,490.1206,281.07962,490.12146,281.06378,490.13687C281.04486,490.15533,281.03912,490.1725,281.04663,490.1901C281.0541,490.20767,281.07257,490.21075,281.10645,490.2002C281.1148,490.19757,281.11743,490.2002,281.1271,490.21957C281.14032,490.24463,281.14117,490.2543,281.13196,490.25784C281.1214,490.26224,281.10776,490.28818,281.10776,490.3049C281.10776,490.3172,281.11038,490.32248,281.11874,490.32822C281.1293,490.33524,281.13724,490.33524,281.18518,490.3291C281.1913,490.32822,281.20056,490.3357,281.2177,490.35593C281.24014,490.38275,281.24103,490.38452,281.2362,490.39813C281.22256,490.4351,281.2384,490.44785,281.2815,490.43378C281.2881,490.43158,281.29733,490.43597,281.31668,490.45093C281.33075,490.46237,281.3532,490.47733,281.36597,490.48523C281.38397,490.49625,281.3897,490.50195,281.39233,490.51428C281.395,490.52438,281.40027,490.5323,281.40775,490.5367C281.4183,490.54242,281.4218,490.54242,281.43854,490.53625C281.45172,490.53143,281.4614,490.53055,281.47064,490.53317C281.47812,490.53494,281.49966,490.53976,281.519,490.5433C281.5384,490.54727,281.56168,490.55252,281.5705,490.55518C281.58237,490.5587,281.59027,490.5587,281.5991,490.55518C281.60568,490.55252,281.63428,490.549,281.662,490.5477C281.71213,490.54504,281.71255,490.54504,281.71695,490.55518C281.7196,490.56046,281.72708,490.56793,281.73367,490.571C281.75128,490.57938,281.77545,490.56705,281.78778,490.5433C281.79877,490.52176,281.8089,490.5191,281.82254,490.53406C281.82825,490.54022,281.83704,490.5455,281.84232,490.5455C281.85596,490.5455,281.8533,490.55386,281.82516,490.59653C281.70773,490.77335,281.53793,490.85825,281.2991,490.85956C281.24323,490.85956,281.22784,490.85825,281.19882,490.84988C281.1324,490.83096,281.09015,490.80545,280.98108,490.71835C280.90057,490.65414,280.85703,490.62643,280.79852,490.60223C280.7396,490.57803,280.6824,490.56882,280.6358,490.5754C280.48932,490.59653,280.4207,490.7263,280.3842,491.04956C280.37012,491.17538,280.3666,491.19604,280.35605,491.20703C280.34723,491.21716,280.338,491.24136,280.338,491.25497C280.338,491.26025,280.33405,491.27258,280.32877,491.28314C280.31998,491.3016,280.3191,491.30206,280.30283,491.2994C280.29358,491.29767,280.28214,491.29898,280.27643,491.30206C280.26456,491.30865,280.25443,491.33197,280.25443,491.35394C280.25443,491.36627,280.25134,491.37375,280.24344,491.38123C280.23245,491.39136,280.232,491.39136,280.2197,491.3843C280.1924,491.36847,280.17746,491.37903,280.17087,491.41818C280.16733,491.44016,280.16428,491.4459,280.14798,491.4604C280.13742,491.4701,280.12512,491.47757,280.12027,491.478C280.0996,491.47842,280.0785,491.50613,280.0785,491.53253C280.0785,491.54794,280.0587,491.58313,280.04285,491.59677C280.02966,491.60776,280.02924,491.60907,280.02966,491.64075C280.0301,491.67813,280.0235,491.71683,280.01382,491.73178C280.00854,491.73972,280.00766,491.7494,280.0103,491.7771C280.01294,491.80878,280.0125,491.8123,280.00546,491.81494C279.98743,491.8202,279.98392,491.82462,279.9826,491.8422C279.98172,491.85452,279.9848,491.86902,279.99228,491.88574C280.00018,491.9042,280.00372,491.92313,280.00592,491.95303C280.0112,492.03088,280.0279,492.08237,280.06573,492.1382C280.08685,492.1699,280.1282,492.21124,280.1304,492.20377C280.1313,492.2011,280.12204,492.1778,280.1097,492.15186C280.08112,492.09116,280.07452,492.0542,280.082,491.9935C280.09564,491.88794,280.16293,491.75116,280.24606,491.6614C280.3112,491.5906,280.37628,491.54355,280.4946,491.4815C280.5808,491.43576,280.6103,491.4164,280.64548,491.38034C280.69342,491.33197,280.72244,491.25763,280.7339,491.1569C280.74225,491.07993,280.74753,491.0443,280.75146,491.0377C280.75674,491.0302,280.76688,491.0355,280.77963,491.05264C280.7871,491.0632,280.78754,491.06628,280.78314,491.07904C280.766,491.12698,280.79062,491.15427,280.8324,491.13315L280.85352,491.1226L280.86804,491.13535C280.88254,491.1481,280.88254,491.149,280.8764,491.16348C280.86407,491.19296,280.87244,491.22156,280.89664,491.2317C280.90805,491.2365,280.9129,491.23608,280.92917,491.22992C280.9402,491.22595,280.95117,491.21936,280.9538,491.21585C280.96127,491.2075,280.97095,491.20792,280.98767,491.21805C281.0,491.22595,281.0013,491.22815,280.99954,491.24356C280.99692,491.26422,281.00967,491.28665,281.0255,491.28973C281.03912,491.2924,281.0598,491.28403,281.073,491.2708C281.08267,491.26114,281.08267,491.26114,281.1051,491.26907C281.13416,491.27917,281.13724,491.28183,281.14032,491.29987C281.14383,491.31876,281.16626,491.33856,281.1799,491.3346C281.18912,491.33197,281.20892,491.31174,281.20892,491.3047C281.20892,491.30118,281.25598,491.3047,281.26785,491.30908C281.27094,491.31042,281.2758,491.31833,281.27887,491.3267C281.28503,491.34384,281.30612,491.35922,281.32327,491.35922C281.33868,491.35922,281.35406,491.3478,281.3611,491.3302C281.3664,491.31744,281.36948,491.31525,281.38223,491.31525C281.40158,491.31525,281.41125,491.3192,281.41125,491.32623C281.41125,491.32977,281.41653,491.33813,281.4227,491.3456C281.43106,491.3557,281.43765,491.35922,281.4482,491.35922C281.4636,491.35922,281.48163,491.34427,281.48163,491.33197C281.48163,491.31876,281.4944,491.31085,281.51508,491.31085C281.53177,491.31085,281.53442,491.31216,281.53442,491.3201C281.53442,491.32492,281.54013,491.33505,281.54718,491.34207C281.5749,491.36935,281.61536,491.35132,281.62152,491.30865C281.6246,491.28796,281.62546,491.28665,281.6426,491.28183C281.6611,491.27655,281.6611,491.27655,281.6712,491.2924C281.69806,491.3337,281.735,491.31833,281.73853,491.26468C281.73938,491.25366,281.74072,491.244,281.74158,491.24356C281.75082,491.23782,281.79877,491.21716,281.79965,491.21893C281.80054,491.2198,281.8045,491.22595,281.80844,491.23254C281.81946,491.25015,281.84055,491.26025,281.8542,491.25412C281.8687,491.2475,281.87442,491.22946,281.8709,491.19824L281.8683,491.17184L281.9026,491.149L281.9369,491.12656L281.94788,491.13666C281.97165,491.15866,281.98834,491.16217,282.00638,491.1481C282.0209,491.13666,282.0253,491.1151,282.01825,491.0861L282.01254,491.06366L282.03674,491.03946L282.0605,491.01572L282.07455,491.0289C282.09216,491.04605,282.10754,491.05002,282.1212,491.04077C282.13745,491.0302,282.14362,491.00647,282.13745,490.9783C282.1344,490.96512,282.12997,490.95367,282.12778,490.95236C282.1203,490.94754,282.12384,490.93652,282.14188,490.9097C282.16605,490.8745,282.2061,490.79578,282.2272,490.74213C282.23642,490.7188,282.24567,490.69946,282.24744,490.69946C282.24963,490.69946,282.2615,490.70737,282.27383,490.7166C282.3024,490.73816,282.3279,490.74518,282.35342,490.7386C282.36398,490.73596,282.37674,490.73288,282.38202,490.73157C282.39038,490.7298,282.39346,490.73242,282.40094,490.75046C282.4216,490.7984,282.44052,490.88858,282.44052,490.94006C282.44052,490.9669,282.4401,490.96777,282.42645,490.97348C282.3917,490.98843,282.37982,491.02713,282.39478,491.07553C282.40225,491.0984,282.40225,491.0984,282.38995,491.11862C282.37543,491.14413,282.37234,491.1459,282.36047,491.13754C282.34595,491.12744,282.33716,491.12875,282.3244,491.1437C282.31076,491.15997,282.30548,491.18417,282.31253,491.19955C282.31735,491.2101,282.3165,491.21277,282.3011,491.22815C282.2892,491.24048,282.2813,491.24487,282.27118,491.24487C282.2558,491.24487,282.24567,491.25366,282.23862,491.27258C282.23334,491.28577,282.19553,491.31174,282.07852,491.38165C282.03983,491.40454,281.9932,491.43533,281.97385,491.4507C281.92984,491.4859,281.88058,491.54,281.85727,491.57785C281.84717,491.59454,281.83527,491.60995,281.83044,491.61215C281.80756,491.62402,281.80624,491.6271,281.8089,491.66495C281.8102,491.6843,281.80978,491.70804,281.808,491.7177C281.80536,491.73355,281.80316,491.73532,281.79086,491.73663C281.74863,491.7406,281.75348,491.79953,281.79922,491.8413C281.8111,491.85233,281.81592,491.8611,281.8203,491.88266C281.82605,491.90994,281.82605,491.90994,281.81418,491.91916C281.80185,491.9293,281.7948,491.94864,281.79745,491.9649C281.80008,491.98074,281.82208,491.99966,281.8419,492.00317C281.85596,492.00537,281.86124,492.0089,281.86652,492.01947C281.8731,492.03177,281.8731,492.03397,281.86432,492.052C281.8542,492.0727,281.85507,492.085,281.8683,492.09995C281.8775,492.11096,281.9026,492.12106,281.91226,492.11798C281.91708,492.11667,281.9237,492.11975,281.92984,492.12634C281.93997,492.1369,281.93997,492.1378,281.93292,492.15536C281.92282,492.18045,281.92413,492.19363,281.93732,492.20685C281.94745,492.21695,281.95096,492.21783,281.97427,492.21564C281.99847,492.21344,282.00067,492.21432,282.01254,492.22662C282.02353,492.23807,282.02487,492.24246,282.02353,492.26227C282.02133,492.29306,282.031,492.30273,282.05872,492.29877C282.0895,492.29437,282.09085,492.2948,282.1124,492.30975C282.13263,492.32428,282.13263,492.32428,282.12997,492.3445C282.12735,492.36343,282.12823,492.36606,282.13922,492.37442C282.15375,492.38586,282.1709,492.38675,282.19202,492.37662C282.20786,492.36914,282.20828,492.36914,282.2329,492.3819C282.25314,492.39246,282.25842,492.3973,282.2593,492.40698C282.2602,492.41357,282.265,492.42236,282.2703,492.4259C282.2813,492.4338,282.30902,492.4347,282.32837,492.42764C282.33847,492.42368,282.34814,492.42413,282.36707,492.4281C282.3895,492.4325,282.39304,492.4347,282.39874,492.44788C282.40884,492.4725,282.43216,492.4734,282.46164,492.45142C282.4801,492.43777,282.5329,492.43073,282.5329,492.44217C282.5329,492.44614,282.53687,492.45404,282.54214,492.46063C282.5628,492.48703,282.60678,492.469,282.63538,492.42282C282.64594,492.40567,282.6578,492.40344,282.67102,492.41708C282.67715,492.42325,282.6864,492.4281,282.69214,492.4281C282.7062,492.4281,282.72952,492.41315,282.73874,492.39774C282.74448,492.38806,282.7484,492.38586,282.75284,492.38895C282.77,492.3995,282.80737,492.38937,282.82056,492.37003C282.8285,492.35904,282.8298,492.33704,282.82364,492.32736C282.82056,492.3225,282.83377,492.30713,282.87906,492.26358C282.94504,492.20026,283.00177,492.13382,283.03214,492.08456C283.0616,492.03662,283.0484,492.03882,282.98816,492.09158C282.90634,492.16284,282.80472,492.2108,282.68906,492.2328C282.60107,492.2495,282.46472,492.23807,282.3618,492.2055C282.291,492.18307,282.20917,492.1312,282.17044,492.08368C282.1247,492.02737,282.097,491.9548,282.097,491.89014C282.097,491.8202,282.12384,491.76434,282.18982,491.69748C282.23776,491.6491,282.26767,491.628,282.3728,491.5695C282.50696,491.49426,282.5637,491.45645,282.64066,491.3896C282.74313,491.30072,282.80692,491.1978,282.82803,491.0874C282.83508,491.0509,282.8307,490.98358,282.81882,490.94226C282.8087,490.90573,282.7792,490.84503,282.73303,490.7654C282.6873,490.68582,282.66354,490.63742,282.6455,490.58466C282.6301,490.53976,282.6266,490.5235,282.6323,490.5235C282.63364,490.5235,282.64243,490.52966,282.65167,490.5367C282.67365,490.5543,282.69257,490.56177,282.72818,490.5675C282.76645,490.57364,282.78668,490.5697,282.80164,490.55298L282.81354,490.54022L282.82452,490.55737C282.8663,490.62378,282.91293,490.75354,282.94415,490.89297C282.96924,491.00427,282.98022,491.03946,283.01233,491.10632C283.04666,491.178,283.08493,491.22726,283.14825,491.2805C283.24722,491.36365,283.34708,491.40146,283.47858,491.4063C283.56128,491.40936,283.59824,491.4041,283.65234,491.38254C283.72668,491.35263,283.78604,491.31216,283.88986,491.22067C283.94617,491.17096,283.96594,491.16086,284.0086,491.15778L284.03986,491.156L284.0381,491.1736C284.0359,491.19736,284.04733,491.2053,284.08383,491.2053C284.1142,491.2053,284.1164,491.2075,284.1164,491.24356C284.1164,491.26114,284.1155,491.26245,284.0979,491.2704C284.08734,491.2752,284.07547,491.28314,284.07065,491.28796C284.06052,491.29987,284.0601,491.33063,284.0702,491.34164C284.07724,491.34955,284.07724,491.3509,284.06757,491.3645C284.05392,491.3843,284.04733,491.3874,284.02225,491.38782C284.00247,491.38782,283.9994,491.38913,283.99014,491.40277C283.98355,491.41245,283.98004,491.42435,283.98004,491.43622C283.98004,491.45337,283.97827,491.456,283.95627,491.4723C283.93472,491.48856,283.9312,491.48987,283.91098,491.4881C283.8859,491.48547,283.87885,491.49118,283.8749,491.5167C283.87183,491.5356,283.84763,491.55496,283.83267,491.55057C283.82785,491.54926,283.81683,491.5466,283.80804,491.5453C283.79398,491.5431,283.7909,491.5444,283.7843,491.55453C283.77902,491.56244,283.77768,491.57037,283.77945,491.58093C283.7821,491.5937,283.78076,491.59677,283.77066,491.60336C283.76053,491.60995,283.75613,491.61038,283.7425,491.606C283.72052,491.5994,283.71347,491.59982,283.7051,491.60864C283.6994,491.61435,283.6981,491.6205,283.7003,491.6381C283.7029,491.6592,283.70248,491.6614,283.69016,491.67328C283.67917,491.68384,283.6761,491.68472,283.66818,491.68033C283.6629,491.6777,283.651,491.67505,283.64133,491.67462C283.61142,491.67374,283.60175,491.6988,283.61935,491.73312L283.62814,491.74982L283.6145,491.77972C283.5903,491.8334,283.5745,491.9205,283.5815,491.95963C283.5846,491.97546,283.58502,491.97546,283.59338,491.968C283.59778,491.96405,283.60175,491.9583,283.60175,491.95612C283.60175,491.94424,283.63474,491.88574,283.65674,491.85934C283.72052,491.78238,283.80936,491.73178,283.95187,491.6913C284.0526,491.66272,284.14102,491.6324,284.17575,491.61523C284.28177,491.56244,284.34158,491.5,284.37326,491.40936C284.40756,491.31174,284.40582,491.16656,284.3693,491.0566C284.3385,490.9647,284.30112,490.89783,284.25537,490.85428C284.218,490.8182,284.18677,490.80368,284.1419,490.80148C284.07678,490.79797,284.04294,490.8182,283.90305,490.9431C283.8309,491.00735,283.7953,491.03418,283.75745,491.05176C283.67477,491.0909,283.61716,491.0918,283.51422,491.0553C283.45264,491.03375,283.4126,491.01175,283.38007,490.98138C283.35675,490.95984,283.29956,490.87054,283.28638,490.83624C283.27493,490.80545,283.2534,490.7219,283.256,490.71747C283.2569,490.71616,283.27362,490.71573,283.2934,490.71704C283.32684,490.71924,283.32947,490.72012,283.3453,490.7355C283.36774,490.7575,283.38885,490.75882,283.40558,490.7386C283.41174,490.7311,283.41702,490.72232,283.41702,490.7188C283.41702,490.71573,283.42142,490.71176,283.42712,490.71045C283.4874,490.6968,283.51465,490.69064,283.51773,490.69064C283.5195,490.69064,283.52347,490.6955,283.5261,490.7012C283.53842,490.7285,283.56525,490.721,283.57053,490.6889C283.57315,490.67307,283.5745,490.67172,283.60132,490.66162C283.63385,490.6493,283.64267,490.64844,283.65015,490.65765C283.66333,490.6735,283.68753,490.6603,283.6906,490.6361C283.69147,490.62512,283.6972,490.61984,283.72403,490.60443L283.7557,490.5855L283.77155,490.59476C283.78693,490.604,283.78738,490.604,283.79572,490.59564C283.8001,490.5908,283.80585,490.5776,283.80804,490.56573C283.81024,490.55386,283.81375,490.5433,283.81595,490.54153C283.81815,490.54022,283.83224,490.52966,283.8472,490.5178C283.87137,490.49887,283.8749,490.49756,283.885,490.50195C283.89426,490.50635,283.89822,490.50592,283.90744,490.49976C283.9202,490.4914,283.93164,490.46854,283.93164,490.45135C283.93164,490.43994,283.98663,490.37042,283.9963,490.37C283.9994,490.36957,284.00333,490.3722,284.0051,490.37527C284.00687,490.37878,284.01477,490.38583,284.0227,490.39154C284.0416,490.40518,284.05743,490.4012,284.06625,490.3801C284.07327,490.36383,284.07285,490.3621,284.05392,490.29654C284.04953,490.28027,284.04996,490.27542,284.06052,490.25037L284.07153,490.2222L284.08954,490.2235C284.12387,490.2257,284.14145,490.20416,284.13663,490.1659C284.1331,490.14084,284.1199,490.11224,284.10977,490.1087C284.10495,490.1065,284.10318,490.0995,284.10318,490.08234C284.10318,490.04626,284.10715,490.03085,284.11682,490.03085C284.1309,490.03085,284.1476,490.02075,284.1542,490.008C284.16522,489.98688,284.1507,489.94598,284.1208,489.9143C284.10583,489.89847,284.10406,489.89362,284.10144,489.86636L284.09836,489.836L284.1142,489.82193C284.12738,489.80917,284.12958,489.80478,284.12958,489.78717C284.12958,489.7564,284.11462,489.73395,284.08032,489.71286C284.07327,489.70844,284.06668,489.69876,284.06403,489.6891C284.05655,489.66315,284.0579,489.65347,284.0693,489.6504C284.08514,489.6451,284.10318,489.62576,284.10318,489.613C284.10318,489.58792,284.07767,489.56372,284.0394,489.55273C284.0284,489.54965,284.02533,489.54572,284.02225,489.5303C284.0183,489.51227,284.01874,489.51138,284.03546,489.4969C284.04996,489.48456,284.05215,489.48016,284.05173,489.4652C284.05127,489.45157,284.04822,489.4454,284.03546,489.434C284.02402,489.42343,284.01962,489.4155,284.01962,489.4067C284.01962,489.3878,284.02402,489.37988,284.0337,489.37988C284.04425,489.37988,284.05963,489.37195,284.06668,489.36273C284.07416,489.35306,284.07373,489.33105,284.06537,489.3117C284.05878,489.29587,284.0592,489.2941,284.0671,489.28354C284.07416,489.2743,284.07855,489.27255,284.0935,489.27344C284.1155,489.27518,284.123,489.26508,284.1186,489.23956C284.11594,489.2246,284.1177,489.22064,284.13397,489.2004C284.15112,489.1784,284.16125,489.1727,284.16696,489.18195C284.17004,489.18723,284.19116,489.18765,284.19864,489.18283C284.2079,489.1771,284.2127,489.15732,284.2092,489.14102C284.2057,489.12653,284.20654,489.12433,284.22592,489.1054C284.23734,489.09442,284.2492,489.08517,284.2523,489.08517C284.25537,489.08517,284.26285,489.08914,284.269,489.09396C284.28442,489.10583,284.2941,489.10495,284.30508,489.09134C284.3152,489.07858,284.31653,489.06448,284.3099,489.04074C284.3055,489.02536,284.3064,489.0227,284.324,488.9972C284.3394,488.97522,284.34424,488.9708,284.3517,488.97345C284.37415,488.98047,284.39392,488.98047,284.40228,488.973C284.4177,488.95892,284.41284,488.93826,284.3882,488.9101C284.37634,488.89648,284.37634,488.89514,284.3825,488.88284C284.3878,488.8727,284.39218,488.86963,284.40228,488.86963C284.43484,488.86963,284.44363,488.8327,284.4177,488.8041C284.40405,488.78915,284.40228,488.7843,284.40228,488.76407C284.40228,488.74515,284.40405,488.73987,284.41284,488.73285C284.43396,488.71613,284.42957,488.69458,284.40228,488.6805C284.3825,488.67038,284.37985,488.65982,284.3935,488.64752C284.39835,488.64313,284.40228,488.63696,284.40228,488.63342C284.40228,488.622,284.38116,488.6057,284.36667,488.6057C284.35654,488.6057,284.34732,488.60043,284.33102,488.58594C284.30597,488.5635,284.25803,488.53888,284.22238,488.53094C284.16125,488.51688,284.04688,488.5437,283.94,488.59735C283.86566,488.6343,283.74603,488.73285,283.7029,488.79224C283.69104,488.80893,283.68094,488.82388,283.68094,488.82608C283.68094,488.8305,283.6818,488.83005,283.77286,488.76935C283.90613,488.68094,284.0328,488.62814,284.11243,488.62772C284.19116,488.62772,284.23953,488.6717,284.22635,488.73108C284.2193,488.76187,284.20612,488.78476,284.17883,488.81378C284.1476,488.8463,284.11462,488.8679,284.02664,488.91364C283.87225,488.99368,283.8164,489.03812,283.77374,489.11685C283.728,489.20087,283.71832,489.2532,283.71832,489.41946C283.71875,489.52768,283.72006,489.5532,283.72842,489.6064C283.73416,489.64026,283.7425,489.69482,283.74734,489.72736C283.75217,489.75992,283.7579,489.7938,283.76053,489.80212C283.768,489.8272,283.77066,489.93015,283.76492,489.96005C283.7491,490.0401,283.6994,490.11136,283.62463,490.16238C283.58722,490.18744,283.5595,490.19977,283.50937,490.2134C283.3704,490.25037,283.2261,490.18658,283.1034,490.03394C283.06116,489.98117,282.9899,489.87692,282.99298,489.87207C282.9943,489.86987,283.01453,489.8681,283.0383,489.8681C283.1984,489.8681,283.34048,489.7973,283.39236,489.69128C283.41348,489.64862,283.41876,489.61783,283.41525,489.55582C283.41217,489.49423,283.4047,489.46475,283.3796,489.41287C283.35278,489.35745,283.29428,489.2928,283.249,489.26947C283.24017,489.26508,283.2239,489.25363,283.21292,489.24396C283.19797,489.23077,283.1874,489.22592,283.172,489.2233C283.16013,489.22195,283.13507,489.21667,283.1157,489.21228C283.06952,489.2013,282.9943,489.19733,282.94196,489.2035C282.90985,489.207,282.89975,489.207,282.89667,489.2026C282.89005,489.19336,282.8971,489.09442,282.90677,489.05966C282.91733,489.0227,282.9292,489.00247,282.9556,488.97653C282.9842,488.94925,283.0075,488.94,283.04974,488.94C283.1056,488.94,283.1443,488.9607,283.24988,489.0456C283.34488,489.12167,283.4025,489.14148,283.47375,489.12256C283.5063,489.1142,283.50937,489.10938,283.4865,489.1032C283.4645,489.09747,283.4267,489.07462,283.42273,489.06494C283.42142,489.0614,283.42273,489.0535,283.4258,489.0478C283.43372,489.03284,283.42932,489.0262,283.40732,489.0205C283.38226,489.01392,283.3717,488.9985,283.37128,488.96948C283.37082,488.95276,283.36862,488.94617,283.36072,488.94C283.34885,488.93033,283.33694,488.8991,283.3374,488.8793C283.3374,488.86877,283.33432,488.86127,283.32507,488.85294C283.31848,488.8463,283.30222,488.82523,283.289,488.80585C283.24503,488.74075,283.19092,488.6959,283.13287,488.6761C283.03564,488.64267,282.8905,488.70425,282.74402,488.8415C282.73083,488.85425,282.71237,488.8705,282.70355,488.87845C282.69476,488.88593,282.68597,488.89648,282.6842,488.90173C282.6798,488.91495,282.63715,488.97522,282.6235,488.9871C282.61734,488.99237,282.61118,489.00247,282.60986,489.00906C282.60504,489.03107,282.59448,489.057,282.57468,489.09616C282.56192,489.1208,282.5549,489.1406,282.5549,489.1507C282.5549,489.17358,282.54654,489.19998,282.5364,489.2114C282.52673,489.22153,282.52496,489.23297,282.52982,489.2567C282.53333,489.27563,282.53247,489.27695,282.5008,489.2976C282.47702,489.31302,282.47308,489.31433,282.4348,489.3161C282.3653,489.31918,282.31253,489.3425,282.2747,489.38736C282.23907,489.43002,282.22235,489.46872,282.2074,489.5435C282.20258,489.5668,282.19595,489.59366,282.19202,489.60287C282.181,489.62927,282.15768,489.66577,282.15155,489.66577C282.14493,489.66577,282.12955,489.61783,282.12604,489.58353C282.12207,489.55185,282.13263,489.4938,282.1502,489.44498C282.1665,489.401,282.19067,489.3583,282.25623,489.2611C282.31912,489.167,282.33585,489.1371,282.353,489.0869C282.37192,489.0315,282.37894,488.99017,282.37894,488.9356C282.37894,488.8098,282.32925,488.68402,282.24304,488.5921C282.19067,488.5358,282.12866,488.5129,282.03235,488.5138C282.00638,488.51422,281.97076,488.51688,281.95316,488.5204 Z M280.87286,488.84897C280.87463,488.85028,280.87332,488.85776,280.87024,488.86523C280.86584,488.87537,280.86584,488.88153,280.86935,488.88943C280.87595,488.90396,280.8922,488.90396,280.91687,488.88943C280.93314,488.87976,280.9371,488.87888,280.945,488.88373C280.95557,488.89032,280.95557,488.89075,280.94678,488.91144C280.93402,488.94223,280.9538,488.9598,280.98898,488.94925C281.01056,488.94266,281.00836,488.94177,281.02332,488.96246C281.0352,488.97827,281.03607,488.9818,281.0321,488.99368C281.02594,489.01126,281.033,489.0262,281.05188,489.0337C281.06772,489.04074,281.07257,489.04953,281.08356,489.09134C281.0893,489.11462,281.0893,489.1186,281.08356,489.12784C281.07388,489.14236,281.07565,489.15686,281.08795,489.16873C281.0985,489.1784,281.09897,489.18195,281.09897,489.22415C281.09897,489.26508,281.09808,489.27124,281.08795,489.28574C281.07477,489.30554,281.07477,489.30685,281.08575,489.3174C281.0937,489.3249,281.095,489.33017,281.0937,489.3561C281.09238,489.38428,281.0915,489.3869,281.08047,489.39218C281.06772,489.39792,281.0607,489.41418,281.06552,489.42606C281.06686,489.43002,281.07388,489.4353,281.08136,489.4375C281.09457,489.44232,281.09457,489.44278,281.09457,489.4753C281.09457,489.50568,281.0937,489.5092,281.08313,489.51712C281.0686,489.529,281.06244,489.54483,281.06818,489.55624C281.07388,489.56638,281.07346,489.56638,281.0378,489.55624C280.96832,489.536,280.86276,489.53162,280.73608,489.54483C280.62524,489.55624,280.54474,489.5576,280.49194,489.54965C280.42245,489.5391,280.37494,489.52634,280.33582,489.50745C280.22363,489.45377,280.20032,489.36844,280.2619,489.23428L280.2773,489.19998L280.30676,489.19073C280.3697,489.1705,280.44315,489.12213,280.5254,489.04733C280.55133,489.02316,280.57376,489.00644,280.57684,489.00775C280.5795,489.00906,280.58563,489.0126,280.5896,489.0157C280.60236,489.0249,280.6173,489.01392,280.6239,488.99103C280.62698,488.98004,280.62833,488.9677,280.62656,488.96378C280.6248,488.95938,280.62698,488.95276,280.63095,488.94794C280.63843,488.94,280.63885,488.94,280.6468,488.94882C280.6569,488.95938,280.66483,488.9598,280.6811,488.95013C280.69736,488.9409,280.71188,488.9145,280.71188,488.8947C280.71188,488.88458,280.71454,488.87845,280.71893,488.87668C280.73035,488.87228,280.7339,488.8736,280.7339,488.88284C280.7339,488.88766,280.73828,488.89603,280.7431,488.90088C280.7629,488.92065,280.80734,488.89648,280.81833,488.85953L280.8236,488.84238L280.84692,488.84412C280.85968,488.84546,280.87155,488.84766,280.87286,488.84897 Z M281.10556,489.56946C281.10995,489.57605,281.1051,489.57956,281.09677,489.57605C281.0928,489.57474,281.09103,489.57166,281.09238,489.569C281.0959,489.5633,281.10205,489.5633,281.10556,489.56946 Z"/> </g> </g> </svg>