<?xml version='1.0' encoding='utf-8'?>
<svg xmlns="http://www.w3.org/2000/svg" version="1.1" width="600px" height="976px" viewBox="0 0 600 976"> <g id="layer1"> <g> <g style="fill:rgb(0,0,0); fill-opacity:1.0; stroke-linejoin: miter"> <path d="M276.84274,42.2935C272.254,42.61247,263.06232,44.34367,262.3381,45.049236C262.0825,45.29838,261.57562,45.460003,261.1972,45.45512C260.77667,45.449627,260.39597,45.612835,260.30914,45.822063C260.13434,46.32451,253.95413,49.356613,253.28235,49.263718C252.98798,49.259933,252.81924,49.29985,252.94376,49.427536C253.06827,49.555344,252.47073,50.22051,251.57892,50.882008C250.72906,51.543873,249.7089,52.371876,249.36804,52.703907C249.0278,52.993824,248.0917,53.822926,247.28392,54.485405C246.5182,55.14837,245.66515,56.062675,245.36473,56.521294C245.10637,56.980766,243.86333,58.77313,242.57823,60.565C240.56456,63.398987,240.22432,63.689026,239.68416,63.177307C239.22813,62.666565,238.63994,62.617004,236.91191,62.888855C234.97252,63.24225,234.6787,63.19635,234.0583,62.3891C233.64433,61.878963,232.8502,61.49017,232.17738,61.48138C231.54657,61.4732,230.2915,60.952084,229.41608,60.351864C228.0824,59.409237,227.74701,59.320736,227.19485,59.734188C226.64218,60.189754,226.09546,60.182674,224.2511,59.695858C221.94531,59.119198,219.92346,59.345272,221.09167,60.075497C221.42538,60.289974,220.66678,60.40643,218.94205,60.42596C217.47012,60.406796,215.7039,60.383846,214.98842,60.416683L213.7263,60.44244L215.14629,61.21783C216.10693,61.735165,216.39697,62.075256,215.97423,62.2381C215.5515,62.40094,215.6345,62.486023,216.22275,62.535828C216.68475,62.583923,216.05069,62.828064,214.82732,63.106506C213.60445,63.342957,212.54823,63.707825,212.54494,63.960144C212.50014,64.16974,211.98787,64.752014,211.39311,65.20697C210.79887,65.61981,210.16096,66.158264,210.03209,66.367004C209.9037,66.53351,209.60774,66.65582,209.39796,66.611145C208.8109,66.477234,206.06044,67.74542,205.4204,68.452095C204.99275,68.993355,204.9911,69.11945,205.53777,69.12653C206.5891,69.140205,205.94518,70.141304,204.33626,70.96162C201.96486,72.192696,202.57323,73.924995,204.9441,72.73603C206.25594,72.12226,206.50719,72.20954,205.7813,73.04133C203.68788,75.53779,203.13084,76.32979,203.0396,76.87532C202.99315,77.211136,202.47865,77.9615,201.92436,78.54329C200.81569,79.7065,201.05815,80.46675,202.33012,79.68416C202.79655,79.39583,203.17717,79.2325,203.17607,79.316605C203.16951,79.821365,201.62175,82.40877,201.06953,82.82222C200.55943,83.23616,200.51631,83.31978,200.97841,83.367874C201.35686,83.37288,201.39674,83.54158,201.14003,83.87471C200.49828,84.7076,200.09462,86.63717,200.51189,86.89486C200.72002,87.06588,200.97395,86.94308,201.06187,86.64974C201.19188,86.35702,201.26997,86.82064,201.30162,87.62032C201.33058,88.63009,201.0247,89.50936,200.46977,90.13302C199.40314,91.29684,198.7958,92.719086,198.77939,93.98068C198.76846,94.82175,198.85312,94.78073,199.62488,93.655C200.13939,92.904755,200.36055,92.066376,200.24092,91.56014C200.07875,91.0953,200.12352,90.885704,200.33159,91.0566C200.7882,91.52511,200.83025,94.76437,200.37144,94.46396C200.20485,94.33566,200.03392,94.54379,200.029,94.92209C200.0241,95.30063,200.23216,95.47165,200.44408,95.348236C201.07979,94.978,200.94215,95.85947,200.20921,97.23801C199.56253,98.44919,198.97261,101.764366,198.39308,107.51901L198.10252,110.45944L198.91685,109.29257C199.5165,108.458954,199.81361,108.25253,199.97636,108.675385C200.09868,108.97128,200.22704,108.80466,200.23415,108.257904C200.2888,107.29147,201.09276,106.92331,201.16478,107.84946C201.23521,108.90207,201.0042,110.497284,200.70433,110.91391C200.5334,111.12204,200.46892,112.845795,200.529,114.69724C200.58907,116.54868,200.64748,118.52622,200.63982,119.11497C200.6458,121.89109,199.817,143.58362,199.6198,145.81018C199.47069,147.57483,199.5078,147.95374,199.72954,147.07336C200.08186,145.85828,200.12337,145.90088,200.14357,147.5835C200.131,148.55078,199.98839,149.81079,199.72844,150.39624C199.51051,150.9823,199.18227,153.58557,199.0222,156.19142C198.8621,158.79701,198.5317,161.56874,198.27003,162.28041C198.00792,163.03407,197.73589,164.5447,197.67964,165.63747C197.5808,166.77187,197.22359,168.36562,196.83305,169.28578C196.40108,170.16335,196.09245,171.25307,196.08699,171.6736C196.08153,172.09413,195.64241,173.51845,195.1208,174.81546C194.2098,176.94876,193.91164,177.23941,191.58337,178.38675C189.12784,179.61673,185.86353,181.59317,184.58768,182.67007C184.24689,183.00223,182.50409,184.40958,180.76129,185.81693C176.89294,188.96329,169.01299,196.5579,167.51436,198.59953C166.91518,199.3908,166.18169,200.81133,165.87529,201.73259C165.56892,202.65398,164.83272,204.28484,164.27177,205.37114C162.67424,208.54692,162.40282,210.01555,162.78123,213.2591C163.0051,215.44913,162.88925,217.88712,162.32831,222.21207C161.90723,225.48735,161.43747,232.50517,161.2839,237.8449C160.94733,247.5567,161.42184,256.35358,163.04703,270.46478C164.17908,280.44797,164.29434,278.05197,161.92438,292.11154C161.28485,296.0148,160.36938,301.7231,159.8669,304.78708C159.36491,307.80887,158.86409,310.74655,158.73082,311.29172C158.4659,312.25552,157.19872,322.37573,155.91895,333.46304C155.53882,336.8229,154.9248,341.98837,154.50702,345.01126C154.13174,347.99277,153.5632,352.90646,153.27148,355.931C153.0224,358.9141,152.30905,365.2559,151.74265,370.00137C150.37274,381.55026,150.3891,383.52725,152.0839,418.16522C152.41092,425.36182,152.96472,431.29956,153.55557,434.37762C153.75217,435.43173,154.14209,437.79214,154.37033,439.64572C154.59859,441.4993,155.1491,444.45078,155.54723,446.1804C155.98735,447.91068,156.37837,450.18698,156.49144,451.19797C156.5624,452.20828,156.82835,454.3989,157.01729,456.04166C157.24834,457.68503,157.5825,461.09634,157.8015,463.66483C158.02098,466.1913,158.42674,470.57095,158.76918,473.35135C159.06947,476.13126,159.4081,479.2061,159.52165,480.175C159.63414,481.22797,160.16441,482.4967,160.78535,483.26178C161.73729,484.45184,161.81706,484.78943,161.5363,486.9729C160.74376,492.93524,160.74156,493.1034,161.59132,495.6801C162.76717,499.0603,163.93425,503.11328,164.65074,506.23505C164.9691,507.6272,165.49614,509.14825,165.78453,509.6147C166.0308,510.0805,166.52068,511.22253,166.76094,512.151C167.40538,514.34656,170.47359,517.7512,172.52492,518.4929C173.40422,518.79877,175.07542,519.6617,176.24368,520.3919C177.41238,521.08014,178.74881,521.81244,179.2518,521.94525C180.0055,522.20734,180.08582,522.5028,179.84766,524.64484C179.74658,525.9474,179.43033,527.62573,179.21133,528.29584C178.33365,531.10254,177.91681,540.5186,177.89963,558.01556C177.90271,570.7179,177.71967,578.3284,177.32745,582.6135C176.69168,589.4611,175.8742,623.22516,176.36899,623.98865C176.53342,624.2852,176.9108,624.3742,177.24832,624.29456C177.75568,624.0908,178.27618,622.8778,179.11343,619.94446C179.24619,619.44147,179.84692,618.5239,180.44336,617.9429C181.93378,616.53217,188.4527,613.3362,191.3642,612.61694C192.63017,612.29694,194.02397,611.85236,194.44722,611.6475C194.8705,611.44275,196.6422,611.04517,198.37022,610.77325C200.09825,610.5012,201.82793,610.10315,202.20857,609.9398C202.84315,609.65375,212.99828,608.22943,217.6728,607.7855L219.44173,607.59827L219.50237,609.4076C219.53127,610.41736,219.58968,612.39496,219.65578,613.7839C219.67976,615.1722,219.76875,618.0335,219.82607,620.0952C219.8408,622.19836,220.06795,624.13617,220.23238,624.43274C220.43828,624.77185,220.25798,625.6948,219.78233,626.6981C219.04665,628.28687,219.04445,628.4551,219.70198,629.6413C220.52446,631.08203,220.57246,633.8587,219.84062,635.153C219.58177,635.65436,219.30537,637.5014,219.19887,639.22455C219.13438,640.9482,218.84874,643.5102,218.57835,644.8947C216.64326,654.62756,214.38289,686.14355,214.66612,699.943C214.79219,706.42206,216.35887,725.03314,216.85313,725.8387C216.93504,726.00806,217.28673,728.07355,217.6335,730.5176C217.98085,732.91956,218.528,736.1232,218.84477,737.6415C219.16151,739.15985,219.67375,741.81635,219.98775,743.54486C221.79811,753.11615,222.1924,755.1402,223.1443,759.5689C223.6986,762.2259,224.45337,765.64264,224.77011,767.16095C225.08685,768.67926,225.60678,770.74695,225.92953,771.80273C226.21024,772.85785,227.13754,775.9403,227.94305,778.68475C228.7901,781.4717,229.67972,784.21716,230.00848,784.8103C230.33676,785.4455,230.5792,786.2057,230.57538,786.50006C230.57156,786.7945,230.9364,787.85065,231.34378,788.8655C231.7938,789.8386,232.3601,791.57056,232.63919,792.7519C232.91882,793.8911,233.36444,795.2008,233.6528,795.66724C234.76526,797.4482,235.91483,802.8469,235.79138,805.87366C235.66196,809.36304,236.27304,810.88513,238.35492,812.5105C239.6875,813.53723,239.76834,813.79065,240.42038,818.6361C240.84528,821.5438,241.056,824.74316,240.90964,826.2975C240.61356,829.65857,241.09906,834.3756,241.91824,836.06866C242.24536,836.78796,242.40485,837.46295,242.23444,837.629C242.02252,837.75244,241.2153,838.3728,240.36606,838.9927C237.22458,841.22314,235.7641,846.7982,237.0491,851.48364C237.61163,853.5098,237.64444,854.2253,237.20203,855.902C236.89291,857.03357,236.41333,858.3312,236.11295,858.79C235.2533,860.20886,233.65134,866.95984,233.43723,870.4901C233.13293,874.48193,233.50272,875.15967,236.67471,877.0516C239.05371,878.4705,242.19351,879.60486,247.47476,881.0195C249.23495,881.505,252.33487,882.4707,254.38675,883.1703C256.4381,883.912,260.08414,884.92676,262.51724,885.4211C267.29877,886.4506,272.70618,887.8669,274.04422,888.47314C275.17365,888.95044,278.35822,889.8751,284.9387,891.64307C289.92612,893.0118,290.93433,893.109,296.90533,893.22876L303.42365,893.3135L306.17566,891.9192C312.06046,888.9673,316.43573,882.42065,316.08575,876.99036C315.84387,872.9494,313.24365,869.1301,308.8625,866.42334L306.31802,864.792L300.9756,864.8487C295.844,864.86615,295.63428,864.8213,295.0155,863.88794C292.5803,860.32324,289.8272,855.3243,289.83868,854.44116C289.8425,854.14685,289.07086,852.0337,288.1752,849.7508C286.99335,846.83325,286.39212,844.5542,286.12833,842.1954C285.8334,838.995,284.9078,835.7864,283.03183,831.26154C281.39948,827.4128,281.2351,823.87756,282.32092,818.0032C283.27072,812.8841,283.79666,811.2506,284.46954,811.25934C284.6798,811.2621,285.31717,810.7657,285.95563,810.1851C286.8508,809.2714,287.06873,808.68536,287.09006,807.04535C287.10425,805.95184,287.28992,804.60834,287.5073,804.0645C287.72464,803.5205,288.17307,801.3813,288.4522,799.3239C289.236,794.0345,290.37915,790.22186,297.89822,768.3219C300.3467,761.1614,302.88422,753.6234,303.54178,751.57104C304.19992,749.4766,305.1197,746.6705,305.5583,745.2882C307.8363,738.29364,308.36285,736.6181,309.33667,732.88745C309.9123,730.66565,310.71085,727.47943,311.1117,725.7602C311.47067,724.0404,312.27405,720.4757,312.89728,717.834C313.4784,715.1917,314.28458,711.4168,314.6467,709.44464C315.05087,707.473,315.63583,704.53644,316.03506,702.9433C317.0624,698.3301,318.13077,690.56274,319.4302,677.9614C320.52975,667.79706,321.7789,659.0647,322.38242,657.937C322.72702,657.3105,323.1329,655.2127,323.28366,653.322C323.48685,650.6328,323.7523,649.6267,324.52292,648.5853C325.42136,647.41925,325.51254,646.87366,325.4656,644.01294C325.41702,641.2783,325.50992,640.6066,326.23685,639.69073C326.96323,638.81683,327.05496,638.2292,326.87698,635.7453C326.69894,633.2615,326.83383,632.5902,327.65256,631.08673C328.17087,630.0419,328.5242,628.7427,328.49258,627.9431C328.4183,627.18506,328.59964,626.178,328.85794,625.71857C329.1163,625.25934,329.43033,623.7492,329.57455,622.36316C329.76132,620.9355,330.16342,619.1321,330.51016,618.33746C330.8575,617.50073,331.29935,615.86615,331.48343,614.6488L331.80624,612.4659L334.99905,612.7597C336.76303,612.95087,339.91324,613.28625,342.05527,613.5244C344.19724,613.7626,346.12955,613.95593,346.3818,613.9592C346.6342,613.96246,346.77335,616.1935,346.76407,620.14703C346.71927,623.59546,346.83273,627.8029,346.97855,629.5294C347.24075,632.0144,347.1467,632.7702,346.72134,633.1432C346.33896,633.4327,346.11447,634.5233,346.09262,636.20544C346.0538,639.1913,346.718,639.87286,348.33505,638.42175C348.84573,637.96576,349.48196,637.55334,349.73434,637.55664C350.4492,637.5659,358.75735,629.388,359.96,627.46893C360.69022,626.3007,364.38333,623.69885,367.3461,622.26526C371.96005,620.01196,371.91684,620.09546,371.60733,611.5532C371.44846,607.5975,371.134,602.67224,370.95053,600.60895C370.72556,598.50305,370.26248,592.0617,369.87473,586.2944C369.00278,572.4871,368.5419,565.8777,367.89426,557.4571C367.60757,553.6259,367.10135,547.2681,366.85782,543.3534C366.57278,539.396,366.09988,533.7117,365.76022,530.72095C365.4211,527.6882,364.97122,520.2376,364.71457,514.09344C363.72968,489.55945,362.9839,472.51523,362.75726,470.53543C362.64636,469.35623,362.2057,464.4294,361.84802,459.5878C360.9077,447.7986,359.761,435.7123,359.25146,432.84558C359.05762,431.58124,358.59882,428.04224,358.25922,425.05145C357.9621,422.0193,357.50177,418.60638,357.3062,417.46814C357.11127,416.28796,356.8012,411.02637,356.65924,405.7669C356.47577,400.46497,356.15796,395.7921,355.9532,395.3689C355.70636,394.94507,355.3579,392.6272,355.13623,390.26892C354.9566,387.9112,354.5662,385.59274,354.36136,385.16953C353.8693,384.19577,352.6268,379.46884,351.6373,374.70303C351.24252,372.72116,350.68484,370.31638,350.4036,369.3033C350.1218,368.33218,349.96512,367.44693,350.09286,367.32248C350.17868,367.19736,351.14914,366.95767,352.1611,366.76053C358.19168,365.53494,360.68106,364.93637,365.1579,363.52255C372.25348,361.2594,374.71228,359.7771,380.54956,354.0066C383.27704,351.266,385.82928,349.07,386.2918,349.076C387.17554,349.0454,388.53326,348.13782,388.5409,347.54907C388.54364,347.3388,389.85767,346.55676,391.46497,345.86255C394.55347,344.47266,396.80963,342.399,398.2755,339.6421C398.75012,338.7229,399.43396,337.89056,399.77197,337.76874C400.40607,337.5246,402.33075,335.06805,405.4592,330.60828C406.44443,329.23303,408.03867,326.30957,408.99228,324.13477C409.98795,321.96063,411.10867,319.8721,411.5336,319.54123C411.9164,319.2097,413.02725,317.8782,413.92685,316.62796C415.7679,314.1284,418.58334,311.0945,421.22128,308.77347C424.6675,305.7479,429.3563,300.97177,430.55612,299.26297C431.41312,298.05435,431.89267,296.75662,432.08218,295.11868C432.3187,293.103,432.53494,292.6431,433.42404,292.19193C435.32907,291.24936,443.73978,288.1201,446.31436,287.43845C447.70755,287.03598,449.18597,286.5505,449.56726,286.34518C449.99048,286.14035,450.53937,285.97922,450.83374,285.98312C451.1281,285.9869,451.97302,285.70334,452.65082,285.3336C454.1336,284.5117,456.19965,284.1179,461.92926,283.39328C466.01563,282.89975,468.5896,282.2601,469.56665,281.51584C470.2461,281.01987,477.46735,278.80038,479.40558,278.53134C480.71198,278.33786,481.0943,278.04843,481.487,276.96002C482.18335,275.16046,482.18335,275.16046,480.93713,273.96652C480.31396,273.36948,480.06763,272.90366,480.362,272.90756C480.65637,272.91135,481.24896,272.62473,481.67444,272.25156C482.56793,271.46408,489.97644,271.01364,500.9955,271.07272C504.82297,271.08054,509.57718,270.9741,511.59738,270.8741C514.8809,270.6644,515.38776,270.50278,516.622,269.38327C517.3461,268.67758,518.20197,267.55307,518.5478,266.8425C519.1551,265.42038,520.4222,265.0162,524.33307,265.0671C525.46857,265.08188,526.3123,264.88242,526.3156,264.6301C526.32,264.29367,524.1757,264.22385,518.87494,264.3231C514.752,264.39572,506.29648,264.49606,500.02896,264.54074L488.6712,264.64548L491.5866,263.63193C493.1922,263.06393,494.80014,262.32773,495.14096,261.9957C496.41843,260.79245,495.32834,260.52597,489.1454,260.52975L483.0465,260.53464L483.06183,259.35703C483.08203,257.801,482.2437,257.57993,480.4638,258.60825L478.98096,259.43027L477.857,258.53232C476.31696,257.29245,472.36664,257.03085,472.35187,258.16635C472.33716,259.30173,471.48834,259.8796,470.61127,259.4056C470.15143,259.18918,469.10663,258.67087,468.26996,258.32358C467.35022,257.89096,466.43542,257.08005,466.02588,256.2335C465.65668,255.51364,465.0794,254.6229,464.78937,254.28256C464.4568,253.98386,463.71185,253.0488,463.133,252.28427C461.43823,249.99094,456.89157,247.07175,453.37167,246.05855C449.51694,244.91487,439.13638,244.2751,434.66995,244.89009C429.86606,245.58467,424.67648,246.82112,422.6448,247.80405C419.72504,249.15414,415.30237,252.88217,413.03467,255.83896C411.92157,257.3387,410.9806,258.54623,410.89655,258.54514C410.81238,258.54404,410.31042,258.32724,409.72498,258.06723C408.88885,257.6777,408.38367,257.71323,407.19904,258.2446C406.3531,258.61227,405.67365,259.10825,405.6709,259.31845C405.66766,259.57077,405.20288,259.733,404.61414,259.7253C403.98328,259.71713,403.56604,259.4592,403.57037,259.1229C403.57422,258.82846,403.16077,258.27634,402.66052,257.93332C401.49347,257.119,399.8031,257.72787,399.78778,258.9055C399.78015,259.49423,399.56824,259.61752,398.77203,259.39682C397.13684,258.99728,396.16302,259.48923,396.06195,260.79172C395.8058,264.3215,396.39886,263.99277,389.62122,264.4515C386.2536,264.66013,383.39072,264.8751,383.2225,264.8729C383.01175,264.91232,382.88223,265.16293,382.87784,265.49936C382.8735,265.8358,384.1275,266.441,386.05432,267.0549C387.77185,267.58188,389.11102,268.10422,388.98322,268.2285C388.85547,268.35312,384.35187,268.58896,378.96683,268.68723C373.58127,268.82748,368.65775,269.01584,368.02475,269.17587C366.88602,269.41342,366.84457,269.37094,366.8665,267.6888C366.8867,266.13278,366.4727,262.38388,365.3652,253.74716C364.78854,249.57565,362.0804,234.65096,360.6523,228.02899C359.26407,221.57562,357.57925,215.28668,355.39645,208.4865C353.17203,201.64384,352.06833,199.18999,350.52872,197.90813C349.8215,197.3101,348.91324,195.99455,348.50583,194.97966C347.56815,192.69621,345.2448,190.22647,342.94666,189.06094C341.98596,188.54385,340.85925,187.85611,340.48523,187.51492C339.0302,186.19193,333.9817,183.05606,330.97302,181.54471C325.03857,178.60745,311.6422,173.76468,306.48325,172.64613C305.09933,172.33363,302.92236,171.54811,301.62692,170.9004C300.37405,170.2112,298.40848,169.34438,297.23596,168.9507C295.18408,168.25099,295.14255,168.20851,294.6685,165.84682C294.39108,164.53944,294.07327,163.10524,293.95203,162.72511C293.67078,161.71193,295.32123,160.93422,296.49158,161.49623C296.95093,161.75465,298.3348,162.06691,299.4687,162.2079C300.64398,162.3915,303.03497,162.88515,304.8793,163.37184C311.12457,165.05128,315.0459,164.30312,316.0525,161.28798C316.3147,160.5342,316.50967,158.47586,316.44907,156.66641L316.40768,153.38516L318.40817,151.56044C320.7075,149.40321,321.27548,147.77016,320.33237,145.90724C319.9233,145.01869,319.84848,144.30287,320.10898,143.67506C320.32578,143.17336,320.59018,142.25148,320.72507,141.5801C320.94736,140.65773,321.24448,140.45131,322.2958,140.46498C323.59946,140.48195,325.63882,138.91017,325.65195,137.9009C325.6558,137.60658,325.37173,136.8036,325.0441,136.12636C323.73172,133.54358,324.3735,132.7107,327.9518,132.46277C330.85678,132.24829,332.42587,131.25928,333.29538,129.08337C334.03488,127.200195,333.55484,125.30127,331.69308,122.921745C331.0732,122.07238,330.00443,120.165764,329.35068,118.68517C325.46982,109.84398,325.54794,110.307724,327.41965,108.69176C329.12094,107.24168,330.0226,105.82334,329.48032,105.479836C329.2717,105.35093,328.6376,105.59507,328.04282,106.050026C326.59824,107.16685,326.06253,106.3187,327.34158,104.98936C327.8959,104.40769,328.44754,104.036354,328.57205,104.16416C329.1149,104.465675,329.14987,101.77427,328.85025,89.23629C328.65048,81.95711,328.71164,80.485916,329.2239,79.90376C329.60788,79.48811,329.74222,78.85884,329.5811,78.30989C329.4189,77.84529,329.51126,77.21565,329.7253,76.923904C329.93942,76.63216,330.24582,75.711006,330.4255,74.830025C330.6511,73.65522,330.61398,73.27619,330.15134,73.27021C329.7308,73.26472,329.48727,72.58857,329.38132,71.03095C328.8118,63.074036,317.6503,51.320362,306.14465,46.628098C302.21188,45.0208,293.5713,43.184006,287.77338,42.688034C286.72314,42.590256,284.83292,42.39738,283.5729,42.254925C282.313,42.112225,279.28406,42.157024,276.84274,42.2935 Z M237.25636,78.455765C237.20445,79.212234,236.13618,80.50215,235.84618,80.16182C235.67958,80.03352,235.55122,80.20003,235.54631,80.57857C235.5414,80.95711,235.1558,81.498856,234.68886,81.82918C233.7129,82.48958,232.75813,84.7485,233.0826,85.67794C233.24586,86.05868,233.11806,86.18319,232.74174,86.00997C232.23936,85.83517,232.15034,86.21261,232.33327,88.31808C232.59373,90.92916,231.9017,92.3923,231.46759,90.199425C231.19012,88.89205,231.51022,83.68074,231.96576,80.994705C232.2831,79.232376,233.73042,77.905106,234.64793,78.505936C234.89864,78.63533,235.19353,78.597244,235.365,78.347C235.75117,77.76326,237.26402,77.86702,237.25636,78.455765 Z M232.56093,93.45236C232.42815,93.955536,232.21407,94.24704,232.08958,94.119354C231.88257,93.864105,232.31953,92.608,232.6139,92.611786C232.69801,92.612885,232.69307,92.991425,232.56093,93.45236 Z M240.921,120.101295C240.91826,120.31162,240.7058,120.47703,240.41145,120.47312C240.1591,120.469826,240.61516,120.98057,241.49004,121.6229C242.98866,122.820045,242.98866,122.820045,242.70518,125.21373C242.51567,126.85167,242.58937,127.65172,242.88374,127.6555C243.13606,127.6588,243.34361,127.87193,243.34032,128.12437C243.3376,128.33458,243.16826,128.41649,242.91762,128.28697C242.70897,128.15819,242.49709,128.28148,242.45119,128.57542C242.44737,128.86974,242.23979,128.6566,241.95311,128.06407C241.70842,127.47203,241.17815,126.203354,240.72865,125.188095C240.07442,123.7495,240.03835,123.286354,240.46544,122.78721C240.93513,122.24656,240.89366,122.20396,240.38683,122.36558C239.92204,122.52769,239.5479,122.1865,239.18205,121.21421C238.8975,120.45347,238.61296,119.69285,238.5305,119.56553C238.44801,119.43833,238.9532,119.40269,239.66649,119.538185C240.33827,119.63096,240.92372,119.89109,240.921,120.101295 Z M244.29109,132.63695C245.15184,134.37267,245.7094,136.77745,245.32384,137.31921C245.06548,137.77856,243.88197,134.98717,243.08086,131.90623C242.71928,130.59776,243.51228,131.07066,244.29109,132.63695 Z M242.35826,135.72447C241.79842,136.72655,241.87819,137.06407,242.55812,136.52623C242.9836,136.15318,243.2747,136.40929,243.80223,137.88818C244.77599,140.63489,244.57387,143.23999,243.31227,143.22363C242.97581,143.21924,242.72026,143.46826,242.71587,143.80469C242.7093,144.30933,239.4493,145.94946,239.07524,145.60803C238.99275,145.48071,240.36586,140.15698,240.9333,138.56604C241.15068,138.0221,241.19273,138.0227,241.52208,138.57373C241.68587,138.91235,241.96605,140.00952,242.12117,141.021C242.27681,141.99048,242.56184,142.7091,242.7743,142.54358C243.41005,142.17346,243.21349,141.11926,242.15068,138.75012C241.45601,137.18494,241.21678,136.17235,241.39702,135.24925C241.61986,134.28477,241.7903,134.11876,242.20589,134.50279C242.53792,134.84349,242.6166,135.26512,242.35826,135.72447 Z M368.79254,274.82208C370.29224,275.93512,371.5943,276.07806,380.43097,275.7724C384.59644,275.6584,393.01147,275.4312,399.15454,275.25873C405.29767,275.08624,411.52536,274.87274,413.04044,274.8084L415.77603,274.6756L414.0847,275.3687C413.15402,275.77716,412.14145,276.01642,411.84866,275.8864C411.5554,275.79852,411.34402,275.87982,411.42545,276.09125C411.50626,276.34467,407.54062,280.4991,402.599,285.31406C395.78192,292.03915,393.05933,294.40115,391.239,295.30283C389.92603,296.00076,388.3548,297.15805,387.75616,297.90744C386.8152,299.1149,386.3919,299.31973,384.75122,299.34048C382.64746,299.3972,379.5595,300.74503,377.4339,302.48398C375.98877,303.6429,373.66492,304.45395,373.33557,303.9028C373.2116,303.73294,372.85333,302.17215,372.53882,300.4855C372.18268,298.75644,371.3089,294.79135,370.5924,291.6696C369.03705,285.12997,367.50854,276.52972,367.80945,276.02887C367.9378,275.86237,367.857,275.60895,367.60687,275.43744C367.18958,275.17963,367.03723,273.95795,367.4157,273.96283C367.54187,273.96442,368.16772,274.35114,368.79254,274.82208 Z M208.1867,357.14963C209.35217,358.09006,211.646,359.59207,213.31717,360.455C215.82343,361.79147,216.32202,362.26053,216.3111,363.1016C216.30399,363.64835,216.12543,364.44516,215.9097,364.86295C214.14392,368.03665,212.70474,371.97165,211.1973,377.9246C210.84122,379.4341,210.10223,381.27518,209.6293,382.0682C208.46982,383.90378,208.0563,386.59027,208.44131,389.32928C208.63571,390.55164,208.57294,392.1491,208.35172,392.98743C208.13052,393.82574,207.249,396.92676,206.45267,399.94476C203.89218,409.24884,203.04614,412.8551,202.75723,415.66943C202.5682,417.2652,201.77411,420.115,200.81668,422.5841C199.90347,424.88568,198.93893,427.90137,198.66858,429.2859C198.35617,430.6698,197.95691,432.263,197.69693,432.84845C197.47903,433.4344,196.94159,435.95114,196.4888,438.4268L195.67218,443.0007L194.86511,437.1439C194.40204,433.94116,193.8341,429.09692,193.57526,426.35956L193.13513,421.39075L194.96805,416.28314C197.23627,410.0456,198.95724,403.84302,198.98404,401.7824C198.96552,399.9735,198.13101,396.21936,197.23373,394.06262C196.86676,393.17456,196.59097,391.7409,196.603,390.8158C196.62653,389.00745,197.7107,383.25925,198.63535,380.07462C198.98712,378.90158,199.44318,376.1735,199.7239,373.99008C200.10406,370.63004,200.45581,369.45694,201.96536,366.57443C203.4755,363.6498,203.78519,362.47617,204.25436,358.73886C204.76782,354.8339,204.9,354.37302,205.44064,354.84262C205.81534,355.14194,207.06378,356.16763,208.1867,357.14963 Z M183.72516,491.67773C184.08453,493.15448,183.57425,503.28455,182.99973,505.42206C182.7337,506.4701,182.37433,508.23206,182.2334,509.36584C182.05096,510.45703,181.78885,511.2107,181.62277,511.04034C181.41525,510.82727,181.06079,508.972,180.8353,506.90808C180.56772,504.8437,180.13358,502.65088,179.80475,502.0578C179.4367,501.25385,179.36407,500.36963,179.6814,498.60718C179.9086,497.30627,180.1402,495.66895,180.23254,495.03925C180.32532,494.36743,180.67822,493.11023,180.98401,492.2309C181.72296,490.3899,183.36795,490.0327,183.72516,491.67773 Z M275.02808,615.4291C274.7992,620.0948,274.47635,622.2778,274.09192,622.73535C273.32397,623.5666,273.31357,624.3656,274.0509,625.8894C274.5009,626.8626,274.53308,627.6202,274.1726,629.4661C273.85364,631.35474,273.88315,632.3225,274.3648,634.0953C274.9683,636.2062,274.9661,636.3743,274.15616,637.2051C273.09006,638.3268,273.0824,638.9156,274.08405,639.51746C275.4625,640.2504,275.56293,642.2286,274.3199,644.021C272.9485,645.98,272.8955,646.8205,274.22372,648.1837C275.13687,649.121,275.257,649.5852,275.21872,652.5289C275.19522,654.3372,274.95764,656.4371,274.69495,657.23285C273.68942,660.164,271.2989,666.1056,269.52435,669.95197C268.48557,672.2098,266.48657,677.147,266.48273,677.4413C266.48166,677.5254,266.26318,678.1535,266.00214,678.82306C265.69684,679.6603,265.48438,679.8258,265.19547,679.4014C264.78424,678.681,265.19083,660.34796,265.66272,659.6391C265.83475,659.34686,265.98114,657.79254,265.9599,656.19403C265.94843,653.8384,266.17014,652.95807,267.03088,651.4551C268.27835,649.3262,268.42468,647.77185,267.46735,647.0024C266.1364,645.84937,266.06268,645.04926,266.97205,643.0422C267.62198,641.57855,267.76016,640.655,267.57068,639.05426C267.38226,637.3694,267.51718,636.6981,268.20477,635.5714C268.72095,634.69495,269.16275,633.0603,269.35773,631.0019C269.54892,629.2378,269.8701,627.181,270.1328,626.3852C270.39554,625.5895,270.75983,623.4492,270.99414,621.6016C271.46823,617.4858,272.74744,609.67914,273.09042,609.1789C273.2193,608.9703,273.7682,608.80914,274.3569,608.8168L275.4083,608.83044L275.02808,615.4291 Z"/> </g> </g> </g> </svg>