<?xml version='1.0' encoding='utf-8'?>
<svg xmlns="http://www.w3.org/2000/svg" width="297mm" height="210mm" viewBox="0 0 1052.3622 744.09448" id="svg4438" version="1.1"> <defs id="defs4440"/> <metadata id="metadata4443"> </metadata> <g id="layer1" transform="translate(0,-308.26772)"> <g transform="matrix(1.6699025,0,0,1.6699025,1216.163,-674.68362)" id="g5852"> <path id="path5761" d="m -630.78504,747.5015 c -3.5343,0 -4.76513,1.35292 -4.76386,3.05534 l -5.70888,227.43991 c -0.63674,7.58839 2.77542,6.93966 6.51636,7.32457 160.05904,2.33895 320.25791,3.64311 481.53658,-3.0436 10.26014,-0.72288 10.62016,-5.74562 10.86116,-10.35853 l -0.65825,-215.26283 c 0.0162,-3.28672 0.5239,-6.49264 -2.63301,-6.47413 -163.80072,6.28033 -323.55126,-1.38144 -485.1501,-2.68073 z" style="fill:#eef4d7;fill-rule:evenodd;stroke:none;stroke-width:1px;stroke-linecap:butt;stroke-linejoin:miter;stroke-opacity:1"/> <path style="fill:#d5f6ff" d="m -233.20314,662.33391 c 10.7098,-2.1079 18.5902,-7.0424 21.89378,-13.70931 1.16277,-2.34656 1.27859,-2.79317 1.39103,-5.36402 0.0983,-2.24662 -0.003,-3.21801 -0.5091,-4.88425 -2.18408,-7.1906 -10.64937,-13.25734 -21.87847,-15.67942 -4.18614,-0.90294 -13.07432,-1.1318 -17.67651,-0.45516 -12.38191,1.82048 -22.07497,8.089 -24.69845,15.97254 -0.53975,1.62196 -0.63192,2.46702 -0.53426,4.89842 0.11038,2.74804 0.20201,3.10781 1.41506,5.55584 3.29725,6.65413 11.36196,11.67153 21.93446,13.64638 4.3824,0.81859 4.91612,0.8566 10.5,0.74775 3.47839,-0.0678 5.90505,-0.28446 8.16246,-0.72877 z" id="path5576"/> <path style="fill:#aaeeff" d="m -242.59728,750.7901 c 5.09385,-1.07485 7.07945,-3.72831 8.6985,-11.62417 0.62167,-3.0318 12.8307,-76.84039 12.71054,-76.84039 -0.0385,0 -0.84819,0.53902 -1.79921,1.1978 -10.86487,7.52629 -29.19031,8.4698 -41.81452,2.15288 -2.39112,-1.19647 -3.933,-2.22061 -6.01589,-3.99584 l -1.62297,-1.38325 0.17205,1.08257 c 0.0946,0.59541 2.76757,18.31013 5.93988,39.36604 3.1723,21.0559 6.01151,39.23055 6.30933,40.38812 1.4453,5.61748 4.24017,8.64401 8.91851,9.65774 2.24838,0.48719 6.19115,0.4865 8.50378,-0.002 z" id="path5574"/> <ellipse style="color:#000000;clip-rule:nonzero;display:inline;overflow:visible;visibility:visible;opacity:1;isolation:auto;mix-blend-mode:normal;color-interpolation:sRGB;color-interpolation-filters:linearRGB;solid-color:#000000;solid-opacity:1;fill:#c8b7b7;fill-opacity:1;fill-rule:evenodd;stroke:none;stroke-width:0.98155206px;stroke-linecap:butt;stroke-linejoin:miter;stroke-miterlimit:4;stroke-dasharray:none;stroke-dashoffset:0;stroke-opacity:1;color-rendering:auto;image-rendering:auto;shape-rendering:auto;text-rendering:auto;enable-background:accumulate" id="ellipse5389" cx="-439.97058" cy="856.82263" rx="118.27392" ry="105.31996"/> <ellipse ry="57.6455" rx="62.846298" cy="861.86023" cx="-442.84924" id="ellipse5391" style="color:#000000;clip-rule:nonzero;display:inline;overflow:visible;visibility:visible;opacity:1;isolation:auto;mix-blend-mode:normal;color-interpolation:sRGB;color-interpolation-filters:linearRGB;solid-color:#000000;solid-opacity:1;fill:#e3dbdb;fill-opacity:1;fill-rule:evenodd;stroke:none;stroke-width:0.52158988px;stroke-linecap:butt;stroke-linejoin:miter;stroke-miterlimit:4;stroke-dasharray:none;stroke-dashoffset:0;stroke-opacity:1;color-rendering:auto;image-rendering:auto;shape-rendering:auto;text-rendering:auto;enable-background:accumulate"/> <path id="path4910" d="m -305.37542,959.32267 c -0.36258,-0.1752 -0.89091,-0.8067 -1.17407,-1.4034 -0.48125,-1.0142 -0.50176,-3.5116 -0.31446,-38.2862 l 0.20037,-37.2013 -0.85522,-0.4846 c -2.27209,-1.2874 -3.54411,-4.5449 -3.95221,-10.1212 -0.37484,-5.1218 -0.36544,-17.5487 0.0189,-25.0027 0.62188,-12.0608 1.63016,-21.6005 4.94027,-46.7415 1.05362,-8.0025 2.21552,-17.3175 2.582,-20.7 0.36648,-3.3825 0.79124,-6.3145 0.94392,-6.5156 0.3177,-0.4184 6.25825,-4.5029 6.91648,-4.7555 0.29357,-0.1126 1.0184,0.6438 2.22997,2.3271 l 1.79503,2.494 0.78568,49.05 c 0.43212,26.9775 0.86388,50.4357 0.95948,52.1294 0.22397,3.9683 -0.19156,6.0583 -1.49608,7.5251 l -0.9744,1.0955 0.8621,34.95 c 0.47415,19.2225 0.80006,35.9327 0.72424,37.1338 -0.1523,2.4129 -0.80745,3.883 -1.9992,4.4861 -0.93212,0.4717 -11.22322,0.4895 -12.19281,0.021 z" style="fill:#000000"/> <path id="path4908" d="m -213.5969,942.21737 c -1.47727,-0.6425 -1.93943,-1.8615 -1.91901,-5.0617 0.01,-1.5121 0.76142,-19.6242 1.67061,-40.2492 0.90919,-20.625 1.65328,-38.2046 1.65353,-39.0658 l 6e-4,-1.5658 -1.725,-1.0961 c -2.42497,-1.541 -6.58368,-5.8489 -8.27823,-8.5753 -6.16399,-9.9171 -6.93677,-23.5637 -2.14922,-37.9535 2.98562,-8.9737 5.98123,-12.8291 11.52198,-14.8287 1.6723,-0.6036 2.54163,-0.7148 5.58678,-0.7148 3.45895,0 3.68686,0.04 5.57762,0.9705 4.94431,2.4341 8.81189,7.8198 11.4751,15.9795 4.82851,14.7939 3.16992,28.6202 -4.68444,39.0505 -0.95279,1.2652 -2.95567,3.452 -4.45086,4.8595 l -2.71853,2.5591 0.93353,40.9671 c 0.65788,28.8705 0.84319,41.3025 0.62756,42.1033 -0.39809,1.4784 -1.24236,2.3562 -2.63933,2.7442 -1.70228,0.4727 -9.31841,0.3835 -10.48254,-0.1228 z" style="fill:#000000"/> <path id="path4906" d="m -264.66442,938.51634 c -2.11461,-0.9187 -2.1004,1.2243 -0.24055,-36.2673 0.91757,-18.4969 1.75168,-34.8516 1.85358,-36.3438 l 0.18528,-2.7132 -2.01726,-1.3046 c -10.66208,-6.8953 -13.36458,-21.701 -7.31384,-40.0689 2.71988,-8.2567 5.04811,-11.9834 8.51902,-13.6364 1.23568,-0.5884 2.1166,-0.7382 4.99914,-0.8501 6.55684,-0.2545 8.70529,1.1478 11.91032,7.7735 3.27767,6.7758 5.26106,14.2307 5.63465,21.1786 0.56849,10.5727 -3.05601,19.8095 -9.93696,25.3235 l -1.94674,1.56 0.15515,3.4754 c 0.33283,7.455 1.67595,64.5385 1.58297,67.2768 -0.0878,2.5851 -0.17788,2.9859 -0.82625,3.6755 -0.40025,0.4256 -1.21025,0.908 -1.8,1.0718 -1.69435,0.4707 -9.58262,0.3601 -10.75851,-0.1508 z" style="fill:#000000"/> <path id="path4904" d="m -574.44931,636.96182 c -3.90729,-0.0458 -7.75691,1.544 -11.10156,4.6992 -2.51326,2.3709 -3.87405,4.9242 -5.48633,10.2949 -3.75009,12.492 -6.04471,29.1721 -6.4082,46.5684 l -0.17969,8.6191 0.8418,1.2149 c 1.04055,1.5015 3.05327,3.0047 5.66016,4.2246 l 1.98632,0.9297 0,2.8046 c 10e-6,2.5671 0.058,2.8444 0.67579,3.2813 0.88529,0.6261 4.9995,1.8979 7.27539,2.248 2.56355,0.3944 10.98501,0.1262 13.5,-0.4296 1.155,-0.2557 2.8425,-0.8392 3.75,-1.2969 l 1.65039,-0.8321 0.084,-3.1425 0.084,-3.1426 1.98828,-1.0313 c 1.09363,-0.567 2.72708,-1.7172 3.6289,-2.5566 2.0666,-1.9236 2.12279,-2.2266 2.14649,-11.4961 0.0517,-20.1987 -3.368,-45.9323 -7.07617,-53.25 -0.96711,-1.9085 -3.80357,-4.6626 -6.01954,-5.8437 -2.28931,-1.2203 -4.65559,-1.8358 -7,-1.8633 z m 2.4961,6.457 c 2.9649,0 4.0097,4.3455 1.37305,5.709 -1.09349,0.5655 -2.35995,0.5426 -3.22071,-0.0606 -1.0703,-0.7497 -1.56999,-2.2088 -1.20703,-3.5234 0.37232,-1.3484 1.48816,-2.125 3.05469,-2.125 z m -7.87695,2.2695 c 0.70746,-0.0169 1.43566,0.2105 2.06054,0.7364 1.14479,0.9633 1.46564,2.4127 0.8125,3.6757 -0.26093,0.5046 -0.61556,1.0034 -0.78711,1.1094 -0.74526,0.4606 -2.01443,0.6277 -2.92773,0.3848 -1.08265,-0.2879 -2.16023,-1.7228 -2.16211,-2.8789 -0.003,-1.7775 1.44747,-2.9902 3.00391,-3.0274 z m 5.7207,25.0254 c 2.05286,-0.006 2.43132,0.0876 3.8457,0.9668 0.86265,0.5363 1.61232,0.9746 1.66602,0.9746 0.0537,0 0.18162,-0.3375 0.28515,-0.75 0.15337,-0.6111 0.37241,-0.75 1.18164,-0.75 l 0.99219,0 0.80274,4.4356 c 0.4406,2.4393 0.80078,4.5727 0.80078,4.7402 0,0.2926 -2.04858,1.1872 -2.23633,0.9766 -0.0503,-0.0563 -0.45054,-0.8153 -0.88867,-1.6875 -1.65024,-3.285 -4.1578,-5.1641 -6.89258,-5.1641 -1.17871,0 -1.58298,0.1534 -2.30664,0.877 -0.72017,0.7202 -0.87695,1.1285 -0.87695,2.2851 0,2.1266 1.29781,3.2514 5.82421,5.0528 1.96513,0.782 4.17086,1.8345 4.90235,2.3378 3.57032,2.4565 4.60053,8.0108 2.27734,12.2793 -0.90231,1.6578 -1.96751,2.6818 -3.7207,3.5762 -2.4883,1.2695 -6.14796,0.9136 -8.31445,-0.8086 -1.79748,-1.4288 -1.8106,-1.4294 -2.16602,-0.1094 -0.28661,1.0643 -0.43189,1.209 -1.20898,1.209 -1.0535,0 -0.97129,0.2772 -1.80665,-6.1152 -0.34264,-2.6218 -0.50996,-4.8806 -0.37109,-5.0195 0.13886,-0.1388 0.65469,-0.3337 1.14453,-0.4317 0.85463,-0.1704 0.92266,-0.0999 1.71875,1.7305 1.57991,3.6324 4.97093,6.5232 7.65625,6.5332 2.11441,0.006 3.76628,-1.3029 3.96875,-3.1465 0.28393,-2.5854 -0.95669,-4.0061 -4.83984,-5.5488 -5.78715,-2.2992 -7.57844,-3.5548 -8.67383,-6.0742 -1.37081,-3.1529 -0.81976,-7.2999 1.28711,-9.6934 1.78732,-2.0306 3.20557,-2.6658 5.94922,-2.6758 z" style="fill:#000000"/> <path id="path4886" d="m -519.04696,630.15122 c -4.89269,-0.0926 -10.49154,2.8362 -13.32813,7.084 -5.21021,7.8024 -9.95098,35.7262 -9.95898,58.6543 -0.002,4.403 0.0121,4.5064 0.82226,5.6797 1.04109,1.5077 3.71011,3.4864 5.89453,4.373 l 1.68165,0.6836 0,2.9239 0,2.9238 1.74414,0.7832 c 1.59332,0.7151 4.15362,1.4723 6.05468,1.791 l 0.002,0 c 1.57363,0.2639 10.13748,0.1904 12,-0.1035 2.53982,-0.4007 5.46903,-1.3702 6.43359,-2.1289 0.72989,-0.5741 0.76685,-0.748 0.78125,-3.6563 l 0.0137,-3.0527 1.78321,-0.8457 c 2.25018,-1.0661 4.51772,-2.8459 5.36132,-4.2109 0.63108,-1.021 0.65058,-1.3379 0.64258,-9.8496 -0.0103,-10.9694 -0.51915,-19.1832 -1.83594,-29.6446 -1.33635,-10.6168 -3.17443,-19.229 -4.88281,-22.8789 -2.17248,-4.6416 -6.88831,-7.9037 -12.24023,-8.4668 -0.31888,-0.0335 -0.64257,-0.0524 -0.96875,-0.0586 z m -1.23828,4.4043 c 2.86446,0 4.15007,3.2269 2.10156,5.2754 -0.55524,0.5553 -1.04558,0.7246 -2.10156,0.7246 -1.05599,0 -1.54633,-0.1693 -2.10157,-0.7246 -2.04851,-2.0485 -0.7629,-5.2754 2.10157,-5.2754 z m -6.29883,4.2559 c 1.62024,-0.0949 3.15117,1.1162 3.14062,3.0625 -0.0135,2.4978 -2.37209,3.9024 -4.56054,2.7148 -1.06159,-0.5761 -1.43164,-1.3078 -1.43164,-2.8261 0,-0.9039 0.19391,-1.4283 0.7246,-1.959 0.63651,-0.6365 1.39049,-0.9491 2.12696,-0.9922 z m 11.87304,0.8281 c 0.68183,-0.0424 1.36908,0.2198 2.04102,0.7852 1.78109,1.4987 1.39415,4.2194 -0.72656,5.1054 -1.33126,0.5563 -1.60023,0.5384 -2.77149,-0.1758 -1.84062,-1.1219 -2.07709,-3.1475 -0.54687,-4.6777 0.64754,-0.6475 1.32208,-0.9947 2.0039,-1.0371 z m -5.84375,4.3984 c 1.50099,0.1178 2.81836,1.3577 2.81836,3.0098 0,1.3608 -0.4137,2.0956 -1.49414,2.6543 -1.39293,0.7203 -2.62917,0.5759 -3.6289,-0.4238 -1.55927,-1.5593 -1.16743,-4.0306 0.78515,-4.9571 0.49913,-0.2368 1.01921,-0.3224 1.51953,-0.2832 z m -10.08203,16.8633 7.42578,0.1133 c 6.28313,0.094 7.60954,0.1918 8.625,0.6406 4.66553,2.0625 6.64716,9.1879 4.03711,14.5137 -1.69221,3.4529 -4.26129,4.8867 -8.75195,4.8867 l -2.35547,0 0.0859,3.375 0.084,3.375 1.27539,0.0918 1.2754,0.0918 0,2.6836 0,2.6836 -5.84961,0 -5.85157,0 0,-2.7012 0,-2.6992 1.04102,0 c 0.72063,0 1.1343,-0.1778 1.34961,-0.5801 0.33404,-0.6241 0.4441,-18.8414 0.12109,-20.0468 -0.1357,-0.5064 -0.47483,-0.724 -1.3457,-0.8633 l -1.16602,-0.1856 0,-2.6894 0,-2.6895 z m 8.25,5.3047 -0.082,4.6367 c -0.0457,2.5506 -0.009,4.8316 0.082,5.0684 0.24286,0.6329 4.21187,0.2632 5.23828,-0.4883 2.47725,-1.8136 2.42879,-6.7513 -0.084,-8.5957 -0.67045,-0.4921 -1.29433,-0.6211 -3,-0.6211 l -2.1543,0 z" style="fill:#000000"/> <path id="path4842" d="m -594.43252,948.51573 c -0.65029,-0.3248 -1.26739,-0.9698 -1.62107,-1.6942 -0.57,-1.1675 -0.56556,-1.2668 2.3898,-53.4654 3.2268,-56.9925 3.14737,-53.9072 1.44521,-56.1388 -0.41313,-0.5417 -1.4357,-1.3317 -2.27238,-1.7557 -4.44657,-2.2533 -6.51314,-5.9827 -7.58886,-13.6953 -0.61205,-4.3883 -0.57843,-6.9225 0.29558,-22.2751 0.87074,-15.2952 0.88768,-15.4605 1.68871,-16.4789 1.13108,-1.4379 3.08313,-0.6007 3.39571,1.4565 0.0771,0.5073 0.22279,7.1999 0.32377,14.8724 0.17118,13.0059 0.22101,13.9882 0.73627,14.5144 0.69456,0.7092 1.93864,0.4612 2.44652,-0.4878 0.22119,-0.4133 0.67374,-6.0439 1.19185,-14.8288 0.64384,-10.9169 0.94149,-14.368 1.29879,-15.0589 0.8359,-1.6165 2.50395,-1.5882 3.39049,0.057 0.45801,0.8501 0.53096,2.5249 0.67171,15.4209 0.15567,14.2626 0.16694,14.4761 0.79764,15.1064 0.75033,0.7497 1.7267,0.5799 2.24613,-0.3906 0.19385,-0.3622 0.69198,-6.6713 1.18106,-14.9586 0.65409,-11.0833 0.95131,-14.5362 1.31116,-15.232 0.83778,-1.6201 2.51039,-1.5935 3.38465,0.054 0.44778,0.8437 0.52525,2.6391 0.67171,15.5685 0.14865,13.1228 0.21677,14.6659 0.66729,15.116 0.27595,0.2757 0.7149,0.4194 0.97544,0.3195 1.15253,-0.4423 1.33941,-1.8349 2.13471,-15.9075 0.42761,-7.5665 0.91301,-14.1138 1.07867,-14.5495 0.93666,-2.4636 2.88844,-2.4472 3.83108,0.032 0.20258,0.5329 0.32412,6.6315 0.34376,17.2495 0.0255,13.8003 -0.0472,16.9045 -0.45495,19.4251 -0.75783,4.6845 -1.91931,9.3888 -2.69696,10.9234 -0.94011,1.8552 -2.96587,3.6778 -5.41502,4.872 -2.21438,1.0797 -3.28045,2.1482 -3.71564,3.7243 -0.1917,0.6943 -0.0396,16.9597 0.44791,47.9157 0.40596,25.7755 0.70013,49.517 0.65369,52.7589 -0.11673,8.1488 -0.0165,8.056 -8.69979,8.0552 -4.62062,-3e-4 -5.65005,-0.083 -6.53464,-0.525 z" style="fill:#000000"/> <path id="path5230" d="m -636.21298,740.2144 c -8.9448,95.3989 -2.40161,167.5658 -2.21896,249.2734" style="fill:none;fill-rule:evenodd;stroke:#000000;stroke-width:1.70000005;stroke-linecap:butt;stroke-linejoin:miter;stroke-miterlimit:4;stroke-dasharray:none;stroke-opacity:1"/> <path style="fill:none;fill-rule:evenodd;stroke:#000000;stroke-width:1.70000005;stroke-linecap:butt;stroke-linejoin:miter;stroke-miterlimit:4;stroke-dasharray:none;stroke-opacity:1" d="m -606.85147,740.2144 c 3.55817,93.7414 -0.33752,166.7229 2.21896,249.2734" id="path5232"/> <path id="path5234" d="m -623.01469,989.855 -0.42406,-7.718 -3.73178,-5.0888 6.4458,-5.1736 -6.86987,-8.8205 6.19136,-5.6825 -6.19136,-9.1599 6.19136,-6.6154 -6.95467,-9.5839 7.29393,-7.2091 -5.7673,-9.2446 6.02174,-8.2269 -6.36099,-12.4675 7.20912,-8.0573 -6.86987,-8.9902 6.36099,-4.7495 -6.53061,-11.6194 7.20911,-7.8028 -6.86986,-9.5839 6.61542,-5.428 -6.4458,-11.7042 7.718,-4.4952 -7.80281,-13.4852 6.02173,-6.0218 -6.27617,-11.1105 5.42804,-5.8521 -5.68248,-10.1776 7.03949,-6.1065 -6.61542,-11.789 7.63318,-7.6332 c -2.65748,-3.3926 -7.14904,-4.6793 -7.97243,-10.1776" style="fill:none;fill-rule:evenodd;stroke:#000000;stroke-width:2.0999999;stroke-linecap:butt;stroke-linejoin:bevel;stroke-miterlimit:4;stroke-dasharray:none;stroke-opacity:1"/> <path style="fill:none;fill-rule:evenodd;stroke:#000000;stroke-width:1.70000005;stroke-linecap:butt;stroke-linejoin:miter;stroke-miterlimit:4;stroke-dasharray:none;stroke-opacity:1" d="m -195.59609,744.2925 c -0.50388,101.9641 0.6274,163.3647 -1.49931,243.2762" id="path5236"/> <path id="path5238" d="m -168.87334,743.5129 c 3.55816,93.7414 -0.67678,160.7012 1.87971,243.2517" style="fill:none;fill-rule:evenodd;stroke:#000000;stroke-width:1.70000005;stroke-linecap:butt;stroke-linejoin:miter;stroke-miterlimit:4;stroke-dasharray:none;stroke-opacity:1"/> <path style="fill:none;fill-rule:evenodd;stroke:#000000;stroke-width:2.0999999;stroke-linecap:butt;stroke-linejoin:bevel;stroke-miterlimit:4;stroke-dasharray:none;stroke-opacity:1" d="m -182.03797,986.9763 -0.42407,-7.7179 -3.73178,-5.0888 6.4458,-5.1736 -6.86986,-8.8206 6.19136,-5.6825 -6.19136,-9.1598 6.19136,-6.6154 -6.95468,-9.5839 7.29393,-7.2091 -5.76729,-9.2447 6.02173,-8.2268 -6.36099,-12.4676 7.20912,-8.0572 -6.86986,-8.9902 6.36098,-4.7495 -6.53061,-11.6194 7.20912,-7.8029 -6.86987,-9.5838 6.61543,-5.4281 -6.4458,-11.7042 7.71799,-4.4951 -7.8028,-13.4853 6.02173,-6.0217 -6.27617,-11.1105 5.42804,-5.8521 -5.68248,-10.1776 7.03949,-6.1066 -6.61543,-11.789 2.89541,-11.0516" id="path5240"/> <path id="path5498" d="m -454.88688,971.07077 c -31.2124,-2.2189 -59.8298,-14.8633 -80.7224,-35.6667 -12.3711,-12.3183 -20.7184,-25.6896 -25.94,-41.5524 -6.9699,-21.1743 -6.5327,-43.2059 1.2799,-64.5 1.6934,-4.6153 6.3442,-14.0351 9.0854,-18.4015 8.1474,-12.9779 19.7788,-24.7831 33.2971,-33.7945 10.0354,-6.6897 19.0893,-11.1351 30.3,-14.8771 19.3321,-6.4528 39.1782,-8.3445 59.55,-5.6764 36.7877,4.8182 69.6623,25.1445 88.0635,54.4495 2.9531,4.703 7.2471,13.3629 9.0828,18.3177 6.2674,16.9168 7.7842,35.1343 4.3821,52.6323 -3.2085,16.5023 -10.4919,31.7141 -21.8333,45.6 -3.0702,3.759 -10.2335,10.9987 -13.9951,14.1443 -25.1956,21.0697 -58.8171,31.7228 -92.55,29.3248 z m 22.8232,-5.7937 c 29.1425,-3.1942 54.8114,-15.0046 74.0957,-34.0919 16.5781,-16.4086 26.5222,-36.1323 29.5616,-58.6335 0.7334,-5.4296 0.733,-17.3754 -6e-4,-22.8 -3.0475,-22.5288 -12.6336,-41.6906 -29.1236,-58.2151 -26.8971,-26.9535 -66.7909,-39.5855 -106.9319,-33.8589 -49.1214,7.0078 -88.2237,41.1214 -97.0805,84.6949 -1.3877,6.8269 -1.7536,10.7504 -1.7514,18.7791 0,8.2454 0.3881,12.1403 1.9276,19.461 9.4456,44.9147 51.1319,79.4366 102.19,84.6272 2.4419,0.2483 5.2499,0.5057 6.2399,0.572 3.6012,0.2412 16.9024,-0.1 20.8732,-0.5348 z" style="fill:#000000"/> <path style="fill:#000000" d="m -450.98366,925.80489 c -18.08829,-1.2859 -34.67272,-8.61361 -46.78044,-20.66965 -7.16933,-7.13873 -12.00678,-14.8877 -15.03281,-24.08055 -4.03921,-12.27098 -3.78585,-25.03877 0.74173,-37.37919 0.98136,-2.67466 3.67661,-8.13365 5.26519,-10.66407 4.7216,-7.52099 11.46226,-14.36236 19.29642,-19.58467 5.81573,-3.87684 11.06267,-6.45304 17.55952,-8.62161 11.20339,-3.73955 22.70464,-4.83583 34.51055,-3.28961 21.3193,2.79226 40.37086,14.5718 51.03478,31.55471 1.71138,2.72549 4.19985,7.7441 5.26368,10.61551 3.6321,9.80366 4.51111,20.36111 2.53953,30.5016 -1.8594,9.56345 -6.0803,18.37903 -12.65289,26.42622 -1.77925,2.17842 -5.93055,6.37399 -8.11048,8.19693 -14.60141,12.21036 -34.08582,18.38407 -53.63478,16.99438 z m 13.22655,-3.35757 c 16.88872,-1.85112 31.76443,-8.69551 42.94011,-19.75703 9.60738,-9.50915 15.37021,-20.93947 17.1316,-33.97942 0.42503,-3.14657 0.4248,-10.06943 -3.4e-4,-13.21311 -1.76609,-13.05594 -7.32145,-24.16063 -16.87778,-33.73695 -15.58746,-15.62016 -38.70682,-22.94068 -61.96942,-19.62199 -28.46695,4.06118 -51.1276,23.83077 -56.26032,49.08259 -0.8042,3.95634 -1.01625,6.23009 -1.01498,10.88291 0,4.77839 0.22492,7.03557 1.11709,11.27809 5.47394,26.02906 29.63208,46.03528 59.22138,49.04334 1.41514,0.1439 3.04244,0.29307 3.61617,0.33149 2.08698,0.13978 9.79532,-0.058 12.09649,-0.30992 z" id="path5502"/> <path id="path5542" d="m -498.12468,994.11877 c -17.325,-0.1378 -43.11,-0.3939 -57.3,-0.5691 -14.19,-0.1752 -37.545,-0.4626 -51.9,-0.6387 -31.2486,-0.3833 -37.06487,-0.5832 -38.63354,-1.3276 -1.48111,-0.7028 -3.09351,-2.9601 -3.65541,-5.1174 -0.41786,-1.6042 -0.2091,-11.6947 2.54288,-122.9127 3.26067,-131.7764 2.90169,-122.4079 4.72615,-123.3401 0.45095,-0.2304 1.25402,-0.5124 1.78459,-0.6266 1.48842,-0.3205 70.44624,0.63 118.88533,1.6387 128.53321,2.6764 162.05389,3.2087 219.59999,3.4869 54.46995,0.2634 108.10854,-0.4483 150.3,-1.9942 14.09352,-0.5164 14.08521,-0.5166 15.57441,0.3209 0.717,0.4032 1.72485,1.3199 2.23962,2.0371 l 0.93597,1.304 0.0657,11.596 c 0.0362,6.3778 0.20502,58.711 0.3753,116.296 0.33,111.6041 0.37368,106.9143 -1.02039,109.6102 -1.12194,2.1696 -3.81372,3.9868 -7.07061,4.7734 -1.97403,0.4767 -4.29177,0.6286 -17.1,1.1207 -51.47121,1.9776 -96.58584,3.113 -161.25,4.0583 -28.07076,0.4103 -140.75501,0.5892 -179.09999,0.2842 z m 149.54999,-3.8955 c 69.09093,-0.6417 125.44308,-1.9184 185.7,-4.2071 20.75244,-0.7882 21.93144,-0.9586 24.61035,-3.5565 2.60898,-2.53 2.43642,0.5611 2.39673,-42.9377 -0.0192,-21.0375 -0.15462,-73.4611 -0.3009,-116.497 -0.24708,-72.6838 -0.30204,-78.302 -0.77292,-79.0206 l -0.50691,-0.7737 -6.78819,0.205 c -3.73347,0.1127 -10.43316,0.3307 -14.88816,0.4843 -31.24656,1.0775 -57.87582,1.5078 -105.3,1.7014 -61.7982,0.2522 -94.30981,-0.1383 -216.44999,-2.6003 -24.3375,-0.4905 -51.2025,-1.0277 -59.7,-1.1937 -50.1759,-0.98 -98.4753,-1.5602 -100.06951,-1.202 -1.66914,0.375 -2.53049,1.4776 -2.53049,3.2394 0,0.7751 -1.28007,53.2488 -2.84461,116.6083 -3.28464,133.0194 -3.11477,124.8926 -2.62859,125.7505 0.60132,1.0611 1.22657,1.556 2.40832,1.9062 1.13979,0.3377 26.73735,0.7893 85.11488,1.5014 69.38898,0.8464 158.46034,1.0945 212.54999,0.5921 z" style="fill:#000000"/> <path id="path4856" d="m -245.4946,623.77 c -7.6611,0.0112 -12.94234,1.0129 -18.86914,3.5801 -5.8187,2.5205 -11.09255,7.0239 -13.15625,11.2343 -1.9802,4.0403 -1.98798,4.3551 -0.57618,22.0508 0.6845,8.58 2.73108,34.3009 4.54688,57.1563 1.987,25.01 3.47829,42.2352 3.74609,43.2636 0.7036,2.7013 1.6616,4.4558 3.3711,6.1739 2.3973,2.4094 7.29844,4.5085 13.11914,5.6191 1.4202,0.2707 3.8485,0.3735 7.36718,0.3125 5.81191,-0.1015 8.70669,-0.6617 13.30079,-2.5742 4.4274,-1.8431 6.93627,-5.3752 8.45117,-11.8985 0.48,-2.0672 12.05623,-107.1102 12.36133,-112.1679 0.1948,-3.2291 -0.18581,-5.2675 -1.44141,-7.7383 -2.8798,-5.6672 -8.74015,-10.0776 -16.96875,-12.7715 -5.472,-1.7914 -8.59105,-2.2502 -15.25195,-2.2402 z m 1.00781,0.8398 c 0.94519,0.0223 1.89383,0.0729 2.8418,0.1524 16.8435,1.4112 29,10.0975 29,20.7226 0,8.9435 -9.08944,16.8674 -22.74024,19.8242 -3.8654,0.8372 -13.86305,1.0723 -17.91015,0.42 -13.386,-2.1575 -23.50533,-9.6537 -24.79883,-18.3692 -0.4273,-2.8786 0.0106,-5.2628 1.53515,-8.3535 4.31822,-8.7547 17.89446,-14.7307 32.07227,-14.3965 z m -33.23828,27.7461 c 0.092,-0.0479 0.49004,0.4605 0.96289,1.2461 0.9807,1.6292 0.99124,1.6903 5.43164,31.3711 4.1784,27.9295 4.41805,29.781 3.96875,30.4668 -0.4373,0.6679 -0.43712,2.7458 -0.0117,24.3516 0.2558,12.9912 0.42209,24.0368 0.37109,24.5468 l -0.0937,0.9278 -0.66015,-1.3711 c -1.0365,-2.148 -1.54006,-4.5296 -1.88086,-8.9102 -0.1733,-2.2275 -2.06774,-26.1175 -4.21094,-53.0898 -2.1432,-26.9724 -3.89648,-49.2394 -3.89648,-49.4824 0,-0.0304 0.006,-0.0498 0.0195,-0.0567 z m 64.09179,0.836 c 0.0637,-0.002 0.0879,0.0922 0.0879,0.2714 0,2.3657 -11.22657,103.3373 -11.72657,105.4688 -1.0459,4.4581 -2.92332,7.7438 -5.48242,9.5976 -0.6494,0.4704 -1.26233,0.8552 -1.36133,0.8555 -0.0989,3e-4 -0.091,-2.1935 0.0156,-4.875 0.1067,-2.6815 0.20761,-8.0432 0.22461,-11.916 0.0303,-6.8727 0.0631,-7.2325 1.36718,-15 0.73482,-4.3772 3.98351,-24.159 7.22071,-43.959 l 5.88672,-36 1.13867,-1.1992 c 0.6258,-0.66 1.49313,-1.7375 1.92773,-2.3945 0.38194,-0.5775 0.59499,-0.8468 0.70117,-0.8496 z m -60.7832,3.8789 c 0.16576,0.0265 0.86707,0.5379 1.69727,1.248 5.9108,5.0557 13.54632,7.9274 23.32422,8.7695 10.7538,0.926 22.33217,-1.9517 29.54687,-7.3418 0.5757,-0.4301 1.07819,-0.676 1.11719,-0.5468 0.039,0.1292 -2.82418,17.7863 -6.36328,39.2363 l -6.43555,39 0.18164,-10.3867 c 0.179,-10.3117 0.17452,-10.3919 -0.45898,-11.0254 -0.455,-0.455 -1.01201,-0.6387 -1.94141,-0.6387 -2.4371,0 -2.2466,-1.2268 -3.0957,19.9981 -0.4312,10.7776 -0.88118,19.0056 -1.05078,19.2109 -0.3975,0.4815 -2.9131,1.4267 -3.1543,1.1855 -0.1052,-0.1052 -0.0336,-8.7052 0.1582,-19.1113 0.2317,-12.581 0.24733,-19.1055 0.0488,-19.4765 -0.3838,-0.7171 -2.11576,-1.29 -3.13086,-1.0352 -0.4335,0.1088 -0.94537,0.4856 -1.13867,0.8379 -0.2333,0.4254 -0.60859,7.1402 -1.11719,19.9902 l -0.76562,19.3496 -1.80078,0.0782 c -0.99,0.0427 -1.99167,-0.0467 -2.22657,-0.1993 -0.3489,-0.2267 -0.55555,-3.6736 -1.12695,-18.8281 -0.3847,-10.2025 -0.79898,-19.0218 -0.92188,-19.5976 -0.4203,-1.9695 -3.05298,-2.3362 -4.30078,-0.5997 -0.5084,0.7076 -0.52098,1.5245 -0.24218,15.2969 0.1617,8.0025 0.25503,15.9008 0.20703,17.5508 l -0.0879,3 -0.92969,-1.3496 c -1.2437,-1.8048 -2.37133,-4.7242 -2.95313,-7.6504 -0.3167,-1.5929 -0.65792,-6.7607 -1.01562,-15.3652 -0.4875,-11.7231 -0.592,-13.0219 -1.0918,-13.5742 -0.3335,-0.3687 -0.9287,-0.6114 -1.5,-0.6114 l -0.94531,0 -4.26758,-28.5742 c -2.3463,-15.7162 -4.26586,-28.6852 -4.25586,-28.8203 6.4e-4,-0.0169 0.0134,-0.0233 0.0371,-0.0195 z m 12.83399,90.5644 0.75195,1.7637 c 0.4134,0.9705 1.40006,2.592 2.19336,3.6015 l 1.4414,1.834 0.1504,7.6797 c 0.1151,5.8937 0.2465,7.7957 0.5625,8.1758 0.226,0.2724 0.29439,0.4808 0.15039,0.4648 -1.2969,-0.1469 -7.14121,-2.551 -7.62891,-3.1386 -0.3005,-0.3616 -0.16252,-0.4317 0.85938,-0.4317 0.74869,0 1.41306,-0.1961 1.73046,-0.5136 0.5396,-0.54 0.53588,-1.8959 -0.0449,-15.5352 l -0.16601,-3.9004 z m 24.08203,7.9981 -0.15821,1.1015 c -0.087,0.6053 -0.24526,3.813 -0.35156,7.1289 l -0.19336,6.0293 0.81446,0.5918 0.8125,0.5938 -2.35938,0.5429 c -2.5374,0.5859 -10.64897,0.8979 -12.85937,0.4942 l -1.19922,-0.2207 0.79492,-0.336 c 0.4377,-0.1853 0.89638,-0.4972 1.01758,-0.6933 0.2471,-0.3999 0.23667,-2.5406 -0.0449,-9.1524 l -0.19336,-4.5214 2.16406,0.291 2.16406,0.2929 -0.21484,6.4864 c -0.2502,7.5637 -0.31839,7.373 2.59961,7.373 1.4159,0 1.87538,-0.1297 2.42968,-0.6836 0.6574,-0.6569 0.68805,-0.9257 0.83985,-7.1074 0.0868,-3.5337 0.25344,-6.5191 0.36914,-6.6348 0.1156,-0.1156 0.96517,-0.5172 1.88867,-0.8925 l 1.67969,-0.6836 z" style="fill:#000000"/> <path style="fill:#a0892c" d="m -639.35242,952.90221 c -0.33832,-1.12425 -1.7378,-2.3469 -3.13119,-3.51976 -1.59316,-1.34102 -3.28957,-2.24195 -7.35601,-2.84349 -9.93539,-1.46972 -20.02228,-0.79364 -29.20346,1.26837 -3.49503,0.78496 -9.04602,2.53752 -10.97681,3.46562 -1.91961,0.92272 -3.68489,2.20272 -3.68489,2.67191 21.22936,14.19996 39.40253,6.50919 54.35236,-1.04265 z" id="path5634"/> <path style="fill:#ffeeaa" d="m -633.82295,950.78516 c 2.70279,-56.63916 -3.36024,-111.11895 2.393,-159.20737 -0.15828,-0.41217 -2.49913,-2.42478 -7.67705,-3.3194 -7.03628,-1.21571 -12.09399,-2.6948 -18.76584,-2.11615 -6.3548,0.55114 -12.43016,2.03212 -19.31259,4.69232 -8.33539,2.59873 -9.78365,2.06009 -16.77395,1.44977 10.73012,54.1741 -8.20359,110.43657 -0.73047,155.339 20.00699,-8.33283 43.82228,-3.68327 60.86692,3.16183 z" id="path5636"/> <g transform="translate(-345.93121,-1287.1824)" id="g5126"> <path style="fill:#000000" d="m -310.03516,2077.0645 c -2.82817,-0.03 -5.43402,0.053 -7.25586,0.2675 -6.33996,0.7477 -12.56588,2.4208 -18.63086,5.0098 -3.94225,1.6828 -5.30337,1.8254 -11.03124,1.1523 -2.55548,-0.3003 -4.69386,-0.487 -4.75196,-0.416 -0.0581,0.071 -5e-4,1.4789 0.12696,3.1289 0.57531,7.4499 0.86944,17.7514 0.86914,30.4004 -3.6e-4,15.1227 -0.19262,21.597 -1.49805,50.3008 -1.40086,30.8017 -1.59144,38.4251 -1.42188,56.8496 0.0858,9.3225 0.24773,17.1758 0.36133,17.4531 0.26347,0.643 4.34533,2.7746 7.12696,3.7207 2.67957,0.9113 6.44045,1.6278 10.13281,1.9317 6.93992,0.571 17.05101,-0.3351 32.09961,-2.8789 10.85485,-1.835 11.0397,-1.9034 10.67382,-3.8535 -0.14121,-0.7528 -0.77061,-1.6888 -2.06445,-3.0723 -1.15272,-1.2324 -1.63149,-1.9196 -1.25976,-1.8086 0.33,0.098 1.74789,0.4624 3.15039,0.8086 1.4025,0.3462 2.80708,0.7058 3.12109,0.7988 0.62735,0.1869 0.62683,3.6673 -0.0117,-74.2988 -0.26905,-32.8505 0.42626,-54.4736 2.47656,-77.0469 0.25952,-2.8578 0.40256,-5.2656 0.31836,-5.3496 -0.30506,-0.3051 -4.8469,-1.3462 -9.15234,-2.0996 -3.33532,-0.5837 -8.66529,-0.9476 -13.37891,-0.998 z m 1.23047,0.9355 c 1.16677,0.01 2.30504,0.044 3.41797,0.098 0.38964,0.019 0.77407,0.038 1.15234,0.062 0.22886,0.015 0.45768,0.028 0.68165,0.045 0.70779,0.053 1.39745,0.1127 2.04492,0.1875 1.12838,0.1303 2.47472,0.3247 3.86719,0.5488 0,0 0.002,0 0.002,0 1.39187,0.224 2.82936,0.4777 4.13672,0.7285 1.96185,0.3765 3.63253,0.7453 4.42383,0.9942 0.26377,0.083 0.43,0.153 0.47656,0.205 0.0293,0.033 0.0511,0.1309 0.0645,0.2813 0.0406,0.45 0.009,1.3652 -0.0898,2.3574 -0.50023,5.0422 -0.98661,11.5737 -1.40625,18.7168 -0.20977,3.5715 -0.40201,7.2955 -0.57227,11.0625 -0.17034,3.7677 -0.31765,7.5769 -0.43555,11.3203 -0.17084,5.4245 -0.23427,16.6307 -0.19531,32.0254 2e-5,0.01 -2e-5,0.011 0,0.018 0.0392,15.4056 0.18067,35.0039 0.42188,57.207 0.1067,9.8175 0.0983,18.7456 -0.0195,19.8399 l -0.21485,1.9902 -1.38476,-0.418 c -1.05795,-0.3184 -3.47445,-0.842 -6.16993,-1.3633 0,0 -0.002,0 -0.002,0 -2.6963,-0.5212 -5.67287,-1.0398 -7.85351,-1.3476 -0.74524,-0.1052 -1.61239,-0.1967 -2.57227,-0.2734 -0.95916,-0.077 -2.00887,-0.139 -3.11914,-0.1875 -2.22057,-0.097 -4.67969,-0.1383 -7.125,-0.125 -1.22263,0.01 -2.44307,0.027 -3.62695,0.061 -1.18319,0.034 -2.33281,0.08 -3.41407,0.1406 -2.16371,0.1209 -4.05965,0.2958 -5.43554,0.5215 -4.70964,0.7726 -9.93625,2.0536 -13.8418,3.3164 -1.33508,0.4317 -2.46911,0.8573 -3.42187,1.2637 -0.71954,0.3069 -1.35525,0.6036 -1.78321,0.875 -0.78633,0.4987 -1.47705,0.9082 -1.53515,0.9082 -0.0581,0 -0.20905,-3.6116 -0.33399,-8.0254 -0.0519,-1.8325 -0.0891,-3.7547 -0.11328,-5.7734 l 0,0 c -0.0966,-8.0774 0.0302,-17.7206 0.39453,-29.5273 0,0 0,0 0,0 0.27329,-8.8557 0.68049,-18.9279 1.22656,-30.4707 1.39004,-29.3821 1.76239,-45.9422 1.36328,-60.4844 -0.16353,-5.9591 -0.44313,-13.028 -0.62109,-15.7089 -0.17793,-2.6808 -0.28252,-4.9159 -0.23242,-4.9649 0.0501,-0.049 1.50969,0.099 3.24219,0.3281 0.78719,0.1042 1.49051,0.1928 2.13281,0.2637 0,0 0.002,0 0.002,0 0.64146,0.071 1.22129,0.1245 1.75977,0.1563 0,0 0.002,0 0.002,0 3.2331,0.1902 4.9862,-0.3765 9.75391,-2.3282 3.89474,-1.5943 8.44568,-2.8943 12.91601,-3.6894 0.73052,-0.1299 1.54316,-0.2396 2.39258,-0.3399 0.28146,-0.033 0.5772,-0.06 0.86914,-0.09 0.59217,-0.061 1.19301,-0.1172 1.82031,-0.1641 0.35237,-0.026 0.70169,-0.05 1.0625,-0.072 0.6644,-0.04 1.33562,-0.071 2.01954,-0.096 0.29359,-0.011 0.57936,-0.025 0.875,-0.033 0.99766,-0.027 2.00057,-0.041 2.99804,-0.035 z m -10.10351,154.7617 c 6.85146,0 16.77759,1.0863 19.04882,2.0801 1.56473,0.6847 4.35649,2.9944 5.03321,4.1641 l 0.5332,0.9218 -1.2832,-0.4218 c -3.73065,-1.227 -13.81403,-1.7401 -31.07617,-1.5801 -7.70331,0.071 -14.24574,0.237 -14.53907,0.3672 -0.95723,0.4248 -1.23362,1.3378 -0.61523,2.0312 0.5457,0.6118 0.65274,0.614 18.39844,0.416 11.12252,-0.1244 18.77857,-0.09 20.31445,0.094 2.57526,0.3077 5.04089,0.8692 4.81445,1.0957 -0.20296,0.2029 -13.60187,2.4393 -18.83008,3.1426 -5.22595,0.7031 -18.21608,1.0489 -21.5996,0.5761 -3.7016,-0.5172 -7.918,-1.7739 -10.7754,-3.2148 -1.55384,-0.7835 -2.82331,-1.5569 -2.82031,-1.7168 0.0113,-0.6764 3.43899,-2.5931 6.39649,-3.5781 8.67147,-2.888 17.87599,-4.377 27,-4.377 z" id="path4956"/> <path style="fill:#000000" d="m -348.00781,2088.7578 c -1.13017,0 -1.27328,0.6833 -1.04688,5.0176 0.1187,2.2725 0.35822,4.3088 0.53125,4.5234 0.17437,0.2139 0.66447,0.3487 1.08985,0.2989 l 0.77539,-0.09 -0.0332,-4.4199 c -0.0346,-4.573 -0.22159,-5.3301 -1.3164,-5.3301 z m 0.89843,15 c -1.18413,0 -1.31243,0.6796 -0.94921,5.002 0.1885,2.2431 0.49642,4.2626 0.68359,4.4882 0.44733,0.539 1.29942,0.522 1.76172,-0.035 0.29169,-0.3512 0.29351,-1.3146 0.01,-4.5742 -0.36626,-4.2072 -0.57405,-4.8809 -1.50586,-4.8809 z m 1.35157,15 c -0.40089,0 -0.85611,0.2367 -1.00977,0.5254 -0.34113,0.641 0.4545,8.4376 0.91797,8.9961 0.42568,0.5132 1.28613,0.4772 1.74219,-0.072 0.29866,-0.3602 0.29728,-1.2507 -0.008,-4.4258 -0.21004,-2.1859 -0.50212,-4.2092 -0.64844,-4.498 -0.14632,-0.2887 -0.59325,-0.5254 -0.99414,-0.5254 z m 1.4375,15.0137 c -0.40303,0.016 -0.7777,0.1683 -0.88477,0.4473 -0.0973,0.2536 6e-5,2.2355 0.21485,4.4042 0.29997,3.0287 0.51565,4.0685 0.92968,4.4825 0.5902,0.5902 1.32879,0.4569 1.7168,-0.3086 0.31131,-0.6141 -0.48791,-8.1358 -0.91992,-8.6563 -0.22054,-0.2655 -0.65361,-0.3855 -1.05664,-0.3691 z m 1.70703,14.7129 c -0.19275,0 -0.39038,0.1272 -0.72656,0.373 -0.51413,0.3759 -0.52353,0.6395 -0.17188,4.5742 0.20528,2.2968 0.50977,4.3446 0.67578,4.5508 0.43768,0.5438 1.71418,0.4602 1.93946,-0.1269 0.10589,-0.2759 0.0356,-2.334 -0.15625,-4.5743 -0.27504,-3.2121 -0.45681,-4.1535 -0.85938,-4.4492 -0.31962,-0.2348 -0.50842,-0.3509 -0.70117,-0.3476 z m 1.20508,14.9726 c -1.1076,0 -1.24561,0.6663 -1.0293,5.002 0.11382,2.2814 0.34708,4.3244 0.51758,4.539 0.1705,0.215 0.65932,0.3489 1.08594,0.2989 l 0.77539,-0.09 -0.0215,-4.4023 c -0.0216,-4.5748 -0.21234,-5.3477 -1.32812,-5.3477 z m 36.77539,0.6153 c -0.90051,0.023 -1.80645,0.1569 -2.375,0.3945 -1.12353,0.4695 -2.516,2.0017 -2.78125,3.0586 -0.25527,1.017 0.67412,2.4635 2.44726,3.8066 1.46314,1.1083 2.53321,1.4431 2.53321,0.793 0,-0.1832 0.60768,-1.2024 1.34961,-2.2637 2.508,-3.5878 2.78608,-4.8999 1.17187,-5.5136 -0.55014,-0.2092 -1.44519,-0.2983 -2.3457,-0.2754 z m -9.4668,5.3535 c -0.6643,-0.028 -1.43647,0.2427 -2.14844,0.8789 -1.14979,1.0274 -0.9804,1.5126 0.96875,2.7656 0.72604,0.4667 1.4851,0.8582 1.68555,0.8692 0.46939,0.025 0.87758,-0.7509 1.14453,-2.1739 0.26532,-1.4143 -0.54322,-2.2934 -1.65039,-2.3398 z m 15.87695,0.062 c -0.50626,-0.019 -0.98151,0.1085 -1.31445,0.4414 -0.59688,0.5969 -0.60604,2.2955 -0.0195,3.4297 l 0.45117,0.873 1.5,-0.9336 c 0.82501,-0.5128 1.64419,-1.1076 1.82227,-1.3222 0.88188,-1.0626 -0.92068,-2.4318 -2.43946,-2.4883 z m -17.78906,5.164 c -0.38352,0 -0.77222,0.039 -1.16601,0.1016 l -1.13086,0.1797 0,3.0742 c 0,6.7769 2.12851,13.4302 5.62695,17.5879 l 0.77148,0.916 -0.82422,1.6973 c -1.99432,4.1079 -5.29722,8.6797 -8.22851,11.3867 -1.77894,1.6428 -4.85124,4.0572 -4.98438,3.918 -0.0561,-0.059 0.55786,-1.1859 1.36329,-2.5059 3.14913,-5.161 4.58203,-9.6204 4.58203,-14.25 0,-3.7918 -0.52851,-5.9817 -2.35743,-9.7734 l -1.3125,-2.7246 0.4668,-1.5918 c 0.56495,-1.9272 0.44218,-6.5819 -0.19336,-7.3477 -0.56674,-0.6829 -1.4842,-0.4666 -2.2207,0.5235 -0.54155,0.7279 -0.6384,1.3662 -0.74024,4.9492 l -0.11718,4.1152 -1.39649,1.5 c -1.93497,2.0764 -3.19914,4.1603 -4.22265,6.9648 -2.17321,5.9547 -2.64862,13.9496 -1.3418,22.5547 0.14379,0.9469 -0.0192,1.3295 -1.3125,3.0879 -2.3173,3.1507 -3.49481,6.1716 -2.95508,7.5782 0.32933,0.8582 1.20711,0.4741 2.88867,-1.2618 1.0271,-1.0602 2.11089,-2.6197 2.81446,-4.0488 0.62957,-1.2787 1.24392,-2.3262 1.36328,-2.3262 0.11935,0 1.16269,0.4658 2.31836,1.0352 4.65655,2.294 10.169,3.2631 14.75976,2.5918 4.93145,-0.7211 9.30508,-2.6749 16.31446,-7.2871 l 4.53515,-2.9824 -0.87304,-0.5762 c -0.48044,-0.316 -1.70383,-0.9063 -2.7168,-1.3125 -5.12511,-2.0554 -10.92774,-1.7194 -19.74414,1.1426 -1.80756,0.5868 -3.32916,1.0246 -3.38086,0.9726 -0.0517,-0.052 0.45078,-0.4718 1.11719,-0.9336 2.65563,-1.8404 6.45557,-6.5007 8.34765,-10.2383 0.50307,-0.9938 0.83513,-1.2789 1.66992,-1.4355 1.93963,-0.3638 5.13157,-2.2072 6.70899,-3.875 2.77943,-2.9389 4.01237,-6.2197 4.57226,-12.1699 0.68022,-7.229 -0.49015,-9.4871 -4.1289,-7.9668 -0.6112,0.2554 -1.40694,0.7413 -1.76758,1.0801 l -0.65625,0.6171 -0.45898,-0.8886 c -0.58071,-1.123 -2.04487,-1.7734 -3.13282,-1.3907 -1.06756,0.3754 -1.5965,1.4961 -1.40039,2.9688 l 0.16016,1.1992 -0.53125,-0.7383 c -1.98005,-2.7463 -4.40129,-4.1473 -7.08594,-4.1172 z m -24.79687,3.8086 c -0.16689,0 -0.33416,0.059 -0.52539,0.1797 -0.45305,0.2853 -0.53543,0.9187 -0.60743,4.6094 -0.0565,2.8977 0.0279,4.4096 0.26172,4.6914 0.18985,0.2287 0.58151,0.416 0.8711,0.416 1.06724,0 1.21911,-0.686 1.13281,-5.1074 -0.072,-3.6907 -0.15437,-4.3241 -0.60742,-4.6094 -0.19124,-0.1204 -0.35851,-0.1797 -0.52539,-0.1797 z m -0.24805,15.0215 c -0.25263,0.023 -0.48899,0.155 -0.73242,0.3985 -0.56363,0.5636 -0.98295,8.4584 -0.48242,9.0703 0.42205,0.509 1.29394,0.525 1.6875,0.031 0.74885,-0.9395 1.04973,-8.8035 0.35351,-9.2441 -0.30482,-0.193 -0.57354,-0.2792 -0.82617,-0.2559 z m -0.93164,14.9922 c -0.32511,-0.015 -0.64577,0.1018 -0.85742,0.3574 -0.49966,0.6035 -1.29775,8.3004 -0.93164,8.9844 0.40864,0.7636 1.50308,0.5956 1.94726,-0.2988 0.1886,-0.3798 0.51351,-2.3685 0.72266,-4.4199 0.3057,-2.9967 0.30716,-3.8202 0.004,-4.1856 -0.2289,-0.2759 -0.55966,-0.4226 -0.88476,-0.4375 z m -2.0957,14.9531 c -0.32981,-4e-4 -0.62347,0.085 -0.74219,0.2774 -0.3083,0.4989 -1.45132,8.4423 -1.2793,8.8906 0.2174,0.566 1.50184,0.6101 1.95313,0.066 0.43828,-0.5281 1.62113,-7.8864 1.38672,-8.625 -0.1178,-0.3711 -0.76869,-0.6086 -1.31836,-0.6094 z" id="path4950"/> </g> <g style="fill:#000000" transform="translate(-38.596028,983.6097)" id="g5651"> <path style="fill:#000000;fill-rule:evenodd;stroke:#000000;stroke-width:0.60000002;stroke-linecap:butt;stroke-linejoin:miter;stroke-miterlimit:4;stroke-dasharray:none;stroke-opacity:1" d="m -515.05913,-107.97574 c -0.92436,-0.7904 -2.71899,-0.62783 -1.55927,1.79916 2.56559,5.344 6.03097,9.428281 10.19523,12.534141 2.12606,1.58888 4.77043,1.50552 5.69733,-1.4993 0.77721,-3.45337 0.76913,-7.148231 0.17992,-10.974871 -0.44243,-2.61007 -2.85722,-3.01092 -3.4184,-0.65969 -1.3295,9.188081 -6.57241,2.53614 -11.09481,-1.19944 z" id="path5653"/> <path style="fill:#000000;fill-rule:evenodd;stroke:#000000;stroke-width:0.5;stroke-linecap:butt;stroke-linejoin:miter;stroke-miterlimit:4;stroke-dasharray:none;stroke-opacity:1" d="m -510.02241,-107.58479 c 1.19232,0.30439 2.43155,3.16523 3.51975,-2.20514 0.33859,-2.06533 -2.00245,-2.24064 -3.47734,-1.35701 -1.03658,0.65229 -0.88758,3.42774 -0.0424,3.56215 z" id="path5655"/> <path style="fill:#000000;fill-rule:evenodd;stroke:#000000;stroke-width:1px;stroke-linecap:butt;stroke-linejoin:miter;stroke-opacity:1" d="m -465.77115,-41.388129 c 0.92403,0.51531 4.73979,3.05129 -2.28996,1.78108 -18.06156,-3.39278 -30.99655,-18.84807 -41.38881,-40.28625 -0.71543,-1.56279 -0.56363,-2.58468 0.84813,-1.10257 15.0958,14.45505 34.6312,35.70007 42.83064,39.60774 z" id="path5657"/> <path style="fill:#000000;fill-rule:evenodd;stroke:#000000;stroke-width:1px;stroke-linecap:butt;stroke-linejoin:miter;stroke-opacity:1" d="m -447.19707,-32.058679 c -25.4461,-19.50339 -38.37737,-42.19238 -46.30798,-66.15426 -1.75619,-3.326701 -3.29981,-1.27752 -2.71402,0.50888 6.3637,23.0878 14.11988,46.00728 49.022,65.64538 z" id="path5659"/> <path style="fill:#000000;fill-rule:evenodd;stroke:#000000;stroke-width:1px;stroke-linecap:butt;stroke-linejoin:miter;stroke-opacity:1" d="m -459.41017,-52.074589 c 1.22617,-11.1229 -3.3186,-25.40349 -14.07898,-43.08507 -1.03941,13.74214 -0.78491,27.67836 11.53459,43.42433 1.14509,1.37424 2.44189,0.83874 2.54439,-0.33926 z" id="path5661"/> <path id="path5663" d="m -490.52915,-113.21823 c -0.5713,-0.85927 -2.15311,-1.19098 -1.83612,1.01746 0.70828,4.86584 2.53779,8.97011 5.23817,12.482881 1.37779,1.79595 3.66508,2.40773 5.29556,0.27877 1.62723,-2.520541 2.64937,-5.432451 3.21065,-8.597021 0.34813,-2.16886 -1.60775,-3.10316 -2.74306,-1.39524 -3.69728,6.89536 -6.33357,0.3136 -9.1652,-3.78685 z" style="fill:#000000;fill-rule:evenodd;stroke:#000000;stroke-width:0.51809865;stroke-linecap:butt;stroke-linejoin:miter;stroke-miterlimit:4;stroke-dasharray:none;stroke-opacity:1"/> <path id="path5665" d="m -486.32565,-111.62005 c 0.93608,0.54517 1.20032,3.11565 3.62772,-0.83494 0.86511,-1.53979 -1.09044,-2.27757 -2.59931,-1.95952 -1.06919,0.24816 -1.7146,2.4721 -1.0284,2.79446 z" style="fill:#000000;fill-rule:evenodd;stroke:#000000;stroke-width:0.43174887;stroke-linecap:butt;stroke-linejoin:miter;stroke-miterlimit:4;stroke-dasharray:none;stroke-opacity:1"/> <path style="fill:#000000;fill-rule:evenodd;stroke:#000000;stroke-width:0.55575556;stroke-linecap:butt;stroke-linejoin:miter;stroke-miterlimit:4;stroke-dasharray:none;stroke-opacity:1" d="m -492.04587,-128.65511 c 0.58713,-0.9218 2.37488,-1.43622 2.18624,0.7988 -0.42687,4.92554 -2.19996,9.22372 -5.01857,13.03462 -1.43782,1.94805 -4.01242,2.82343 -6.05084,0.89438 -2.06571,-2.31915 -3.4685,-5.09833 -4.36278,-8.1827 -0.57098,-2.11814 1.59802,-3.27593 3.03524,-1.70827 4.78609,6.43234 7.28815,-0.42571 10.21071,-4.83683 z" id="path5667"/> <path style="fill:#000000;fill-rule:evenodd;stroke:#000000;stroke-width:0.43174887;stroke-linecap:butt;stroke-linejoin:miter;stroke-miterlimit:4;stroke-dasharray:none;stroke-opacity:1" d="m -496.84021,-129.49498 c -0.84367,0.67947 -0.71917,3.2605 -3.71194,-0.28107 -1.08639,-1.39253 0.73629,-2.41542 2.27581,-2.32741 1.09432,0.0849 2.06617,2.18679 1.43612,2.60848 z" id="path5669"/> </g> </g> </g> </svg>