<?xml version="1.0" encoding="utf-8"?>
<svg version="1.1" id="Layer_1" xmlns="http://www.w3.org/2000/svg" xmlns:xlink="http://www.w3.org/1999/xlink" x="0px" y="0px"
	 viewBox="0 0 4774.977 5000" enable-background="new 0 0 4774.977 5000" xml:space="preserve">
<symbol  id="_x31_" viewBox="-13.344 -32.456 26.688 64.911">
	<path fill-rule="evenodd" clip-rule="evenodd" fill="#AD895C" d="M8.076,13.046c-0.075,0.259-1.526,2.358-1.8,2.275
		c-0.339-0.103-0.147-2.355-0.176-2.772c-0.153-2.185,0-3.623,2.006-4.049C7.965,9.68,8.449,11.76,8.076,13.046z"/>
	<path fill-rule="evenodd" clip-rule="evenodd" fill="#84AB27" d="M-10.679-2.914c-1.724-6.183-4.43-14.367-1.048-22.637
		c0.947-2.316,1.863-4.914,3.496-6.221c1.682-1.347,3.11-0.677,2.605,1.797C-9.663-10.227,6.106-1.703,5,15.862
		c-2.104-1.915-2.975-0.335-2.772,2.054C-4.025,15.959-8.977,3.191-10.679-2.914z"/>
	<path fill-rule="evenodd" clip-rule="evenodd" fill="#84AB27" d="M11.344,30.002c-0.786-1.515-2.516-6.038-4.237-6.613
		c-1.341-0.448-3.043,0.327-4.572-0.788c-1.488-1.086-2.477-3.09-2.502-4.727c2.017-0.248,2.751,2.739,3.964,2.828
		c1.305,0.096-1.827-3.715-0.672-4.552c1.764,0.265,2.057,1.994,3.317,2.791c0.372-0.838,0.22-4.858,1.69-4.606
		c1.266,0.217,1.969,3.403,1.843,4.733c-0.14,1.481-1.468,2.538-1.552,3.423c-0.088,0.924,2.929,4.291,3.49,5.233
		c0.825,1.387,1.078,2.997,1.232,4.565C11.878,33.08,11.775,30.833,11.344,30.002z"/>
	<path fill-rule="evenodd" clip-rule="evenodd" fill="#84AB27" d="M2.837-5.111C1.42-3.565-0.208-6.629,0.334-7.959
		C1.36-10.476,4.509-6.936,2.837-5.111z"/>
	<path fill-rule="evenodd" clip-rule="evenodd" fill="#84AB27" d="M3.798,1.633c-0.455-0.182-1.306-2.161-1.15-2.476
		C4.177-3.926,7.27,3.025,3.798,1.633z"/>
	<path fill-rule="evenodd" clip-rule="evenodd" fill="#84AB27" d="M6.102,8.277C5.66,8.087,5.093,5.976,5.441,5.559
		C6.985,3.708,8.431,9.276,6.102,8.277z"/>
	<g>
		<path fill="#84AB27" d="M0.533-12.534c-1.332,1.176-2.31-2.779-0.916-2.779C0.51-15.313,1.545-13.426,0.533-12.534z"/>
		<path fill="#84AB27" d="M-2.41-20.822c0.5-1.264,2.242-0.468,2.111,0.164C-0.476-19.803-3.414-18.286-2.41-20.822z"/>
		<path fill="#AD895C" d="M4.351,2.865C4.79,1.763,6.714,2.113,6.7,0.131C6.671-3.81,1.348-0.518,1.328-3.554
			c6.026-0.17,1.17-10.388-2.209-4.599c-2.168-4.507-5.387-9.731-2.388-16.573c0.523-1.192,1.648-2.018,2.06-3.049
			c1.071-2.682,1.959-3.311,2.71-0.803c1.63,5.445,0.534,11.912,2.395,17.233C5.757-6.019,7.712-0.981,7.983,4.85
			C6.793,4.392,3.59,4.778,4.351,2.865z M-0.638-22.271c-2.707-1.17-4.182,3.768-1.546,3.768C-0.025-18.503,2.05-21.11-0.638-22.271
			z M1.697-14.475c-1.378-3.641-5.238-1.028-3.128,2.159C0.005-10.147,2.578-12.146,1.697-14.475z"/>
	</g>
</symbol>
<symbol  id="_x31_0" viewBox="-12.409 -31.314 24.817 62.628">
	<path fill-rule="evenodd" clip-rule="evenodd" fill="#FFFDED" d="M2.172-9.842c0.805-1.012-2.66-0.871-2.852-1.319
		c-0.1-0.233,0.368-0.954,0.475-1.197c1.539-3.47,3.911-5.736,5.938-9.202c1.905-3.258,3.83-6.332,5.536-8.899
		c0.136-0.204,0.694-1.266,0.934-0.684c0.702,1.706-0.59,6.091-0.889,8.102c-0.441,2.967-0.397,5.389-0.847,7.93
		c-0.725,0.068-1.753-0.408-2.306-0.419c-0.627,1.324,1.742,0.724,2.071,1.529c0.261,0.64-0.952,6.701-1.031,7.192
		C8.858-4.674,6.905-5.871,5.472-6.48C4.967-5.058,7.678-5.106,8.833-4.708c-0.228,3-2.366,12.228-3.609,12.654
		C4.879,8.065,3.518,7.22,3.445,7.913c-0.052,0.492,1.452,0.415,1.5,0.878c-0.657,1.856-1.787,3.391-3.315,4.151
		c-0.993,0.494-3.612,1.308-4.697,1.149c-2.734-0.401-3.654-4.369-4.012-6.565c0.52,0.052,2.827,0.478,2.559-0.468
		C-4.663,6.552-6.755,7.237-7.205,6.4c-0.78-1.448,1.579-8.472,2.421-9.296c1.178,1.033,2.56-0.063,3.603,0.189
		c0.864,0.208,1.407-0.148,0.453-0.509c-0.856-0.324-3.378,0.692-3.69-0.429c-0.248-0.893,1.62-3.279,2.043-4.171
		c0.394-0.83,0.729-1.827,1.268-2.645C-0.421-10.566,1.927-9.535,2.172-9.842z"/>
	<path fill-rule="evenodd" clip-rule="evenodd" fill="#84AB27" d="M-1.972,14.687c0.37,0.117,0.366,3.145,0.423,3.789
		c0.345,3.954,0.757,8.793-0.625,12.838C-1.943,27.263-3.297,14.269-1.972,14.687z"/>
	<path fill-rule="evenodd" clip-rule="evenodd" fill="#84AB27" d="M-12.409,26.911c1.655-3.972,4.559-6.304,6.857-9.378
		C-7.224,21.477-9.7,24.515-12.409,26.911z"/>
	<path fill-rule="evenodd" clip-rule="evenodd" fill="#84AB27" d="M-5.511,22.287c0.332-1.215,0.667-3.564,1.484-4.271
		c0.64-0.553-1.606,8.47-3.114,11.827C-7.307,27.841-6.17,24.703-5.511,22.287z"/>
</symbol>
<symbol  id="_x31_1" viewBox="-22.375 -22.589 44.749 45.179">
	<path fill-rule="evenodd" clip-rule="evenodd" fill="#BFB1D3" d="M-14.052-17.651c5.449-0.653,14.241-7.28,22.1,1.516
		c1.599,1.789,4.07,5.92,2.641,9.681c-1.057,2.781-3.69,5.432-6.21,6.65C3.314,0.759,1.968,1.24,1.448,2.445
		C-0.55,7.066-4.42,10.079-10.972,9.73c-5.727-0.305-10.383-3.502-10.366-9.486c0.011-3.968,2.655-6.639,2.934-10.317
		c0.435-5.73-4.22-7.752-3.96-12.517C-19.898-21.259-18.316-17.141-14.052-17.651z"/>
	<path fill-rule="evenodd" clip-rule="evenodd" fill="#84AB27" d="M2.181,3.031c6.491-0.069,12.756,1.313,15.646,5.329
		c-1.059,0.475-5.163-0.139-4.987,1.369c0.096,0.823,5.682,1.436,8.019,3.618c3.075,2.872-3.312,0.211-3.178,2.347
		c0.093,1.48,3.122,1.661,4.694,6.895c-1.993-0.469-5.398-1.718-6.356-3.618c-1.785-3.54-0.318,2.816-1.418,2.982
		c-1.037,0.157-3.965-4.769-4.645-7.823c-0.814-3.656-1.734,1.767-1.809,2.64C4.302,14.112,2.662,8.727,2.181,3.031z"/>
</symbol>
<symbol  id="_x31_2" viewBox="-25.01 -20.343 50.02 40.685">
	<path fill-rule="evenodd" clip-rule="evenodd" fill="#F5D300" d="M-16.637-6.942c8.567-7.369,19.804-15.07,36.198-13.083
		c1.457,0.177,5.611,1.224,5.444,2.896c-0.14,1.406-4.476,2.668-5.617,2.996c-1.617,0.465-3.022,0.309-4.725,0.774
		C0.166-9.406-3.669,7.966-14.768,15.293c-0.332-2.354-2.659-2.878-3.998-4.561c-1.366-1.718-2.714-3.105-5.889-2.674
		C-24.417,1.056-20.777-3.381-16.637-6.942z"/>
	<path fill-rule="evenodd" clip-rule="evenodd" fill="#84AB27" d="M-21.1,9.895c0.451,0.274,4.888,4.473,4.887,4.618
		c-0.005,1.013-3.928,2.029-4.225,0.718c-0.148-0.652,0.925-1.607-0.332-1.556c-2.193,0.088-1.842,5.032-2.841,6.667
		c-1.384-2.221,0.004-5.733,0.618-7.503C-27.114,12.697-24.125,8.058-21.1,9.895z"/>
</symbol>
<symbol  id="_x31_3" viewBox="-28.026 -12.97 56.051 25.939">
	<path fill-rule="evenodd" clip-rule="evenodd" fill="#BFB1D3" d="M2.363-12.933c5.655,0.291,9.498,1.649,13.733,3.552
		c3.699,1.662,8.044,3.862,9.913,7.004c1.135,1.91,2.852,5.391,1.549,8.139c-3.307,6.973-16.229,6.549-23.388,3.749
		C1.709,8.549-0.845,7.349-3.677,7.144c-2.375-0.172-7.931,1.358-8.003-0.592c-0.008-0.216,2.975-5.435,1.291-5.673
		c-1.404-0.198-3.622,0.531-5.008,0.148c-1.39-0.383-0.012-6.206-2.684-3.552C-13.417-7.966-8.188-13.474,2.363-12.933z"/>
	<path fill-rule="evenodd" clip-rule="evenodd" fill="#84AB27" d="M-17.359-0.995c1.234,0.451,0.038,3.507,1.084,3.749
		c1.293,0.299,3.406-1.829,5.008-0.098c1.08,2.421-2.552,3.088-2.272,4.538c0.203,1.049,4.125,1.153,3.666,3.256
		c-5.898,1.976-10.866-1.625-13.888-4.439c-1.713-1.595-1.833-5.995-0.051-7.695C-22.221,1.337-20.711-0.671-17.359-0.995z"/>
	<path fill-rule="evenodd" clip-rule="evenodd" fill="#84AB27" d="M-25.31,10.399c-0.571,0.499-1.742,2.692-2.427,2.565
		c-1.368-0.254,2.449-5.423,4.44-5.229C-20.857,7.973-24.734,9.896-25.31,10.399z"/>
</symbol>
<symbol  id="_x31_4" viewBox="-32.24 -16.134 64.48 32.267">
	<path fill-rule="evenodd" clip-rule="evenodd" fill="#BF0222" d="M26.269,0.916C21.659-9.703,12.146-16.696-2.167-16.098
		c-9.362,0.391-15.697,4.508-20.271,9.241c-1.327,1.373-3.649,3.503-3.179,6.305c0.361,2.147,4.652,5.662,7.353,5.041
		c5.45-1.253,6.301-8.288,12.558-9.525c7.262-1.435,15.2-0.739,19.911,1.337C20.801-0.791,22.672,7.686,32.24,6.778
		C30.093,5.091,27.46,3.659,26.269,0.916z"/>
	<path fill-rule="evenodd" clip-rule="evenodd" fill="#84AB27" d="M-26.963,10.035c0.635-0.415,1.512-0.862,2.238-1.366
		c0.534-0.371,3.341-2.568,3.252-3.399c-0.249-2.321-3.419,2.05-3.851,2.448c-1.016,0.936-2.501,1.448-3.709,2.341
		c-1.42,1.049-1.922,2.665-2.806,4.26c-0.391,0.706-0.959,2.445,0.882,1.576C-29.551,15.225-29.799,11.887-26.963,10.035z"/>
</symbol>
<symbol  id="_x31_5" viewBox="-22.499 -26.352 44.997 52.704">
	<path fill-rule="evenodd" clip-rule="evenodd" fill="#FFFDED" d="M8.904,0.386c6.964-2.404,14.798,6.922,13.44,13.511
		c-0.617,2.991-5.145,9.225-9.399,9.608c-1.229,0.11-3.565-1.416-4.489-1.155c-1.582,0.446-2.173,3.14-4.211,3.695
		c-4.702,1.28-12.072-1.45-12.678-8.177c1.911-0.787,3.861-2.493,0.741-1.289c-2.402,0.927-5.551,0.259-7.585-0.745
		c-6.405-3.162-6.86-9.608-7.209-14.567c-0.331-4.704,5.832-7.748,10.576-8.442c4.324-0.632,7.044,3.128,11.137,3.398
		C2.16-3.583,5.116-3.332,7.242-0.296C4.784,1.955,7.439,0.891,8.904,0.386z"/>
	<path fill-rule="evenodd" clip-rule="evenodd" fill="#E9E0AA" d="M9.806-8.141c-0.078-0.511,0.311-3.67-1.098-2.606
		C6.982-9.443,7.808-4.993,6.001-3.975C5.648-3.776,4.657-4.117,4.47-4.473c-0.875-1.661,2.635-5.161,1.49-6.733
		c-1.565-2.152-6.326,6.083-9.592,4.974C-6.954-7.362,2.602-13.107,7.8-21.232c0.713-1.115,1.281-4.634,2.229-5.117
		c0.165-0.084,5.002,1.567,5.15,1.791c0.571,0.864-1.19,4.501-1.431,5.653C11.292-7.149,14.26-1.762,13.166-1.201
		C10.632,0.096,10.029-6.681,9.806-8.141z"/>
</symbol>
<symbol  id="_x31_6" viewBox="-22.835 -28.767 45.669 57.535">
	<path fill-rule="evenodd" clip-rule="evenodd" fill="#EBDBD0" d="M-7.189-8.466c0.996-0.039,4.17,1.859,4.152,0.646
		c-0.029-2.064-5.359-1.229-6.782-1.061c-2.973,0.35-1.345-3.931-0.784-5.306c0.324-0.796,1.021-3.103,1.753-3.23
		c0.726-0.126,4.255,0.711,5.306,1.153c0.249,0.105,2.435,2.371,2.676,1.061c0.557-3.031-7.224-1.557-7.336-3.414
		c-0.076-1.256,4.238-4.669,8.397-4.844c-0.529,1.288,3.012,3.05,3.045,2.076c0.027-0.786-2.319-0.795-2.03-2.076
		c7.931,1.152,13.051-1.646,16.933-5.306c-1.287,2.63-4.702,5.294-3.46,9.966c0.365,1.372,3.12,1.46,3.368,3.138
		c-0.324,0.307-1.288-0.027-1.43,0.461c3.108,0.414,4.441,2.849,5.075,5.583c-0.295,0.123-2.601-0.851-2.676-0.046
		C18.973-9.19,21.989-8.03,22.34-7.544c0.461,0.639,1.652,8.224-2.815,2.86c-1.047-1.258-2.986-2.885-5.075-1.661
		c3.287-0.255,4.072,3.259,6.275,4.245c0.38,0.17,0.997,0.197,1.107,0.507c0.213,0.601-1.555,3.52-2.215,3.461
		c-0.986-0.089-0.643-2.038-1.892-1.615c1.747,1.928,0.994,3.82-1.338,4.614c-0.895-1.959-4.511-5.444-4.66-3.737
		c-0.143,1.649,4.517,1.515,3.83,4.199c-0.32,1.251-4.647,2.525-6.275,2.814C-2.96,10.317-11.229,1.463-11.341-8.005
		C-9.887-7.714-8.694-8.408-7.189-8.466z"/>
	<path fill-rule="evenodd" clip-rule="evenodd" fill="#84AB27" d="M-7.588,11.506c-0.817,0.387-1.95,0.108-2.992,0.598
		c-1.521,0.716-2.695,3.029-4.275,3.303c-0.606,0.105-1.272-0.169-1.882-0.287c-1.522-0.294-4.2,1.047-5.463,0.008
		c-1.975-1.625,1.204-2.897,2.078-3.323c1.14-0.556,1.298-1.769,1.962-2.733c1.361-1.978,3.589-0.632,5.13-1.22
		c1.656-0.632,2.807-3.356,4.628-3.165c1.273,0.133,2.619,1.431,3.841,1.418C-5.319,7.547-5.543,10.538-7.588,11.506z"/>
	<path fill-rule="evenodd" clip-rule="evenodd" fill="#84AB27" d="M-3.731,9.044c1.728-1.041,4.551-0.163,5.636,1.225
		c1.462,1.872,0.39,4.12,0.653,6.656c0.27,2.611,3.177,2.265,3.512,4.369c0.22,1.385-0.931,2.306-0.817,3.757
		c0.097,1.227,1.196,3.77-1.021,3.716c-1.519-0.037-1.929-3.361-3.389-4.206c-0.306-0.178-0.75-0.266-0.98-0.449
		c-1.781-1.415-0.696-5.701-2.532-7.105c-1.408-1.077-2.682-1.473-2.491-3.92C-5.068,11.907-4.535,9.528-3.731,9.044z"/>
</symbol>
<symbol  id="_x32_" viewBox="-20.893 -33.967 41.785 67.935">
	<path fill-rule="evenodd" clip-rule="evenodd" fill="#84AB27" d="M-2.107,7.383c2.495,1.731,1.916,3.69,1.735,5.795
		c-0.331,3.843-2.373,7.988-3.929,11.459C-4.784,19.001-8.17,11.767-2.107,7.383z"/>
	<path fill-rule="evenodd" clip-rule="evenodd" fill="#84AB27" d="M-1.093,20.184c0.469-2.027,1.475-3.957,1.801-6.057
		c0.127-0.815,0.472-6.141,0.917-6.024c3.173,0.839,1.964,5.344,1.833,7.334C3.054,21.6,3.788,28.249,1.559,33.967
		C0.636,29.591-2.151,24.76-1.093,20.184z"/>
	<path fill-rule="evenodd" clip-rule="evenodd" fill="#84AB27" d="M5.161,7.121c2.296,3.231,2.827,6.919,1.506,10.149
		C5.117,14.062,4.524,10.221,5.161,7.121z"/>
	<path fill-rule="evenodd" clip-rule="evenodd" fill="#FFFDED" d="M-8.623-1.752c-5.039-5.476-15.267-7.184-11.426-19.283
		c2.323-7.317,11.578-11.449,17.352-10.215c-5.28,5.767-6.817,11.811-5.631,17.745C-7.232-8.02-2.603-3.029-2.402,2.439
		c1.125-5.078-3.316-10.062-4.78-15.191c-1.454-5.097-0.388-12.032,4.191-16.632c2.106-2.115,6.11-2.663,8.086-1.342
		c3.281,2.192,3.604,8.208,3.994,11.001C10.87-6.978,2.719-5.38,4.146-1.359c6.776-8.818,8.705-19.257,3.274-28.156
		c-1.524-2.498,2.489-0.834,3.732-0.262c9.779,4.497,13.351,17.643,5.304,24.555C13.193-2.42,9.08-3.93,6.175-0.18
		C4.381,2.137,6.98,3.889,6.077,6.139c-2.03-2.439-2.689-0.3-3.306,1.277c-1.04-2.372-2.44-2.386-3.405-0.131
		c-0.633-2.558-1.71-2.182-3.012-0.196C-4.252,5.273-3.71,1.705-6.069,4.927C-6.668,2.627-6.401,0.664-8.623-1.752z"/>
	<path fill-rule="evenodd" clip-rule="evenodd" fill="#AD895C" d="M7.976-31.97c-0.815,0.753-4.669-0.053-6.057-0.229
		c-1.539-0.196-5.431,0.206-6.089-0.524c-1.286-1.423,2.234-0.066,2.619-1.244c0.686,0.328,0.523,1.579,2.193,0.229
		c0.873,0.535,1.746,0.865,2.619,0.131c0.895,0.831,1.79,0.572,2.685,0.262C6.476-33.071,9.453-33.334,7.976-31.97z"/>
</symbol>
<symbol  id="_x33_" viewBox="-25.582 -25.841 51.164 51.682">
	<path fill-rule="evenodd" clip-rule="evenodd" fill="#84AB27" d="M-0.266,12.68c2.801,0.775,5.138,3.269,6.389,5.778
		C3.576,17.171,1.445,14.988-0.266,12.68z"/>
	<g>
		<path fill-rule="evenodd" clip-rule="evenodd" fill="#BF0222" d="M-13.263,11.678c-6.455-0.47-11.672-7.286-12.255-13.711
			c-0.782-8.611,5.697-17.28,10.697-20.491c11.125-7.144,28.7-1.685,35.91,6.328c4.198,4.666,6.247,14.354,2.611,20.893
			C20.289,10.836,10.156,15.2,1.402,10.925c0.613-0.61,2.203-0.241,2.963-0.703C-1.19,8.77-6.987,12.135-13.263,11.678z"/>
		<path fill-rule="evenodd" clip-rule="evenodd" fill="#84AB27" d="M-7.086,14.641c-1.476,2.24-3.385,4.316-5.725,5.525
			C-11.71,17.517-9.407,16.07-7.086,14.641z"/>
		<path fill-rule="evenodd" clip-rule="evenodd" fill="#84AB27" d="M-3.269,13.637c0.491,2.077-0.469,4.633-1.708,5.474
			C-5.053,17.235-4.612,14.593-3.269,13.637z"/>
		<path fill-rule="evenodd" clip-rule="evenodd" fill="#84AB27" d="M-1.461,14.29c1.995,3.354,4.858,6.883,4.872,11.551
			C1.086,22.758-0.654,18.556-1.461,14.29z"/>
	</g>
</symbol>
<symbol  id="_x34_" viewBox="-10.8 -32.653 21.601 65.306">
	<path fill-rule="evenodd" clip-rule="evenodd" fill="#DE903C" d="M-7.03-19.143c1.352,1.812,3.504-1.76,4.789,0.557
		c7.525,13.562,1.553,6.245,0.692,9.557c-0.233,0.898,3.412-0.157,3.709,0.057C2.856-8.47,2.926-7.34,3.295-6.7
		c1.741,3.022,3.703,6.536,5.582,9.885c0.792,1.411,2.466,5.891,1.399,6.968c-0.261,0.264-1.045,0.038-1.445,0.122
		c-1.7,0.358-3.455,1.706-4.97,1.97c-0.396,0.069-1.652-0.414-2.002-0.046c-0.976,1.027,2.153,0.899,2.391,0.837
		c1.395-0.367,4.869-2.739,5.658-1.801c0.397,0.472-0.818,2.483-1.035,2.718C4.879,18.274-3.033,18.02-7.02,14.439
		c-1.286-1.155-3.348-4.54-2.722-5.467c0.727-1.075,2.752-0.316,3.747-0.763c0.474-0.213,2.124-1.287,1.325-1.83
		c-0.344-0.234-1.395,0.779-1.779,0.908c-0.437,0.147-3.428,0.642-3.647,0.468c-0.701-0.556-0.262-6.63-0.017-7.419
		c0.369-1.185,0.138-4.52,0.756-5.182c0.235-0.251,4.688-0.223,3.849-1.189c-0.695-0.799-2.934,0.72-3.741-0.156
		c-0.577-0.626-0.202-3.102-0.138-3.973c0.167-2.269-0.401-4.436,2.23-4.68c-2.855,0.521-2.376-2.552-2.792-4.68
		c-0.831-4.244-1.466-9.249,0.151-13.13c3.153,3.622,4.339,8.081,6.388,12.024C-4.064-19.772-7.649-19.973-7.03-19.143z"/>
	<path fill-rule="evenodd" clip-rule="evenodd" fill="#84AB27" d="M4.894,19.769c-0.476-0.698-1.513-1.203-1.149,0.026
		c1.161,3.918,3.674,8.995,3.56,12.858c-3.411-4.104-3.978-8.473-4.086-12.665c-1.935,2.922-0.892,7.155-4.888,9.521
		c-0.022-4.986,2.922-10.421,4.046-11.364c3.378-2.834,7.221,4.459,8.423,7.014C8.797,24.491,6.187,21.668,4.894,19.769z"/>
</symbol>
<symbol  id="_x35_" viewBox="-25.425 -27.356 50.849 54.712">
	<path fill-rule="evenodd" clip-rule="evenodd" fill="#DE903C" d="M-25.398-4.535c0.343-6.459,3.85-15.307,7.052-19.497
		c1.708-2.235,6.55-4.63,9.282-2.489c-9.705,3.564-15.09,19.391-8.763,30.335c1.464,2.533,3.817,4.513,5.237,7.104
		C-19.682,9.602-25.879,4.508-25.398-4.535z"/>
	<path fill-rule="evenodd" clip-rule="evenodd" fill="#DE903C" d="M-16.324,3.554c-6.881-10.775-0.859-29.741,11.356-29.09
		c-7.468,7.971-3.327,14.542-4.148,28.52c-0.28,4.77,2.285,6.886,4.045,9.282C-10.952,12.324-13.805,7.499-16.324,3.554z"/>
	<path fill-rule="evenodd" clip-rule="evenodd" fill="#DE903C" d="M-8.131-15.892c1.016-14.185,18.615-16.865,16.905,6.638
		c-0.53,7.276,0.664,20.615-4.875,22.608c-5.22,1.88-10.405-3.519-11.408-7C-8.512,2.87-6.849-1.463-7.405-5.468
		C-7.752-7.963-8.389-12.275-8.131-15.892z"/>
	<path fill-rule="evenodd" clip-rule="evenodd" fill="#DE903C" d="M9.448,4.436c0.067-8.289,2.226-18.083,0-25.15
		c-0.693-2.198-3.059-4.028-3.578-5.652c4.478-1.896,14.428,4.953,13.067,23.957C18.051,9.967,9.285,14.898,7.01,12.473
		C8.148,10.284,9.42,7.81,9.448,4.436z"/>
	<path fill-rule="evenodd" clip-rule="evenodd" fill="#DE903C" d="M13.648-25.795c14.91,2.209,14.463,28.316,5.341,36.35
		c-1.198,1.055-3.422,2.102-5.03,0.674c9.143-6.469,8.261-30.675-0.467-36.868C13.521-25.715,13.573-25.767,13.648-25.795z"/>
	<path fill-rule="evenodd" clip-rule="evenodd" fill="#AD895C" d="M1.825,21.236c0.507,1.053,2.65,3.649,2.541,4.615
		c-0.035,0.311-1.628,1.542-2.074,1.504c-1.331-0.114-4.613-7.12-2.904-12.757c0.682-0.008,1.189,0.159,1.556,0.467
		C0.93,17.456,0.974,19.467,1.825,21.236z"/>
</symbol>
<symbol  id="_x36_" viewBox="-21.067 -29.668 42.134 59.336">
	<path fill-rule="evenodd" clip-rule="evenodd" fill="#F5D300" d="M-20.433-2.065c2.052-7.65,8.588-12.808,12.662-18.853
		c1.319-1.957,2.348-4.794,4.028-6.478c1.72-1.724,6.152-3.413,8.725-1.256c1.196,1.003,2.214,1.268,0.49,2.109
		C-3.273-22.275-12.106-8.458-13.543,2.502c-0.108,0.825-0.644,5.991,0.644,5.83c0.732-0.091,0.233-3.487,0.302-4.339
		c0.725-8.954,5.271-16.09,9.861-22.085c2.826-3.691,7.831-9.3,12.299-7.901c4.144,1.298,7.118,2.258,6.796,8.121
		c-0.331,6.023-3.333,9.731-4.386,15.653C11.001,3.255,9.092,8.597,6.64,12.481c-1.199,1.901-3.032,3.131-5.879,3.29
		C-3.88,16.03-4.904,12.158-9.855,13.26c-3.248,0.723-6.307,1.177-8.554-0.769C-20.243,10.903-22.065,4.021-20.433-2.065z"/>
	<path fill-rule="evenodd" clip-rule="evenodd" fill="#F5D300" d="M20.254-21.084c3.486,9.806-5.302,28.29-6.298,33.752
		c-0.685,3.756-2.041,6.876-5.149,8.045c-2.93,1.102-6.025-0.893-7.06-2.666c-1.212-2.075,2.809-1.965,3.976-2.923
		c4.015-3.295,5.893-10.641,6.952-16.927c1.188-7.047,6.787-13.418,3.7-21.69C18.51-23.564,19.692-22.665,20.254-21.084z"/>
	<path fill-rule="evenodd" clip-rule="evenodd" fill="#84AB27" d="M-8.424,18.596c0.083-0.761,0.658-4.042,1.459-4.253
		c1.468-0.387,1.923,1.336,1.812,2.361c-0.793,7.337,5.626,13.895-0.327,12.854C-6.519,26.341-8.91,23.043-8.424,18.596z"/>
</symbol>
<symbol  id="_x37_" viewBox="-20.636 -28.837 41.272 57.674">
	<path fill-rule="evenodd" clip-rule="evenodd" fill="#84AB27" d="M-16.785-9.255c7.693-10.485,18.147-8.62,28.224-3.439
		c-11.989-2.172-24.898,9.071-31.097,23.731C-21.143,5.53-21.46-2.884-16.785-9.255z"/>
	<path fill-rule="evenodd" clip-rule="evenodd" fill="#84AB27" d="M-1.44-19.515c0.411-1.95-0.663-7.171,0.483-8.466
		c2.018-2.28,6.489,0.588,9.319,1.772c-0.693,3.112-1.644,6.27-2.379,9.389C3.445-17.972-2.257-15.644-1.44-19.515z"/>
	<path fill-rule="evenodd" clip-rule="evenodd" fill="#84AB27" d="M0.833-6.557C0.285-6.708-4.09-7.606-2.955-8.55
		c3.073-2.556,8.348-3.209,12.127-2.989c2.182,0.127,5.105,0.023,7.02,2.066c5.22,5.567,5.166,13.426,3.261,20.208
		C16.803,4.278,9.314-4.221,0.833-6.557z"/>
	<path fill-rule="evenodd" clip-rule="evenodd" fill="#84AB27" d="M5.598,9.664c-0.904,0.473-5.453,3.675-6.287,3.33
		c-2.591-1.07-11.16-11.812-9.701-14.539c0.898-1.677,4.793-5.682,6.091-5.771c1.259-0.086,4.313,1.403,5.481,1.769
		c4.279,1.34,8.953,4.792,11.448,8.485C10.827,6.027,8.313,8.242,5.598,9.664z"/>
	<path fill-rule="evenodd" clip-rule="evenodd" fill="#84AB27" d="M-10.633,16.866c1.188,2.867,4.685,5.75,2.295,8.993
		C-11.965,23.837-14.271,19.8-10.633,16.866z"/>
	<path fill-rule="evenodd" clip-rule="evenodd" fill="#84AB27" d="M8.998,19.281c2.177,2.252-1.797,7.042-4.268,8.081
		C3.086,25.171,8.103,21.669,8.998,19.281z"/>
	<path fill-rule="evenodd" clip-rule="evenodd" fill="#84AB27" d="M-18.278,10.455c0.61-3.165,4.434-8.099,6.777-10.395
		c0.907,1.468,1.447,2.941,2.31,4.533c0.559,1.031,2.842,3.402,2.836,4.478c-0.023,4.476-8.775,7.42-7.78,12.145
		C-15.835,18.067-18.989,14.139-18.278,10.455z"/>
	<path fill-rule="evenodd" clip-rule="evenodd" fill="#84AB27" d="M-7.669,20.454c-0.576-1.175-2.502-3.688-1.856-4.987
		c0.833-1.677,3.58-3.066,4.565-5.081c1.867,0.91,2.168,3.249,4.057,3.926c2.153,0.772,5.279-4.305,7.209-3.25
		c1.163,0.635,2.306,4.141,2.059,5.197c-1.163,4.98-6.59,10.807-10.384,12.577C-4.275,26.231-6.282,23.282-7.669,20.454z"/>
	<path fill-rule="evenodd" clip-rule="evenodd" fill="#84AB27" d="M8.7,13.557c-0.316-0.74-1.812-2.57-1.457-3.243
		c1.034-1.958,5.466-3.161,6.755-5.521c5.838,4.745,3.696,12.799-2.782,18.748C10.283,20.65,10.037,16.69,8.7,13.557z"/>
</symbol>
<symbol  id="_x38_" viewBox="-27.654 -25.978 55.309 51.956">
	<path fill-rule="evenodd" clip-rule="evenodd" fill="#FFFDED" d="M-17.928-3.661C-13.558-3.978-8.7,0.1-10.796,4.66
		c-0.561,1.221-2.069,2.209-3.793,2.321c-1.441,0.094-5.298-1.908-5.491-1.075c-0.145,0.623,1.355,1.572,1.529,1.981
		c1.751,4.116,8.07,7.898,10.925,2.321c3.174-6.201-1.795-11.78-3.793-16.133c-1.931-4.207-7.793-11.699-7.189-14.435
		c0.296-1.341,4.974-2.584,6.51-3.057c1.697-0.522,5.467-3.006,6.963-2.491c1.044,0.36,2.691,5.293,3.34,6.51
		C1.384-13.431,4.193-4.643,9.243-0.887c4.87,3.621,10.981-1.737,8.491-8.095c-0.18-0.461-2.715-4.592-3.283-2.434
		c-0.263,1.001,0.686,1.01,0.679,1.811C15.113-7.65,11.604-5.76,9.526-6.322c-3.511-0.949-5.828-6.574-3.113-9.793
		c1.887-2.237,6.961-4.713,11.718-3.792c9.508,1.84,11.687,21.923,7.472,30.681c-7.507,15.6-28.845,17.44-38.663,13.303
		c-6.559-2.764-15.307-8.921-14.548-18.624C-27.241,0.757-22.489-3.33-17.928-3.661z"/>
</symbol>
<symbol  id="_x39_" viewBox="-18.232 -30.284 36.464 60.568">
	<g>
		<path fill-rule="evenodd" clip-rule="evenodd" fill="#BBDB82" d="M12.316,30.284c-1.27-1.34-4.671-3.733-4.213-6.806
			c0.043-0.291,2.233-6.25,0.162-6.211c-0.688,0.013,0,3.363-0.216,4.159c-0.26,0.961-3.297,4.904-4.537,4.807
			c-1.428-0.112-1.45-6.084-0.648-7.724c0.279-0.571,0.871-0.79,0.972-1.458c0.107-0.702-0.491-1.261-0.324-2.16
			c0.192-1.033,1.684-2.122,2.16-2.916c0.233-0.388,1.317-3.165,1.782-3.241c0.626-0.102,1.649,1.922,2.16,2.322
			c1.017,0.796,2.417,0.807,3.133,1.567c0.451,0.478,0.608,1.768,1.08,2.322c1.934,2.268,4.717,3.183,4.375,7.562
			c-0.115,1.468-5.563-1.877-5.941-2.376c-0.638-0.843-1.059-4.214-1.944-4.321c-1.725-0.209,0.653,4.981,0.865,5.239
			C11.829,21.84,15.178,21.713,12.316,30.284z"/>
		<path fill-rule="evenodd" clip-rule="evenodd" fill="#BBDB82" d="M16.799,12.136c-2.026-0.412-4.479-0.445-6.049-1.729
			c-0.808-0.66-2.341-4.64-3.403-4.483C6.531,6.046,5.97,9.204,5.511,10.084c-0.716,1.371-3.16,5.528-5.293,5.023
			c-0.815-0.193-0.855-3.798-0.756-5.077c0.253-3.28,3.412-4.605,4.051-6.967C4.057,1.05,2.645-3.799,2.054-6.174
			c-0.319-1.284-0.622-2.866-1.08-4.321c-0.264-0.84-1.56-3.3-1.134-4.159c0.563-1.136,3.684-0.747,4.645-1.674
			C5.803-12.896,7.771-0.629,9.886,2.306c0.656,0.911,2.397,1.233,3.187,1.89C15.047,5.842,16.889,9.094,16.799,12.136z"/>
	</g>
	<g>
		<path fill-rule="evenodd" clip-rule="evenodd" fill="#BBDB82" d="M-11.182,7.091c0.212-0.258,2.59-5.448,0.865-5.239
			c-0.886,0.107-1.307,3.478-1.944,4.321c-0.378,0.5-5.826,3.844-5.941,2.376c-0.342-4.378,2.441-5.293,4.375-7.561
			c0.472-0.554,0.629-1.844,1.08-2.322c0.716-0.759,2.116-0.771,3.133-1.567c0.511-0.4,1.535-2.424,2.16-2.322
			c0.465,0.075,1.55,2.853,1.782,3.241c0.477,0.795,1.968,1.884,2.16,2.916c0.167,0.899-0.431,1.458-0.324,2.16
			c0.102,0.668,0.693,0.888,0.972,1.458c0.802,1.639,0.779,7.611-0.648,7.724c-1.24,0.097-4.277-3.846-4.537-4.807
			C-8.265,6.674-7.577,3.324-8.265,3.31c-2.071-0.038,0.119,5.92,0.162,6.211c0.458,3.072-2.942,5.466-4.213,6.806
			C-15.185,7.735-11.842,7.899-11.182,7.091z"/>
		<path fill-rule="evenodd" clip-rule="evenodd" fill="#BBDB82" d="M-13.073-9.76c0.789-0.658,2.53-0.979,3.187-1.89
			c2.115-2.935,4.069-15.165,5.401-18.634c0.961,0.927,4.082,0.538,4.645,1.674c0.426,0.859-0.87,3.319-1.134,4.159
			c-0.458,1.455-0.761,3.036-1.08,4.321c-0.591,2.375-2.003,7.223-1.458,9.236c0.639,2.362,3.798,3.688,4.051,6.967
			C0.637-2.648,0.597,0.957-0.218,1.15C-2.35,1.655-4.795-2.501-5.511-3.873c-0.459-0.879-1.02-4.038-1.836-4.159
			c-1.062-0.157-2.595,3.822-3.403,4.483c-1.57,1.284-4.023,1.316-6.049,1.728C-16.889-4.862-15.047-8.115-13.073-9.76z"/>
	</g>
</symbol>
<path d="M3006.261,16.864c305.222,78.415,445.489,352.313,452.555,651.109c7.502,317.258-132.572,567.407-265.617,844.851
	c-57.485,119.883-120.193,258.235-114.023,394.343c1.759,38.804,2.507,85.956,49.829,86.693c66.774,1.039,134.04-5.33,200.803-6.732
	c329.567-6.924,677.352-23.331,1004.03,28.265c144.618,22.841,234.586,104.789,317.772,220.654
	c79.539,110.784,173.146,262.982,86.915,392.825c-36.71,55.277-86.982,104.4-115.244,164.938
	c-31.034,66.476,12.655,133.749,46.129,189.785c33.3,55.744,72.6,110.228,96.312,171.067c31.561,80.982-23.7,143.27-74.068,201.197
	c-41.45,47.669-97.812,97.73-120.041,158.384c-23.523,64.185,15.685,140.964,39.757,199.112
	c25.848,62.437,62.885,132.778,56.966,202.372c-6.799,79.948-66.646,144.916-120.762,198.732
	c-103.396,102.822-164.482,157.436-163.209,309.226c0.62,73.939,7.887,141.603-33.037,207.157
	c-41.546,66.551-102.184,124.918-161.574,175.488c-244.779,208.429-576.836,195.67-882.087,192.247
	c-333.61-3.741-664.891-29.107-997.538-49.544c-139.972-8.6-280.898-46.814-418.573-72.779
	c-162.644-30.673-325.538-60.098-488.338-89.93c-56.631-10.378-138.325-10.76-189.784-36.798
	c-28.538-14.44-8.893-169.346-8.882-197.45c0.075-180.48,0.125-360.96,0.159-541.44c0.065-347.077,0.069-694.154,0.07-1041.23
	c0-78.301,0.001-156.601,0.001-234.902c0-58.728,63.087-34.06,108.455-36.396c143.257-7.375,258.237-153.489,333.654-260.872
	c185.949-264.763,302.099-563.94,430.38-858.499c54.965-126.209,160.662-216.214,265.88-300.07
	c122.939-97.978,216.541-206.056,277.801-352.244c83.822-200.027,111.695-413.891,136.337-627.727
	c8.205-71.204-12.946-230.246,53.746-276.038C2867.297-15.972,2945.473,3.679,3006.261,16.864
	C3025.483,21.802,2912.708-3.428,3006.261,16.864z M1001.703,4674.561v-1862.5c0-125.99-102.135-228.125-228.125-228.125H228.125
	C102.135,2583.936,0,2686.071,0,2812.061v1862.5c0,125.99,102.135,228.125,228.125,228.125h545.453
	C899.567,4902.686,1001.703,4800.551,1001.703,4674.561z"/>
<g>
	
		<use xlink:href="#_x32_"  width="41.785" height="67.935" x="-20.893" y="-33.967" transform="matrix(-3.7498 0.0429 0.0429 3.7498 1593.9501 3737.1047)" overflow="visible"/>
	
		<use xlink:href="#_x32_"  width="41.785" height="67.935" x="-20.893" y="-33.967" transform="matrix(2.2671 2.9871 2.9871 -2.2671 3468.2078 2685.8926)" overflow="visible"/>
	
		<use xlink:href="#_x32_"  width="41.785" height="67.935" x="-20.893" y="-33.967" transform="matrix(-3.6341 -0.925 -0.925 3.6341 2225.1509 3067.7725)" overflow="visible"/>
	
		<use xlink:href="#_x32_"  width="41.785" height="67.935" x="-20.893" y="-33.967" transform="matrix(3.1385 -2.0524 -2.0524 -3.1385 4039.9849 3996.0293)" overflow="visible"/>
	
		<use xlink:href="#_x32_"  width="41.785" height="67.935" x="-20.893" y="-33.967" transform="matrix(0.8472 -3.653 -3.653 -0.8472 1337.1014 3064.6301)" overflow="visible"/>
	
		<use xlink:href="#_x32_"  width="41.785" height="67.935" x="-20.893" y="-33.967" transform="matrix(3.745 0.1945 0.1945 -3.745 1845.8373 3671.968)" overflow="visible"/>
	
		<use xlink:href="#_x32_"  width="41.785" height="67.935" x="-20.893" y="-33.967" transform="matrix(-3.4217 1.5343 1.5343 3.4217 3856.2659 3546.4375)" overflow="visible"/>
	
		<use xlink:href="#_x32_"  width="41.785" height="67.935" x="-20.893" y="-33.967" transform="matrix(-1.8242 3.2764 3.2764 1.8242 875.163 3846.2136)" overflow="visible"/>
	
		<use xlink:href="#_x32_"  width="41.785" height="67.935" x="-20.893" y="-33.967" transform="matrix(-0.6264 -3.6973 -3.6973 0.6264 3816.1226 4122.7588)" overflow="visible"/>
	
		<use xlink:href="#_x32_"  width="41.785" height="67.935" x="-20.893" y="-33.967" transform="matrix(3.5795 1.1178 1.1178 -3.5795 2208.3955 4803.7085)" overflow="visible"/>
	
		<use xlink:href="#_x32_"  width="41.785" height="67.935" x="-20.893" y="-33.967" transform="matrix(-0.2595 -3.741 -3.741 0.2595 2484.2144 3037.6912)" overflow="visible"/>
	
		<use xlink:href="#_x32_"  width="41.785" height="67.935" x="-20.893" y="-33.967" transform="matrix(1.1746 3.5613 3.5613 -1.1746 3502.5923 4534.9531)" overflow="visible"/>
	
		<use xlink:href="#_x32_"  width="41.785" height="67.935" x="-20.893" y="-33.967" transform="matrix(3.05 -2.1818 -2.1818 -3.05 114.867 3600.3687)" overflow="visible"/>
	
		<use xlink:href="#_x31_4"  width="64.48" height="32.267" x="-32.24" y="-16.134" transform="matrix(3.513 1.312 1.312 -3.513 3157.8948 3093.2085)" overflow="visible"/>
	
		<use xlink:href="#_x31_4"  width="64.48" height="32.267" x="-32.24" y="-16.134" transform="matrix(-4.768930e-05 -3.75 -3.75 4.768930e-05 2739.0469 2404.5828)" overflow="visible"/>
	
		<use xlink:href="#_x31_4"  width="64.48" height="32.267" x="-32.24" y="-16.134" transform="matrix(3.0984 -2.1125 -2.1125 -3.0984 3387.0752 3812.6392)" overflow="visible"/>
	
		<use xlink:href="#_x31_4"  width="64.48" height="32.267" x="-32.24" y="-16.134" transform="matrix(-3.3663 -1.6524 -1.6524 3.3663 382.3598 4530.3447)" overflow="visible"/>
	
		<use xlink:href="#_x31_4"  width="64.48" height="32.267" x="-32.24" y="-16.134" transform="matrix(-1.612 -3.3858 -3.3858 1.612 2390.3032 2785.2234)" overflow="visible"/>
	
		<use xlink:href="#_x31_4"  width="64.48" height="32.267" x="-32.24" y="-16.134" transform="matrix(0.9831 3.6188 3.6188 -0.9831 2478.6169 2338.6187)" overflow="visible"/>
	
		<use xlink:href="#_x31_4"  width="64.48" height="32.267" x="-32.24" y="-16.134" transform="matrix(3.6237 -0.9652 -0.9652 -3.6237 4190.6558 2630.4968)" overflow="visible"/>
	
		<use xlink:href="#_x31_4"  width="64.48" height="32.267" x="-32.24" y="-16.134" transform="matrix(1.7892 -3.2956 -3.2956 -1.7892 2181.7871 4539.8091)" overflow="visible"/>
	
		<use xlink:href="#_x31_4"  width="64.48" height="32.267" x="-32.24" y="-16.134" transform="matrix(0.949 3.6279 3.6279 -0.949 3184.8494 3383.2063)" overflow="visible"/>
	
		<use xlink:href="#_x31_4"  width="64.48" height="32.267" x="-32.24" y="-16.134" transform="matrix(2.5847 -2.7169 -2.7169 -2.5847 4147.7881 2128.8247)" overflow="visible"/>
	
		<use xlink:href="#_x31_4"  width="64.48" height="32.267" x="-32.24" y="-16.134" transform="matrix(3.5931 1.0733 1.0733 -3.5931 2046.1858 2037.2877)" overflow="visible"/>
	
		<use xlink:href="#_x31_4"  width="64.48" height="32.267" x="-32.24" y="-16.134" transform="matrix(3.6168 0.9907 0.9907 -3.6168 4040.449 4282.2871)" overflow="visible"/>
	
		<use xlink:href="#_x31_4"  width="64.48" height="32.267" x="-32.24" y="-16.134" transform="matrix(1.7497 3.3168 3.3168 -1.7497 3550.5906 4254.3965)" overflow="visible"/>
	
		<use xlink:href="#_x31_3"  width="56.051" height="25.939" x="-28.026" y="-12.97" transform="matrix(-1.7352 3.3244 3.3244 1.7352 614.3186 3138.0496)" overflow="visible"/>
	
		<use xlink:href="#_x31_3"  width="56.051" height="25.939" x="-28.026" y="-12.97" transform="matrix(0.159 3.7466 3.7466 -0.159 2541.6626 1937.9385)" overflow="visible"/>
	
		<use xlink:href="#_x31_3"  width="56.051" height="25.939" x="-28.026" y="-12.97" transform="matrix(-3.4436 -1.4847 -1.4847 3.4436 3002.0325 2487.1843)" overflow="visible"/>
	
		<use xlink:href="#_x31_3"  width="56.051" height="25.939" x="-28.026" y="-12.97" transform="matrix(-0.3398 -3.7346 -3.7346 0.3398 373.7943 3822.7881)" overflow="visible"/>
	
		<use xlink:href="#_x31_3"  width="56.051" height="25.939" x="-28.026" y="-12.97" transform="matrix(2.9419 2.3255 2.3255 -2.9419 2823.4531 2697.4192)" overflow="visible"/>
	
		<use xlink:href="#_x31_3"  width="56.051" height="25.939" x="-28.026" y="-12.97" transform="matrix(1.0905 3.5879 3.5879 -1.0905 3150.4651 269.8217)" overflow="visible"/>
	
		<use xlink:href="#_x31_3"  width="56.051" height="25.939" x="-28.026" y="-12.97" transform="matrix(2.341 -2.9295 -2.9295 -2.341 2138.0571 1775.8669)" overflow="visible"/>
	
		<use xlink:href="#_x31_3"  width="56.051" height="25.939" x="-28.026" y="-12.97" transform="matrix(2.7077 -2.5944 -2.5944 -2.7077 1369.4746 2844.2854)" overflow="visible"/>
	
		<use xlink:href="#_x31_3"  width="56.051" height="25.939" x="-28.026" y="-12.97" transform="matrix(-3.3871 -1.6093 -1.6093 3.3871 3742.3982 4612.4092)" overflow="visible"/>
	
		<use xlink:href="#_x31_3"  width="56.051" height="25.939" x="-28.026" y="-12.97" transform="matrix(3.6233 0.9665 0.9665 -3.6233 3043.8809 838.5332)" overflow="visible"/>
	
		<use xlink:href="#_x31_3"  width="56.051" height="25.939" x="-28.026" y="-12.97" transform="matrix(3.7497 -0.0507 -0.0507 -3.7497 3923.198 2819.6189)" overflow="visible"/>
	
		<use xlink:href="#_x31_3"  width="56.051" height="25.939" x="-28.026" y="-12.97" transform="matrix(-1.6183 3.3828 3.3828 1.6183 2946.3713 1706.4943)" overflow="visible"/>
	
		<use xlink:href="#_x31_3"  width="56.051" height="25.939" x="-28.026" y="-12.97" transform="matrix(2.676 2.6271 2.6271 -2.676 2937.2065 2005.4249)" overflow="visible"/>
	
		<use xlink:href="#_x34_"  width="21.601" height="65.306" x="-10.8" y="-32.653" transform="matrix(2.0961 -3.1095 -3.1095 -2.0961 2553.3088 4069.3533)" overflow="visible"/>
	
		<use xlink:href="#_x34_"  width="21.601" height="65.306" x="-10.8" y="-32.653" transform="matrix(3.7055 -0.5761 -0.5761 -3.7055 3322.3306 745.8065)" overflow="visible"/>
	
		<use xlink:href="#_x34_"  width="21.601" height="65.306" x="-10.8" y="-32.653" transform="matrix(-2.716 -2.5857 -2.5857 2.716 3340.9541 2895.5398)" overflow="visible"/>
	
		<use xlink:href="#_x34_"  width="21.601" height="65.306" x="-10.8" y="-32.653" transform="matrix(3.7332 0.3541 0.3541 -3.7332 4256.4722 4450.2417)" overflow="visible"/>
	
		<use xlink:href="#_x34_"  width="21.601" height="65.306" x="-10.8" y="-32.653" transform="matrix(-0.2524 3.7415 3.7415 0.2524 2850.9224 4407.8599)" overflow="visible"/>
	
		<use xlink:href="#_x34_"  width="21.601" height="65.306" x="-10.8" y="-32.653" transform="matrix(-0.1372 -3.7475 -3.7475 0.1372 2131.167 2785.905)" overflow="visible"/>
	
		<use xlink:href="#_x34_"  width="21.601" height="65.306" x="-10.8" y="-32.653" transform="matrix(-0.6872 -3.6865 -3.6865 0.6872 2509.2324 4838.4639)" overflow="visible"/>
	
		<use xlink:href="#_x34_"  width="21.601" height="65.306" x="-10.8" y="-32.653" transform="matrix(-1.0938 3.5869 3.5869 1.0938 3085.3572 4865.2686)" overflow="visible"/>
	
		<use xlink:href="#_x34_"  width="21.601" height="65.306" x="-10.8" y="-32.653" transform="matrix(3.4886 -1.3756 -1.3756 -3.4886 3840.3379 3833.1997)" overflow="visible"/>
	
		<use xlink:href="#_x34_"  width="21.601" height="65.306" x="-10.8" y="-32.653" transform="matrix(-2.1438 3.0768 3.0768 2.1438 2947.1055 2237.7119)" overflow="visible"/>
	
		<use xlink:href="#_x34_"  width="21.601" height="65.306" x="-10.8" y="-32.653" transform="matrix(3.1265 2.0706 2.0706 -3.1265 2774.2134 928.5374)" overflow="visible"/>
	
		<use xlink:href="#_x34_"  width="21.601" height="65.306" x="-10.8" y="-32.653" transform="matrix(3.7121 -0.532 -0.532 -3.7121 4333.4116 3048.8032)" overflow="visible"/>
	
		<use xlink:href="#_x34_"  width="21.601" height="65.306" x="-10.8" y="-32.653" transform="matrix(3.6949 0.6403 0.6403 -3.6949 112.2371 3302.6301)" overflow="visible"/>
	
		<use xlink:href="#_x31_5"  width="44.997" height="52.704" x="-22.499" y="-26.352" transform="matrix(-3.3553 -1.6746 -1.6746 3.3553 4642.5703 2569.8293)" overflow="visible"/>
	
		<use xlink:href="#_x31_5"  width="44.997" height="52.704" x="-22.499" y="-26.352" transform="matrix(3.6706 0.7675 0.7675 -3.6706 3088.9517 4411.0288)" overflow="visible"/>
	
		<use xlink:href="#_x31_5"  width="44.997" height="52.704" x="-22.499" y="-26.352" transform="matrix(-2.3358 2.9337 2.9337 2.3358 3097.4565 544.3543)" overflow="visible"/>
	
		<use xlink:href="#_x31_5"  width="44.997" height="52.704" x="-22.499" y="-26.352" transform="matrix(-1.2477 -3.5364 -3.5364 1.2477 3387.3777 3244.4517)" overflow="visible"/>
	
		<use xlink:href="#_x31_5"  width="44.997" height="52.704" x="-22.499" y="-26.352" transform="matrix(0.5754 3.7056 3.7056 -0.5754 2823.3235 3689.3318)" overflow="visible"/>
	
		<use xlink:href="#_x31_5"  width="44.997" height="52.704" x="-22.499" y="-26.352" transform="matrix(3.6239 -0.9645 -0.9645 -3.6239 4472.814 3708.0498)" overflow="visible"/>
	
		<use xlink:href="#_x31_5"  width="44.997" height="52.704" x="-22.499" y="-26.352" transform="matrix(2.1865 -3.0466 -3.0466 -2.1865 2552.7849 2615.7961)" overflow="visible"/>
	
		<use xlink:href="#_x31_5"  width="44.997" height="52.704" x="-22.499" y="-26.352" transform="matrix(-2.6469 2.6564 2.6564 2.6469 3627.3208 4837.7705)" overflow="visible"/>
	
		<use xlink:href="#_x31_5"  width="44.997" height="52.704" x="-22.499" y="-26.352" transform="matrix(-2.9703 -2.289 -2.289 2.9703 2309.3198 3388.9573)" overflow="visible"/>
	
		<use xlink:href="#_x31_5"  width="44.997" height="52.704" x="-22.499" y="-26.352" transform="matrix(2.7241 2.5771 2.5771 -2.7241 3225.739 4615.437)" overflow="visible"/>
	
		<use xlink:href="#_x31_5"  width="44.997" height="52.704" x="-22.499" y="-26.352" transform="matrix(-3.1043 -2.1037 -2.1037 3.1043 1593.9414 4013.5735)" overflow="visible"/>
	
		<use xlink:href="#_x31_5"  width="44.997" height="52.704" x="-22.499" y="-26.352" transform="matrix(3.5623 -1.1715 -1.1715 -3.5623 4266.7925 3862.9709)" overflow="visible"/>
	
		<use xlink:href="#_x31_5"  width="44.997" height="52.704" x="-22.499" y="-26.352" transform="matrix(-3.6792 -0.7252 -0.7252 3.6792 3248.2556 2597.0757)" overflow="visible"/>
	
		<use xlink:href="#_x37_"  width="41.272" height="57.674" x="-20.636" y="-28.837" transform="matrix(-3.748 0.1224 0.1224 3.748 2386.6621 4658.2065)" overflow="visible"/>
	
		<use xlink:href="#_x37_"  width="41.272" height="57.674" x="-20.636" y="-28.837" transform="matrix(-1.0994 3.5852 3.5852 1.0994 2271.0571 1532.8328)" overflow="visible"/>
	
		<use xlink:href="#_x37_"  width="41.272" height="57.674" x="-20.636" y="-28.837" transform="matrix(-3.3378 1.7093 1.7093 3.3378 4053.3503 3393.8096)" overflow="visible"/>
	
		<use xlink:href="#_x37_"  width="41.272" height="57.674" x="-20.636" y="-28.837" transform="matrix(-0.6228 -3.6979 -3.6979 0.6228 371.6066 4064.7937)" overflow="visible"/>
	
		<use xlink:href="#_x37_"  width="41.272" height="57.674" x="-20.636" y="-28.837" transform="matrix(-0.5685 3.7067 3.7067 0.5685 3080.1858 3892.3452)" overflow="visible"/>
	
		<use xlink:href="#_x37_"  width="41.272" height="57.674" x="-20.636" y="-28.837" transform="matrix(2.9348 2.3344 2.3344 -2.9348 2677.8853 2133.8174)" overflow="visible"/>
	
		<use xlink:href="#_x37_"  width="41.272" height="57.674" x="-20.636" y="-28.837" transform="matrix(1.2062 3.5507 3.5507 -1.2062 2968.9065 3488.3027)" overflow="visible"/>
	
		<use xlink:href="#_x37_"  width="41.272" height="57.674" x="-20.636" y="-28.837" transform="matrix(-0.0996 3.7487 3.7487 0.0996 480.867 4772.396)" overflow="visible"/>
	
		<use xlink:href="#_x37_"  width="41.272" height="57.674" x="-20.636" y="-28.837" transform="matrix(3.2935 -1.7932 -1.7932 -3.2935 887.8491 4589.1187)" overflow="visible"/>
	
		<use xlink:href="#_x37_"  width="41.272" height="57.674" x="-20.636" y="-28.837" transform="matrix(2.3369 -2.9328 -2.9328 -2.3369 4180.5459 2874.8923)" overflow="visible"/>
	
		<use xlink:href="#_x37_"  width="41.272" height="57.674" x="-20.636" y="-28.837" transform="matrix(-0.0946 -3.7488 -3.7488 0.0946 4447.9971 2757.332)" overflow="visible"/>
	
		<use xlink:href="#_x37_"  width="41.272" height="57.674" x="-20.636" y="-28.837" transform="matrix(1.3618 3.494 3.494 -1.3618 2480.2446 1370.0682)" overflow="visible"/>
	
		<use xlink:href="#_x37_"  width="41.272" height="57.674" x="-20.636" y="-28.837" transform="matrix(-2.0138 3.1634 3.1634 2.0138 3145.376 3648.5889)" overflow="visible"/>
	
		<use xlink:href="#_x36_"  width="42.134" height="59.336" x="-21.067" y="-29.668" transform="matrix(-1.4074 3.4759 3.4759 1.4074 3606.4314 3672.4773)" overflow="visible"/>
	
		<use xlink:href="#_x36_"  width="42.134" height="59.336" x="-21.067" y="-29.668" transform="matrix(-2.0366 -3.1488 -3.1488 2.0366 2055.2688 4119.2886)" overflow="visible"/>
	
		<use xlink:href="#_x36_"  width="42.134" height="59.336" x="-21.067" y="-29.668" transform="matrix(-0.5316 -3.7121 -3.7121 0.5316 635.5465 3731.4641)" overflow="visible"/>
	
		<use xlink:href="#_x36_"  width="42.134" height="59.336" x="-21.067" y="-29.668" transform="matrix(-2.8508 2.4363 2.4363 2.8508 3173.0166 1261.1273)" overflow="visible"/>
	
		<use xlink:href="#_x36_"  width="42.134" height="59.336" x="-21.067" y="-29.668" transform="matrix(0.8051 -3.6625 -3.6625 -0.8051 2743.5403 1514.8494)" overflow="visible"/>
	
		<use xlink:href="#_x36_"  width="42.134" height="59.336" x="-21.067" y="-29.668" transform="matrix(2.6934 -2.6092 -2.6092 -2.6934 2717.604 3124.4373)" overflow="visible"/>
	
		<use xlink:href="#_x36_"  width="42.134" height="59.336" x="-21.067" y="-29.668" transform="matrix(-2.6166 2.6863 2.6863 2.6166 1562.6677 4269.4214)" overflow="visible"/>
	
		<use xlink:href="#_x36_"  width="42.134" height="59.336" x="-21.067" y="-29.668" transform="matrix(2.49 -2.804 -2.804 -2.49 4505.749 3946.9163)" overflow="visible"/>
	
		<use xlink:href="#_x36_"  width="42.134" height="59.336" x="-21.067" y="-29.668" transform="matrix(3.5053 1.3325 1.3325 -3.5053 4189.0322 2371.4153)" overflow="visible"/>
	
		<use xlink:href="#_x36_"  width="42.134" height="59.336" x="-21.067" y="-29.668" transform="matrix(-1.7934 3.2934 3.2934 1.7934 1846.4734 3422.4263)" overflow="visible"/>
	
		<use xlink:href="#_x36_"  width="42.134" height="59.336" x="-21.067" y="-29.668" transform="matrix(-3.6234 0.9662 0.9662 3.6234 3480.4465 2473.2644)" overflow="visible"/>
	
		<use xlink:href="#_x36_"  width="42.134" height="59.336" x="-21.067" y="-29.668" transform="matrix(-3.2622 1.8494 1.8494 3.2622 2666.334 1173.9105)" overflow="visible"/>
	
		<use xlink:href="#_x36_"  width="42.134" height="59.336" x="-21.067" y="-29.668" transform="matrix(-2.8009 2.4935 2.4935 2.8009 2529.5166 1649.5969)" overflow="visible"/>
	
		<use xlink:href="#_x31_0"  width="24.817" height="62.628" x="-12.409" y="-31.314" transform="matrix(-3.7068 0.5676 0.5676 3.7068 1801.0115 4192.3032)" overflow="visible"/>
	
		<use xlink:href="#_x31_0"  width="24.817" height="62.628" x="-12.409" y="-31.314" transform="matrix(-3.2344 -1.8977 -1.8977 3.2344 3855.1919 3286.6274)" overflow="visible"/>
	
		<use xlink:href="#_x31_0"  width="24.817" height="62.628" x="-12.409" y="-31.314" transform="matrix(-2.2855 2.9731 2.9731 2.2855 425.0761 3585.5813)" overflow="visible"/>
	
		<use xlink:href="#_x31_0"  width="24.817" height="62.628" x="-12.409" y="-31.314" transform="matrix(3.6626 -0.8049 -0.8049 -3.6626 3306.4851 481.382)" overflow="visible"/>
	
		<use xlink:href="#_x31_0"  width="24.817" height="62.628" x="-12.409" y="-31.314" transform="matrix(-2.7459 2.554 2.554 2.7459 1861.9572 2739.8564)" overflow="visible"/>
	
		<use xlink:href="#_x31_0"  width="24.817" height="62.628" x="-12.409" y="-31.314" transform="matrix(-1.1906 -3.556 -3.556 1.1906 1841.1284 3932.6326)" overflow="visible"/>
	
		<use xlink:href="#_x31_0"  width="24.817" height="62.628" x="-12.409" y="-31.314" transform="matrix(3.7246 -0.4358 -0.4358 -3.7246 375.4109 2707.3354)" overflow="visible"/>
	
		<use xlink:href="#_x31_0"  width="24.817" height="62.628" x="-12.409" y="-31.314" transform="matrix(1.0521 -3.5994 -3.5994 -1.0521 3357.0825 4860.1279)" overflow="visible"/>
	
		<use xlink:href="#_x31_0"  width="24.817" height="62.628" x="-12.409" y="-31.314" transform="matrix(-0.2524 -3.7415 -3.7415 0.2524 1648.8632 4705.3887)" overflow="visible"/>
	
		<use xlink:href="#_x31_0"  width="24.817" height="62.628" x="-12.409" y="-31.314" transform="matrix(-1.2221 -3.5453 -3.5453 1.2221 1345.0061 3857.9722)" overflow="visible"/>
	
		<use xlink:href="#_x31_0"  width="24.817" height="62.628" x="-12.409" y="-31.314" transform="matrix(2.906 2.3702 2.3702 -2.906 3032.0662 1483.4415)" overflow="visible"/>
	
		<use xlink:href="#_x31_0"  width="24.817" height="62.628" x="-12.409" y="-31.314" transform="matrix(2.0652 3.1301 3.1301 -2.0652 3637.9182 2849.0444)" overflow="visible"/>
	
		<use xlink:href="#_x31_0"  width="24.817" height="62.628" x="-12.409" y="-31.314" transform="matrix(2.661 -2.6423 -2.6423 -2.661 2832.968 674.5801)" overflow="visible"/>
	
		<use xlink:href="#_x33_"  width="51.164" height="51.682" x="-25.582" y="-25.841" transform="matrix(2.5845 -2.7172 -2.7172 -2.5845 852.6251 3287.9607)" overflow="visible"/>
	
		<use xlink:href="#_x33_"  width="51.164" height="51.682" x="-25.582" y="-25.841" transform="matrix(1.1805 3.5593 3.5593 -1.1805 4287.0918 3267.7864)" overflow="visible"/>
	
		<use xlink:href="#_x33_"  width="51.164" height="51.682" x="-25.582" y="-25.841" transform="matrix(3.2306 1.9042 1.9042 -3.2306 2929.1067 2949.1948)" overflow="visible"/>
	
		<use xlink:href="#_x33_"  width="51.164" height="51.682" x="-25.582" y="-25.841" transform="matrix(-3.6041 1.0357 1.0357 3.6041 2927.6858 145.2143)" overflow="visible"/>
	
		<use xlink:href="#_x33_"  width="51.164" height="51.682" x="-25.582" y="-25.841" transform="matrix(-0.8944 -3.6418 -3.6418 0.8944 2603.9729 4315.3711)" overflow="visible"/>
	
		<use xlink:href="#_x33_"  width="51.164" height="51.682" x="-25.582" y="-25.841" transform="matrix(-1.8598 -3.2563 -3.2563 1.8598 2815.1956 4172.209)" overflow="visible"/>
	
		<use xlink:href="#_x33_"  width="51.164" height="51.682" x="-25.582" y="-25.841" transform="matrix(-3.3704 1.644 1.644 3.3704 2323.3552 3676.9768)" overflow="visible"/>
	
		<use xlink:href="#_x33_"  width="51.164" height="51.682" x="-25.582" y="-25.841" transform="matrix(0.4667 3.7208 3.7208 -0.4667 863.5632 4074.8992)" overflow="visible"/>
	
		<use xlink:href="#_x33_"  width="51.164" height="51.682" x="-25.582" y="-25.841" transform="matrix(0.2605 3.7409 3.7409 -0.2605 2298.5935 2545.3938)" overflow="visible"/>
	
		<use xlink:href="#_x33_"  width="51.164" height="51.682" x="-25.582" y="-25.841" transform="matrix(0.797 -3.6643 -3.6643 -0.797 2563.2373 3805.9585)" overflow="visible"/>
	
		<use xlink:href="#_x33_"  width="51.164" height="51.682" x="-25.582" y="-25.841" transform="matrix(2.7991 -2.4955 -2.4955 -2.7991 388.7405 2927.4412)" overflow="visible"/>
	
		<use xlink:href="#_x33_"  width="51.164" height="51.682" x="-25.582" y="-25.841" transform="matrix(3.4227 -1.5322 -1.5322 -3.4227 3320.3882 4336.522)" overflow="visible"/>
	
		<use xlink:href="#_x33_"  width="51.164" height="51.682" x="-25.582" y="-25.841" transform="matrix(1.3822 3.486 3.486 -1.3822 132.1764 4151.4258)" overflow="visible"/>
	
		<use xlink:href="#_x31_"  width="26.688" height="64.911" x="-13.344" y="-32.456" transform="matrix(-1.7515 3.3158 3.3158 1.7515 132.5976 4442.624)" overflow="visible"/>
	
		<use xlink:href="#_x31_"  width="26.688" height="64.911" x="-13.344" y="-32.456" transform="matrix(-3.75 -0.0128 -0.0128 3.75 129.3785 3024.9453)" overflow="visible"/>
	
		<use xlink:href="#_x31_"  width="26.688" height="64.911" x="-13.344" y="-32.456" transform="matrix(-3.7402 0.2711 0.2711 3.7402 1332.4866 3345.7495)" overflow="visible"/>
	
		<use xlink:href="#_x31_"  width="26.688" height="64.911" x="-13.344" y="-32.456" transform="matrix(-0.9633 -3.6242 -3.6242 0.9633 3081.9001 4156.8774)" overflow="visible"/>
	
		<use xlink:href="#_x31_"  width="26.688" height="64.911" x="-13.344" y="-32.456" transform="matrix(1.519 -3.4286 -3.4286 -1.519 2179.0227 2301.8865)" overflow="visible"/>
	
		<use xlink:href="#_x31_"  width="26.688" height="64.911" x="-13.344" y="-32.456" transform="matrix(-3.7229 0.4502 0.4502 3.7229 1337.8231 4399.2129)" overflow="visible"/>
	
		<use xlink:href="#_x31_"  width="26.688" height="64.911" x="-13.344" y="-32.456" transform="matrix(-1.4062 3.4764 3.4764 1.4062 1962.9443 2982.7158)" overflow="visible"/>
	
		<use xlink:href="#_x31_"  width="26.688" height="64.911" x="-13.344" y="-32.456" transform="matrix(3.1368 -2.0549 -2.0549 -3.1368 1586.9543 2704.9319)" overflow="visible"/>
	
		<use xlink:href="#_x31_"  width="26.688" height="64.911" x="-13.344" y="-32.456" transform="matrix(-3.1575 -2.023 -2.023 3.1575 3400.9419 3537.8806)" overflow="visible"/>
	
		<use xlink:href="#_x31_"  width="26.688" height="64.911" x="-13.344" y="-32.456" transform="matrix(-2.8763 2.4061 2.4061 2.8763 2093.9753 3810.6917)" overflow="visible"/>
	
		<use xlink:href="#_x31_"  width="26.688" height="64.911" x="-13.344" y="-32.456" transform="matrix(1.5013 3.4364 3.4364 -1.5013 4532.1128 2981.1672)" overflow="visible"/>
	
		<use xlink:href="#_x31_"  width="26.688" height="64.911" x="-13.344" y="-32.456" transform="matrix(3.731 0.3772 0.3772 -3.731 364.4887 4308.8447)" overflow="visible"/>
	
		<use xlink:href="#_x31_"  width="26.688" height="64.911" x="-13.344" y="-32.456" transform="matrix(-0.0113 -3.75 -3.75 0.0113 4476.1553 3422.5022)" overflow="visible"/>
	
		<use xlink:href="#_x31_6"  width="45.669" height="57.535" x="-22.835" y="-28.767" transform="matrix(1.0042 -3.613 -3.613 -1.0042 1908.9775 2261.6055)" overflow="visible"/>
	
		<use xlink:href="#_x31_6"  width="45.669" height="57.535" x="-22.835" y="-28.767" transform="matrix(1.7057 3.3396 3.3396 -1.7057 1681.2003 4472.4888)" overflow="visible"/>
	
		<use xlink:href="#_x31_6"  width="45.669" height="57.535" x="-22.835" y="-28.767" transform="matrix(-3.1973 1.9596 1.9596 3.1973 4321.6792 4139.5645)" overflow="visible"/>
	
		<use xlink:href="#_x31_6"  width="45.669" height="57.535" x="-22.835" y="-28.767" transform="matrix(2.8181 2.474 2.474 -2.8181 2049.2112 3237.3076)" overflow="visible"/>
	
		<use xlink:href="#_x31_6"  width="45.669" height="57.535" x="-22.835" y="-28.767" transform="matrix(3.4322 1.5107 1.5107 -3.4322 2409.0332 4418.8311)" overflow="visible"/>
	
		<use xlink:href="#_x31_6"  width="45.669" height="57.535" x="-22.835" y="-28.767" transform="matrix(-3.4617 1.4418 1.4418 3.4617 2327.2053 1820.9342)" overflow="visible"/>
	
		<use xlink:href="#_x31_6"  width="45.669" height="57.535" x="-22.835" y="-28.767" transform="matrix(3.6293 0.9437 0.9437 -3.6293 3092.5891 2772.4001)" overflow="visible"/>
	
		<use xlink:href="#_x31_6"  width="45.669" height="57.535" x="-22.835" y="-28.767" transform="matrix(-3.41 1.5603 1.5603 3.41 2314.2915 3943.843)" overflow="visible"/>
	
		<use xlink:href="#_x31_6"  width="45.669" height="57.535" x="-22.835" y="-28.767" transform="matrix(3.1649 2.0115 2.0115 -3.1649 874.3616 3553.2632)" overflow="visible"/>
	
		<use xlink:href="#_x31_6"  width="45.669" height="57.535" x="-22.835" y="-28.767" transform="matrix(-3.6154 -0.9957 -0.9957 3.6154 2797.637 4859.2124)" overflow="visible"/>
	
		<use xlink:href="#_x31_6"  width="45.669" height="57.535" x="-22.835" y="-28.767" transform="matrix(-0.0242 -3.7499 -3.7499 0.0242 3543.8948 3086.0981)" overflow="visible"/>
	
		<use xlink:href="#_x31_6"  width="45.669" height="57.535" x="-22.835" y="-28.767" transform="matrix(3.6883 -0.6775 -0.6775 -3.6883 858.8594 2774.1616)" overflow="visible"/>
	
		<use xlink:href="#_x31_6"  width="45.669" height="57.535" x="-22.835" y="-28.767" transform="matrix(-1.903 3.2313 3.2313 1.903 3606.6621 3951.6658)" overflow="visible"/>
	
		<use xlink:href="#_x31_2"  width="50.02" height="40.685" x="-25.01" y="-20.343" transform="matrix(2.7989 -2.4957 -2.4957 -2.7989 3578.8376 2077.7163)" overflow="visible"/>
	
		<use xlink:href="#_x31_2"  width="50.02" height="40.685" x="-25.01" y="-20.343" transform="matrix(-3.657 -0.83 -0.83 3.657 3788.8713 3051.5415)" overflow="visible"/>
	
		<use xlink:href="#_x31_2"  width="50.02" height="40.685" x="-25.01" y="-20.343" transform="matrix(0.7407 3.6761 3.6761 -0.7407 2875.1033 1302.1429)" overflow="visible"/>
	
		<use xlink:href="#_x31_2"  width="50.02" height="40.685" x="-25.01" y="-20.343" transform="matrix(1.3845 -3.485 -3.485 -1.3845 1968.6625 4387.8652)" overflow="visible"/>
	
		<use xlink:href="#_x31_2"  width="50.02" height="40.685" x="-25.01" y="-20.343" transform="matrix(3.7276 -0.4089 -0.4089 -3.7276 4607.7686 3209.0879)" overflow="visible"/>
	
		<use xlink:href="#_x31_2"  width="50.02" height="40.685" x="-25.01" y="-20.343" transform="matrix(2.5817 2.7198 2.7198 -2.5817 1353.7645 4124.8237)" overflow="visible"/>
	
		<use xlink:href="#_x31_2"  width="50.02" height="40.685" x="-25.01" y="-20.343" transform="matrix(0.112 3.7483 3.7483 -0.112 4374.7515 2174.7249)" overflow="visible"/>
	
		<use xlink:href="#_x31_2"  width="50.02" height="40.685" x="-25.01" y="-20.343" transform="matrix(-3.6502 0.8596 0.8596 3.6502 3948.4182 2562.5745)" overflow="visible"/>
	
		<use xlink:href="#_x31_2"  width="50.02" height="40.685" x="-25.01" y="-20.343" transform="matrix(3.745 -0.1939 -0.1939 -3.745 2084.4971 3536.3687)" overflow="visible"/>
	
		<use xlink:href="#_x31_2"  width="50.02" height="40.685" x="-25.01" y="-20.343" transform="matrix(-3.2861 1.8067 1.8067 3.2861 2343.3716 2112.7056)" overflow="visible"/>
	
		<use xlink:href="#_x31_2"  width="50.02" height="40.685" x="-25.01" y="-20.343" transform="matrix(-3.4242 -1.5288 -1.5288 3.4242 3695.2253 2341.0852)" overflow="visible"/>
	
		<use xlink:href="#_x31_2"  width="50.02" height="40.685" x="-25.01" y="-20.343" transform="matrix(3.7433 0.2235 0.2235 -3.7433 646.7598 2922.4478)" overflow="visible"/>
	
		<use xlink:href="#_x31_2"  width="50.02" height="40.685" x="-25.01" y="-20.343" transform="matrix(3.7044 0.5827 0.5827 -3.7044 763.4696 4771.6929)" overflow="visible"/>
	
		<use xlink:href="#_x38_"  width="55.309" height="51.956" x="-27.654" y="-25.978" transform="matrix(2.7295 -2.5715 -2.5715 -2.7295 617.3276 4226.4268)" overflow="visible"/>
	
		<use xlink:href="#_x38_"  width="55.309" height="51.956" x="-27.654" y="-25.978" transform="matrix(-2.945 2.3216 2.3216 2.945 874.9774 3036.2395)" overflow="visible"/>
	
		<use xlink:href="#_x38_"  width="55.309" height="51.956" x="-27.654" y="-25.978" transform="matrix(-2.8947 2.3839 2.3839 2.8947 1371.3926 4639.9243)" overflow="visible"/>
	
		<use xlink:href="#_x38_"  width="55.309" height="51.956" x="-27.654" y="-25.978" transform="matrix(3.5417 -1.2325 -1.2325 -3.5417 295.7257 3413.5913)" overflow="visible"/>
	
		<use xlink:href="#_x38_"  width="55.309" height="51.956" x="-27.654" y="-25.978" transform="matrix(-2.7607 2.538 2.538 2.7607 3327.6514 4064.3767)" overflow="visible"/>
	
		<use xlink:href="#_x38_"  width="55.309" height="51.956" x="-27.654" y="-25.978" transform="matrix(-2.964 2.2972 2.2972 2.964 1341.0968 3602.0159)" overflow="visible"/>
	
		<use xlink:href="#_x38_"  width="55.309" height="51.956" x="-27.654" y="-25.978" transform="matrix(3.6734 0.7542 0.7542 -3.6734 2274.644 4242.0166)" overflow="visible"/>
	
		<use xlink:href="#_x38_"  width="55.309" height="51.956" x="-27.654" y="-25.978" transform="matrix(-1.4774 3.4467 3.4467 1.4774 1632.7695 2947.9927)" overflow="visible"/>
	
		<use xlink:href="#_x38_"  width="55.309" height="51.956" x="-27.654" y="-25.978" transform="matrix(0.9973 3.615 3.615 -0.9973 2973.6458 1075.6559)" overflow="visible"/>
	
		<use xlink:href="#_x38_"  width="55.309" height="51.956" x="-27.654" y="-25.978" transform="matrix(2.0146 3.1629 3.1629 -2.0146 2965.165 3221.5916)" overflow="visible"/>
	
		<use xlink:href="#_x38_"  width="55.309" height="51.956" x="-27.654" y="-25.978" transform="matrix(2.6216 2.6814 2.6814 -2.6216 2888.2532 395.5096)" overflow="visible"/>
	
		<use xlink:href="#_x38_"  width="55.309" height="51.956" x="-27.654" y="-25.978" transform="matrix(-2.8352 2.4544 2.4544 2.8352 2743.5583 3399.4541)" overflow="visible"/>
	
		<use xlink:href="#_x38_"  width="55.309" height="51.956" x="-27.654" y="-25.978" transform="matrix(3.7476 0.1344 0.1344 -3.7476 2815.1982 3934.7881)" overflow="visible"/>
	
		<use xlink:href="#_x39_"  width="36.464" height="60.568" x="-18.232" y="-30.284" transform="matrix(2.8186 -2.4735 -2.4735 -2.8186 3426.3672 2266.4561)" overflow="visible"/>
	
		<use xlink:href="#_x39_"  width="36.464" height="60.568" x="-18.232" y="-30.284" transform="matrix(3.4099 1.5605 1.5605 -3.4099 843.5699 4323.2178)" overflow="visible"/>
	
		<use xlink:href="#_x39_"  width="36.464" height="60.568" x="-18.232" y="-30.284" transform="matrix(1.5328 -3.4224 -3.4224 -1.5328 3892.5532 4833.4063)" overflow="visible"/>
	
		<use xlink:href="#_x39_"  width="36.464" height="60.568" x="-18.232" y="-30.284" transform="matrix(-1.3791 -3.4872 -3.4872 1.3791 523.3949 3324.0464)" overflow="visible"/>
	
		<use xlink:href="#_x39_"  width="36.464" height="60.568" x="-18.232" y="-30.284" transform="matrix(3.6855 -0.6925 -0.6925 -3.6855 3854.5098 2105.6135)" overflow="visible"/>
	
		<use xlink:href="#_x39_"  width="36.464" height="60.568" x="-18.232" y="-30.284" transform="matrix(-2.7646 -2.5337 -2.5337 2.7646 4151.6831 4687.1787)" overflow="visible"/>
	
		<use xlink:href="#_x39_"  width="36.464" height="60.568" x="-18.232" y="-30.284" transform="matrix(3.1725 -1.9995 -1.9995 -3.1725 2962.9902 4650.7769)" overflow="visible"/>
	
		<use xlink:href="#_x39_"  width="36.464" height="60.568" x="-18.232" y="-30.284" transform="matrix(3.4568 1.4537 1.4537 -3.4568 3596.45 3358.8982)" overflow="visible"/>
	
		<use xlink:href="#_x39_"  width="36.464" height="60.568" x="-18.232" y="-30.284" transform="matrix(-1.9448 -3.2063 -3.2063 1.9448 2552.9351 3537.1492)" overflow="visible"/>
	
		<use xlink:href="#_x39_"  width="36.464" height="60.568" x="-18.232" y="-30.284" transform="matrix(-2.1387 -3.0804 -3.0804 2.1387 2041.6633 2519.0828)" overflow="visible"/>
	
		<use xlink:href="#_x39_"  width="36.464" height="60.568" x="-18.232" y="-30.284" transform="matrix(0.4241 -3.7259 -3.7259 -0.4241 1592.8871 3477.4331)" overflow="visible"/>
	
		<use xlink:href="#_x39_"  width="36.464" height="60.568" x="-18.232" y="-30.284" transform="matrix(-3.7479 0.1261 0.1261 3.7479 4564.0532 2325.1697)" overflow="visible"/>
	
		<use xlink:href="#_x39_"  width="36.464" height="60.568" x="-18.232" y="-30.284" transform="matrix(1.2321 -3.5418 -3.5418 -1.2321 663.7157 3499.3933)" overflow="visible"/>
	
		<use xlink:href="#_x31_1"  width="44.749" height="45.179" x="-22.375" y="-22.589" transform="matrix(-3.1592 2.0204 2.0204 3.1592 1768.5162 2489.6135)" overflow="visible"/>
	
		<use xlink:href="#_x31_1"  width="44.749" height="45.179" x="-22.375" y="-22.589" transform="matrix(3.2886 1.8022 1.8022 -3.2886 622.1721 2696.0364)" overflow="visible"/>
	
		<use xlink:href="#_x31_1"  width="44.749" height="45.179" x="-22.375" y="-22.589" transform="matrix(-3.7302 -0.3848 -0.3848 3.7302 1556.9819 3212.8364)" overflow="visible"/>
	
		<use xlink:href="#_x31_1"  width="44.749" height="45.179" x="-22.375" y="-22.589" transform="matrix(-2.1798 3.0514 3.0514 2.1798 3765.782 4371.8286)" overflow="visible"/>
	
		<use xlink:href="#_x31_1"  width="44.749" height="45.179" x="-22.375" y="-22.589" transform="matrix(-0.1713 -3.7461 -3.7461 0.1713 179.2154 4736.2402)" overflow="visible"/>
	
		<use xlink:href="#_x31_1"  width="44.749" height="45.179" x="-22.375" y="-22.589" transform="matrix(3.738 0.2992 0.2992 -3.738 131.6491 3876.8525)" overflow="visible"/>
	
		<use xlink:href="#_x31_1"  width="44.749" height="45.179" x="-22.375" y="-22.589" transform="matrix(1.6191 3.3825 3.3825 -1.6191 1924.2998 4724.3857)" overflow="visible"/>
	
		<use xlink:href="#_x31_1"  width="44.749" height="45.179" x="-22.375" y="-22.589" transform="matrix(-2.2518 2.9987 2.9987 2.2518 3242.5784 2103.6653)" overflow="visible"/>
	
		<use xlink:href="#_x31_1"  width="44.749" height="45.179" x="-22.375" y="-22.589" transform="matrix(-2.7085 2.5936 2.5936 2.7085 2740.1072 1821.1678)" overflow="visible"/>
	
		<use xlink:href="#_x31_1"  width="44.749" height="45.179" x="-22.375" y="-22.589" transform="matrix(3.6507 -0.8574 -0.8574 -3.6507 4264.0938 3555.0977)" overflow="visible"/>
	
		<use xlink:href="#_x31_1"  width="44.749" height="45.179" x="-22.375" y="-22.589" transform="matrix(1.441 -3.4621 -3.4621 -1.441 2653.0779 4598.9766)" overflow="visible"/>
	
		<use xlink:href="#_x31_1"  width="44.749" height="45.179" x="-22.375" y="-22.589" transform="matrix(-3.609 -1.0185 -1.0185 3.609 3192.3652 2352.9021)" overflow="visible"/>
	
		<use xlink:href="#_x31_1"  width="44.749" height="45.179" x="-22.375" y="-22.589" transform="matrix(-3.2411 1.8862 1.8862 3.2411 3703.4399 2607.3328)" overflow="visible"/>
	
		<use xlink:href="#_x35_"  width="50.849" height="54.712" x="-25.425" y="-27.356" transform="matrix(0.2141 -3.7439 -3.7439 -0.2141 3972.0513 4517.687)" overflow="visible"/>
	
		<use xlink:href="#_x35_"  width="50.849" height="54.712" x="-25.425" y="-27.356" transform="matrix(0.0754 -3.7492 -3.7492 -0.0754 1793.486 3178.1882)" overflow="visible"/>
	
		<use xlink:href="#_x35_"  width="50.849" height="54.712" x="-25.425" y="-27.356" transform="matrix(-2.1156 3.0962 3.0962 2.1156 3968.6724 2331.0935)" overflow="visible"/>
	
		<use xlink:href="#_x35_"  width="50.849" height="54.712" x="-25.425" y="-27.356" transform="matrix(2.4543 2.8353 2.8353 -2.4543 165.5491 2751.4275)" overflow="visible"/>
	
		<use xlink:href="#_x35_"  width="50.849" height="54.712" x="-25.425" y="-27.356" transform="matrix(-0.5984 -3.7019 -3.7019 0.5984 617.5546 3975.4092)" overflow="visible"/>
	
		<use xlink:href="#_x35_"  width="50.849" height="54.712" x="-25.425" y="-27.356" transform="matrix(0.1237 3.748 3.748 -0.1237 4053.8333 3098.4001)" overflow="visible"/>
	
		<use xlink:href="#_x35_"  width="50.849" height="54.712" x="-25.425" y="-27.356" transform="matrix(2.387 2.8922 2.8922 -2.387 3276.7891 992.2396)" overflow="visible"/>
	
		<use xlink:href="#_x35_"  width="50.849" height="54.712" x="-25.425" y="-27.356" transform="matrix(-1.5927 -3.3949 -3.3949 1.5927 4380.876 2504.4097)" overflow="visible"/>
	
		<use xlink:href="#_x35_"  width="50.849" height="54.712" x="-25.425" y="-27.356" transform="matrix(1.0008 3.614 3.614 -1.0008 2509.6272 3267.4031)" overflow="visible"/>
	
		<use xlink:href="#_x35_"  width="50.849" height="54.712" x="-25.425" y="-27.356" transform="matrix(2.4622 2.8284 2.8284 -2.4622 2677.4722 2838.4265)" overflow="visible"/>
	
		<use xlink:href="#_x35_"  width="50.849" height="54.712" x="-25.425" y="-27.356" transform="matrix(-1.3842 -3.4852 -3.4852 1.3842 338.0093 3173.1831)" overflow="visible"/>
	
		<use xlink:href="#_x35_"  width="50.849" height="54.712" x="-25.425" y="-27.356" transform="matrix(2.7647 2.5336 2.5336 -2.7647 4065.3218 3679.0466)" overflow="visible"/>
	
		<use xlink:href="#_x35_"  width="50.849" height="54.712" x="-25.425" y="-27.356" transform="matrix(0.9998 -3.6143 -3.6143 -0.9998 617.4637 4498.2046)" overflow="visible"/>
</g>
</svg>
